<svg height="512pt" viewBox="-53 0 512 512.00049" width="512pt" xmlns="http://www.w3.org/2000/svg"><path d="m238.609375 433.171875c95.160156 3.265625 167.460937 19.507813 167.460937 39.105469 0 21.980468-90.925781 39.722656-203.035156 39.722656s-203.035156-17.742188-203.035156-39.722656c0-19.597656 72.296875-35.839844 167.460938-39.105469zm0 0" fill="#4fba6f"/><path d="m203.035156 0c67.324219-.152344 129.421875 36.261719 162.15625 95.089844s30.945313 130.792968-4.671875 187.921875c-16.308593 23.375-34.152343 45.640625-53.40625 66.648437-18.714843 22.6875-37.519531 45.375-55.96875 68.238282l-34.425781 42.109374c-3.375 4.078126-8.390625 6.441407-13.683594 6.441407-5.292968 0-10.3125-2.363281-13.683594-6.441407l-34.425781-42.109374c-18.449219-22.863282-37.253906-45.550782-55.96875-68.238282-19.257812-21.007812-37.097656-43.273437-53.40625-66.648437-7.046875-11.285157-12.847656-23.300781-17.300781-35.839844-19.976562-56.738281-11.207031-119.636719 23.523438-168.75 34.726562-49.113281 91.109374-78.34375 151.261718-78.421875zm0 0" fill="#e64c3c"/><path d="m353.105469 185.378906c0 82.882813-67.191407 150.070313-150.070313 150.070313-82.882812 0-150.070312-67.1875-150.070312-150.070313 0-82.878906 67.1875-150.066406 150.070312-150.066406 82.878906 0 150.070313 67.1875 150.070313 150.066406zm0 0" fill="#b0d3f0"/><g fill="#35495e"><path d="m110.34375 238.34375c-17.0625 0-30.894531-13.832031-30.894531-30.894531 0-4.875 3.953125-8.828125 8.828125-8.828125s8.828125 3.953125 8.828125 8.828125c0 7.3125 5.925781 13.242187 13.238281 13.242187s13.242188-5.929687 13.242188-13.242187v-66.207031c0-4.875 3.953124-8.828126 8.828124-8.828126s8.828126 3.953126 8.828126 8.828126v66.207031c0 17.0625-13.832032 30.894531-30.898438 30.894531zm0 0"/><path d="m158.898438 150.070312h-52.96875c-4.875 0-8.824219-3.953124-8.824219-8.828124s3.949219-8.828126 8.824219-8.828126h52.96875c4.875 0 8.824218 3.953126 8.824218 8.828126s-3.949218 8.828124-8.824218 8.828124zm0 0"/><path d="m203.035156 238.34375c-19.5 0-35.3125-15.808594-35.3125-35.308594v-35.308594c0-19.503906 15.8125-35.3125 35.3125-35.3125s35.308594 15.808594 35.308594 35.3125v35.308594c0 19.5-15.808594 35.308594-35.308594 35.308594zm0-88.273438c-9.75 0-17.65625 7.902344-17.65625 17.65625v35.308594c0 9.75 7.90625 17.65625 17.65625 17.65625s17.65625-7.90625 17.65625-17.65625v-35.308594c0-9.753906-7.90625-17.65625-17.65625-17.65625zm0 0"/><path d="m286.898438 238.34375h-22.070313c-9.75 0-17.65625-7.902344-17.65625-17.652344v-35.3125c0-4.875 3.953125-8.828125 8.828125-8.828125h30.898438c17.0625 0 30.894531 13.835938 30.894531 30.898438s-13.832031 30.894531-30.894531 30.894531zm-22.070313-44.136719v26.484375h22.070313c7.3125 0 13.238281-5.929687 13.238281-13.242187s-5.925781-13.242188-13.238281-13.242188zm0 0"/><path d="m286.898438 194.207031h-30.898438c-4.875 0-8.828125-3.953125-8.828125-8.828125v-35.308594c0-9.75 7.90625-17.65625 17.65625-17.65625h22.070313c17.0625 0 30.894531 13.832032 30.894531 30.898438 0 17.0625-13.832031 30.894531-30.894531 30.894531zm-22.070313-17.65625h22.070313c7.3125 0 13.238281-5.925781 13.238281-13.238281 0-7.316406-5.925781-13.242188-13.238281-13.242188h-22.070313zm0 0"/></g><path d="m123.585938 109.152344c-3.640626 0-6.90625-2.234375-8.226563-5.625s-.421875-7.246094 2.257813-9.707032c21.921874-20.308593 50.460937-31.988281 80.332031-32.875 4.875-.164062 8.960937 3.652344 9.128906 8.527344.164063 4.875-3.652344 8.964844-8.527344 9.128906-25.65625.769532-50.160156 10.804688-68.988281 28.246094-1.628906 1.496094-3.765625 2.320313-5.976562 2.304688zm0 0" fill="#ecf0f1"/><path d="m207.988281 313.035156c-4.875.09375-8.90625-3.78125-9-8.65625-.097656-4.875 3.777344-8.902344 8.65625-9 25.621094-1.050781 50.03125-11.199218 68.851563-28.617187 2.316406-2.144531 5.597656-2.886719 8.613281-1.957031 3.011719.933593 5.300781 3.40625 5.996094 6.480468.699219 3.078125-.296875 6.292969-2.609375 8.433594-21.914063 20.28125-50.332032 32.089844-80.164063 33.308594zm0 0" fill="#ecf0f1"/><path d="m244.390625 74.609375c0 4.878906-3.949219 8.828125-8.828125 8.828125-4.875 0-8.824219-3.949219-8.824219-8.828125 0-4.875 3.949219-8.824219 8.824219-8.824219 4.878906 0 8.828125 3.949219 8.828125 8.824219zm0 0" fill="#ecf0f1"/></svg>