<svg height="512pt" viewBox="-4 0 512 512.0601" width="512pt" xmlns="http://www.w3.org/2000/svg"><path d="m251.691406 512.058594c-4.792968 0-8.679687-3.882813-8.679687-8.675782v-173.558593c0-4.792969 3.886719-8.679688 8.679687-8.679688 4.792969 0 8.675782 3.886719 8.675782 8.679688v173.558593c0 4.792969-3.882813 8.675782-8.675782 8.675782zm0 0" fill="#d1d4d1"/><path d="m381.859375 308.128906c.019531 5.757813-2.261719 11.289063-6.332031 15.359375-4.074219 4.074219-9.601563 6.351563-15.363282 6.335938h-216.949218c-11.980469 0-21.691406-9.714844-21.691406-21.695313 0-11.984375 9.710937-21.695312 21.691406-21.695312h216.949218c11.984376 0 21.695313 9.710937 21.695313 21.695312zm0 0" fill="#35495e"/><path d="m43.417969 503.382812c-9.582031 0-17.355469-7.769531-17.355469-17.355468v-86.78125h34.714844v86.78125c0 9.585937-7.773438 17.355468-17.359375 17.355468zm0 0" fill="#d1d4d1"/><path d="m112.84375 503.382812c-9.585938 0-17.355469-7.769531-17.355469-17.355468v-86.78125h34.710938v86.78125c0 9.585937-7.769531 17.355468-17.355469 17.355468zm0 0" fill="#d1d4d1"/><path d="m104.164062 147.585938c0 23.964843-19.425781 43.390624-43.386718 43.390624-23.964844 0-43.390625-19.425781-43.390625-43.390624 0-23.964844 19.425781-43.390626 43.390625-43.390626 23.960937 0 43.386718 19.425782 43.386718 43.390626zm0 0" fill="#fdd7ad"/><path d="m216.980469 347.179688v137.890624c.171875 9.222657-6.644531 17.085938-15.796875 18.226563-4.84375.410156-9.640625-1.21875-13.234375-4.5-3.589844-3.277344-5.652344-7.90625-5.683594-12.769531v-104.136719c-.027344-9.574219-7.78125-17.328125-17.355469-17.355469h-95.457031c-19.171875 0-34.710937-15.542968-34.710937-34.710937v-111.339844c-.300782-14.019531 10.183593-25.933594 24.125-27.421875 7.214843-.53125 14.324218 1.964844 19.625 6.886719 5.300781 4.921875 8.3125 11.828125 8.316406 19.058593v86.78125c.03125 9.574219 7.785156 17.328126 17.355468 17.355469h21.695313c4.089844 5.472657 10.527344 8.691407 17.355469 8.679688h67.082031c4.3125 4.75 6.695313 10.9375 6.683594 17.355469zm0 0" fill="#e64c3c"/><path d="m147.554688 381.890625c-.027344 9.574219-7.78125 17.328125-17.355469 17.355469h-95.457031c-19.171876 0-34.710938-15.539063-34.710938-34.710938v-130.171875c.0273438-9.570312 7.78125-17.324219 17.355469-17.355469 4.605469-.023437 9.019531 1.824219 12.234375 5.121094 3.296875 3.214844 5.144531 7.632813 5.121094 12.234375v95.460938c0 19.167969 15.539062 34.710937 34.710937 34.710937h60.746094c9.574219.027344 17.328125 7.78125 17.355469 17.355469zm0 0" fill="#35495e"/><path d="m442.605469 399.246094h34.710937v86.78125c0 9.585937-7.769531 17.355468-17.355468 17.355468-9.585938 0-17.355469-7.769531-17.355469-17.355468zm0 0" fill="#d1d4d1"/><path d="m373.183594 399.246094h34.710937v86.78125c0 9.585937-7.769531 17.355468-17.355469 17.355468-9.585937 0-17.355468-7.769531-17.355468-17.355468zm0 0" fill="#d1d4d1"/><path d="m485.996094 147.585938c0 23.964843-19.425782 43.390624-43.390625 43.390624-23.960938 0-43.390625-19.425781-43.390625-43.390624 0-23.964844 19.429687-43.390626 43.390625-43.390626 23.964843 0 43.390625 19.425782 43.390625 43.390626zm0 0" fill="#fdd7ad"/><path d="m468.640625 218.484375v111.339844c0 19.167969-15.542969 34.710937-34.710937 34.710937h-95.457032c-9.574218.027344-17.328125 7.78125-17.359375 17.355469v104.136719c-.03125 4.863281-2.089843 9.492187-5.679687 12.769531-3.59375 3.28125-8.390625 4.910156-13.238282 4.5-9.148437-1.140625-15.964843-9.003906-15.792968-18.226563v-137.890624c-.015625-6.417969 2.371094-12.605469 6.683594-17.355469h67.078124c6.832032.011719 13.269532-3.207031 17.359376-8.679688h21.691406c9.574218-.027343 17.328125-7.78125 17.359375-17.355469v-86.78125c.003906-7.230468 3.015625-14.136718 8.316406-19.058593s12.410156-7.417969 19.625-6.886719c13.941406 1.488281 24.425781 13.402344 24.125 27.421875zm0 0" fill="#4fba6f"/><path d="m503.351562 234.363281v130.171875c0 19.171875-15.539062 34.710938-34.710937 34.710938h-95.457031c-9.585938 0-17.355469-7.769532-17.355469-17.355469s7.769531-17.355469 17.355469-17.355469h60.746094c19.167968 0 34.710937-15.542968 34.710937-34.710937v-95.460938c.070313-9.554687 7.800781-17.28125 17.355469-17.355469 9.574218.03125 17.328125 7.785157 17.355468 17.355469zm0 0" fill="#35495e"/><g fill="#4482c3"><path d="m259.761719 173.621094h-17.355469c-4.792969 0-8.679688-3.886719-8.679688-8.679688v-5.335937c.171876-24.792969 13.414063-47.652344 34.835938-60.128907 13.101562-7.613281 19.757812-22.84375 16.433594-37.628906-2.621094-13.117187-12.792969-23.417968-25.875-26.207031-9.101563-2.132813-18.675782-.515625-26.574219 4.484375-7.894531 4.996094-13.453125 12.960938-15.421875 22.09375-.746094 4.148438-4.316406 7.1875-8.527344 7.265625h-17.582031c-2.519531.023437-4.925781-1.050781-6.589844-2.941406-1.667969-1.890625-2.429687-4.410157-2.089843-6.910157 4.605468-32.132812 30.84375-56.796874 63.199218-59.40625 32.359375-2.609374 62.210938 17.535157 71.898438 48.515626 9.453125 30.886718-3.503906 64.222656-31.335938 80.621093-10.804687 6.234375-17.515625 17.707031-17.65625 30.179688v5.398437c0 4.792969-3.886718 8.679688-8.679687 8.679688zm0 0"/><path d="m268.441406 217.007812c0 9.585938-7.773437 17.355469-17.359375 17.355469-9.582031 0-17.355469-7.769531-17.355469-17.355469 0-9.582031 7.773438-17.355468 17.355469-17.355468 9.585938 0 17.359375 7.773437 17.359375 17.355468zm0 0"/></g></svg>