<svg height="512pt" viewBox="-52 0 512 512" width="512pt" xmlns="http://www.w3.org/2000/svg"><path d="m365.613281 69.421875c0 33.550781-27.199219 60.746094-60.746093 60.746094-33.550782 0-60.746094-27.195313-60.746094-60.746094 0-33.546875 27.195312-60.742187 60.746094-60.742187 33.546874 0 60.746093 27.195312 60.746093 60.742187zm0 0" fill="#fdd7ad"/><path d="m365.613281 329.761719v151.867187c-.082031 16.738282-13.632812 30.289063-30.375 30.371094-8.054687 0-15.78125-3.199219-21.476562-8.894531-5.695313-5.699219-8.894531-13.421875-8.894531-21.476563 0 8.054688-3.199219 15.777344-8.894532 21.476563-5.699218 5.695312-13.421875 8.894531-21.480468 8.894531-16.738282-.082031-30.289063-13.632812-30.371094-30.371094v-151.867187zm0 0" fill="#35495e"/><path d="m409.003906 269.015625v21.695313c0 11.984374-9.714844 21.695312-21.695312 21.695312-11.984375 0-21.695313-9.710938-21.695313-21.695312v-21.695313zm0 0" fill="#fdd7ad"/><path d="m244.121094 269.015625v21.695313c0 11.984374-9.714844 21.695312-21.695313 21.695312s-21.695312-9.710938-21.695312-21.695312v-21.695313zm0 0" fill="#fdd7ad"/><path d="m409.003906 199.59375v69.421875h-43.390625v60.746094h-121.492187v-60.746094h-43.390625v-69.421875c0-19.171875 15.542969-34.710938 34.710937-34.710938h138.847656c19.171876 0 34.714844 15.539063 34.714844 34.710938zm0 0" fill="#285680"/><path d="m296.1875 164.882812h17.355469c4.792969 0 8.679687 3.882813 8.679687 8.675782v17.355468c0 4.792969-3.886718 8.679688-8.679687 8.679688h-17.355469c-4.792969 0-8.675781-3.886719-8.675781-8.679688v-17.355468c0-4.792969 3.882812-8.675782 8.675781-8.675782zm0 0" fill="#e64c3c"/><path d="m296.1875 199.59375-16.0625 72.296875c-.777344 3.496094.675781 7.113281 3.65625 9.101563l16.269531 10.847656c2.914063 1.941406 6.710938 1.941406 9.625 0l16.269531-10.847656c2.980469-1.988282 4.433594-5.605469 3.652344-9.101563l-16.054687-72.296875zm0 0" fill="#c03a2b"/><path d="m149.800781 355.796875h-18.492187c-4.792969 0-8.679688 3.886719-8.679688 8.675781v130.171875c0 9.585938-7.769531 17.355469-17.355468 17.355469h-52.066407c-9.585937 0-17.355469-7.769531-17.355469-17.355469v-138.847656h-27.171874c-3.203126 0-6.144532-1.761719-7.652344-4.585937-1.511719-2.820313-1.34375-6.246094.433594-8.910157l70.558593-104.132812c1.609375-2.414063 4.320313-3.863281 7.21875-3.863281 2.902344 0 5.613281 1.449218 7.222657 3.863281l70.558593 104.132812c1.777344 2.664063 1.945313 6.089844.433594 8.910157-1.511719 2.824218-4.453125 4.585937-7.652344 4.585937zm0 0" fill="#e64c3c"/><path d="m149.792969 355.796875h-18.484375c-4.792969 0-8.679688 3.886719-8.679688 8.675781v130.171875c-.027344 9.574219-7.78125 17.328125-17.355468 17.355469h-26.035157v-277.695312c2.914063-.027344 5.636719 1.449218 7.203125 3.90625l70.554688 104.136718c1.789062 2.648438 1.960937 6.074219.453125 8.894532-1.511719 2.820312-4.457031 4.574218-7.65625 4.554687zm0 0" fill="#fb7b76"/><path d="m70.5625 435.632812c-4.792969 0-8.679688-3.882812-8.679688-8.675781v-43.390625c0-4.792968 3.886719-8.679687 8.679688-8.679687s8.675781 3.886719 8.675781 8.679687v43.390625c0 4.792969-3.882812 8.675781-8.675781 8.675781zm0 0" fill="#c03a2b"/><path d="m70.5625 479.023438c-4.792969 0-8.679688-3.886719-8.679688-8.675782v-8.679687c0-4.792969 3.886719-8.679688 8.679688-8.679688s8.675781 3.886719 8.675781 8.679688v8.679687c0 4.789063-3.882812 8.675782-8.675781 8.675782zm0 0" fill="#c03a2b"/><g fill="#24ae5f"><path d="m79.238281 112.8125c-28.753906 0-52.066406-23.308594-52.066406-52.066406 0-28.757813 23.3125-52.066406 52.066406-52.066406 28.757813 0 52.070313 23.308593 52.070313 52.066406 0 4.792968-3.886719 8.675781-8.679688 8.675781-4.792968 0-8.675781-3.882813-8.675781-8.675781 0-19.171875-15.542969-34.710938-34.714844-34.710938-19.167969 0-34.710937 15.539063-34.710937 34.710938s15.542968 34.710937 34.710937 34.710937c4.792969 0 8.679688 3.886719 8.679688 8.679688s-3.886719 8.675781-8.679688 8.675781zm0 0"/><path d="m79.238281 199.59375c-28.742187-.035156-52.03125-23.324219-52.066406-52.066406 0-4.792969 3.886719-8.679688 8.679687-8.679688 4.792969 0 8.675782 3.886719 8.675782 8.679688 0 19.167968 15.542968 34.710937 34.710937 34.710937 19.171875 0 34.714844-15.542969 34.714844-34.710937 0-19.171875-15.542969-34.714844-34.714844-34.714844-4.792969 0-8.675781-3.882812-8.675781-8.675781s3.882812-8.679688 8.675781-8.679688c28.757813 0 52.070313 23.3125 52.070313 52.070313 0 28.753906-23.3125 52.066406-52.070313 52.066406zm0 0"/><path d="m79.238281 208.269531c-4.792969 0-8.675781-3.882812-8.675781-8.675781v-190.914062c0-4.792969 3.882812-8.679688 8.675781-8.679688s8.679688 3.886719 8.679688 8.679688v190.914062c0 4.792969-3.886719 8.675781-8.679688 8.675781zm0 0"/></g><path d="m252.800781 269.015625c-4.792969 0-8.679687-3.882813-8.679687-8.675781v-52.070313c0-4.792969 3.886718-8.675781 8.679687-8.675781s8.675781 3.882812 8.675781 8.675781v52.070313c0 4.792968-3.882812 8.675781-8.675781 8.675781zm0 0" fill="#2c3e50"/><path d="m356.933594 269.015625c-4.792969 0-8.675782-3.882813-8.675782-8.675781v-52.070313c0-4.792969 3.882813-8.675781 8.675782-8.675781 4.792968 0 8.679687 3.882812 8.679687 8.675781v52.070313c0 4.792968-3.886719 8.675781-8.679687 8.675781zm0 0" fill="#2c3e50"/><path d="m304.867188 477.289062c-4.792969 0-8.679688-3.886718-8.679688-8.679687v-95.457031c0-4.792969 3.886719-8.679688 8.679688-8.679688 4.792968 0 8.675781 3.886719 8.675781 8.679688v95.457031c0 4.792969-3.882813 8.679687-8.675781 8.679687zm0 0" fill="#2c3e50"/></svg>