<svg height="512pt" viewBox="0 0 512.00006 512" width="512pt" xmlns="http://www.w3.org/2000/svg"><path d="m108.050781 397.242188h368.640625c19.5 0 35.308594-15.808594 35.308594-35.3125v-326.621094c0-19.5-15.808594-35.308594-35.308594-35.308594h-441.382812c-19.5 0-35.308594 15.808594-35.308594 35.308594v326.621094c-.0351562 18.757812 14.640625 34.246093 33.367188 35.222656zm0 0" fill="#95a5a5"/><path d="m476.691406 44.136719v61.792969h-441.382812v-61.792969c0-4.875 3.953125-8.828125 8.828125-8.828125h423.726562c4.875 0 8.828125 3.953125 8.828125 8.828125zm0 0" fill="#285680"/><path d="m476.691406 105.929688v211.863281c0 4.875-3.953125 8.828125-8.828125 8.828125h-423.726562c-4.875 0-8.828125-3.953125-8.828125-8.828125v-211.863281zm0 0" fill="#90bae1"/><path d="m476.691406 105.929688v83.15625c-216.101562-48.019532-360.433594 35.3125-441.382812 106.460937v-189.617187zm0 0" fill="#b0d3f0"/><path d="m194.207031 397.242188h123.585938v44.136718h-123.585938zm0 0" fill="#7f8c8d"/><path d="m185.378906 441.378906h141.242188c29.25 0 52.964844 23.714844 52.964844 52.964844 0 9.75-7.902344 17.65625-17.65625 17.65625h-211.859376c-9.753906 0-17.65625-7.90625-17.65625-17.65625 0-29.25 23.714844-52.964844 52.964844-52.964844zm0 0" fill="#95a5a5"/><path d="m467.863281 450.207031c24.375 0 44.136719 19.761719 44.136719 44.136719 0 9.75-7.90625 17.65625-17.65625 17.65625h-52.964844c-9.75 0-17.65625-7.90625-17.65625-17.65625 0-24.375 19.761719-44.136719 44.140625-44.136719zm0 0" fill="#95a5a5"/><path d="m467.863281 476.691406c-4.875 0-8.828125-3.953125-8.828125-8.828125v-17.65625c0-4.875 3.953125-8.828125 8.828125-8.828125s8.828125 3.953125 8.828125 8.828125v17.65625c0 4.875-3.953125 8.828125-8.828125 8.828125zm0 0" fill="#7f8c8d"/><path d="m273.65625 485.515625h-35.3125c-4.875 0-8.828125-3.949219-8.828125-8.824219 0-4.878906 3.953125-8.828125 8.828125-8.828125h35.3125c4.875 0 8.828125 3.949219 8.828125 8.828125 0 4.875-3.953125 8.824219-8.828125 8.824219zm0 0" fill="#7f8c8d"/><path d="m79.449219 70.621094c0 4.875-3.953125 8.828125-8.828125 8.828125s-8.828125-3.953125-8.828125-8.828125 3.953125-8.828125 8.828125-8.828125 8.828125 3.953125 8.828125 8.828125zm0 0" fill="#e64c3c"/><path d="m114.757812 70.621094c0 4.875-3.953124 8.828125-8.828124 8.828125s-8.828126-3.953125-8.828126-8.828125 3.953126-8.828125 8.828126-8.828125 8.828124 3.953125 8.828124 8.828125zm0 0" fill="#f0c419"/><path d="m150.070312 70.621094c0 4.875-3.953124 8.828125-8.828124 8.828125s-8.828126-3.953125-8.828126-8.828125 3.953126-8.828125 8.828126-8.828125 8.828124 3.953125 8.828124 8.828125zm0 0" fill="#4fba6f"/><path d="m79.449219 167.722656h105.929687c4.875 0 8.828125 3.953125 8.828125 8.828125v79.449219c0 4.875-3.953125 8.828125-8.828125 8.828125h-105.929687c-4.875 0-8.828125-3.953125-8.828125-8.828125v-79.449219c0-4.875 3.953125-8.828125 8.828125-8.828125zm0 0" fill="#2c3e50"/><path d="m423.722656 194.207031c0 29.25-23.710937 52.964844-52.964844 52.964844-29.25 0-52.964843-23.714844-52.964843-52.964844 0-29.253906 23.714843-52.964843 52.964843-52.964843 29.253907 0 52.964844 23.710937 52.964844 52.964843zm0 0" fill="#fdd7ad"/><path d="m291.308594 326.621094c10.1875-25.511719 41.800781-44.136719 79.449218-44.136719 20.964844-.375 41.503907 5.964844 58.605469 18.09375 9.238281 6.574219 16.453125 15.59375 20.84375 26.042969zm0 0" fill="#955ba5"/><path d="m194.207031 224.722656 42.796875 36.972656c7.527344 7.261719 19.003906 1.058594 19.003906-10.179687v-70.480469c0-11.238281-11.476562-17.441406-18.996093-10.175781l-42.804688 31.929687zm0 0" fill="#35495e"/></svg>