<svg height="512pt" viewBox="0 0 512.00396 512" width="512pt" xmlns="http://www.w3.org/2000/svg"><path d="m317.796875 61.796875c0 34.125-27.667969 61.792969-61.792969 61.792969-34.128906 0-61.796875-27.667969-61.796875-61.792969 0-34.128906 27.667969-61.79296875 61.796875-61.79296875 34.125 0 61.792969 27.66406275 61.792969 61.79296875zm0 0" fill="#fdd7ad"/><path d="m317.796875 326.621094v154.484375c-.082031 17.03125-13.867187 30.8125-30.898437 30.898437-8.195313 0-16.054688-3.257812-21.847657-9.050781s-9.046875-13.652344-9.046875-21.847656c0 8.195312-3.257812 16.054687-9.050781 21.847656s-13.652344 9.050781-21.847656 9.050781c-17.03125-.085937-30.816407-13.867187-30.898438-30.898437v-154.484375zm0 0" fill="#35495e"/><path d="m256.003906 489.933594c-4.878906 0-8.828125-3.953125-8.828125-8.828125v-83.863281c0-4.875 3.949219-8.828126 8.828125-8.828126 4.875 0 8.824219 3.953126 8.824219 8.828126v83.863281c0 4.875-3.949219 8.828125-8.824219 8.828125zm0 0" fill="#2c3e50"/><path d="m194.207031 264.828125v22.070313c0 12.1875-9.878906 22.070312-22.066406 22.070312s-22.070313-9.882812-22.070313-22.070312v-22.070313zm0 0" fill="#fdd7ad"/><path d="m361.933594 264.828125v22.070313c0 12.1875-9.882813 22.070312-22.070313 22.070312s-22.066406-9.882812-22.066406-22.070312v-22.070313zm0 0" fill="#fdd7ad"/><path d="m361.933594 194.207031v70.621094h-44.136719v61.792969h-123.589844v-61.792969h-44.136719v-70.621094c0-19.5 15.808594-35.308593 35.3125-35.308593h141.238282c19.503906 0 35.3125 15.808593 35.3125 35.308593zm0 0" fill="#285680"/><path d="m317.796875 264.828125c-4.878906 0-8.828125-3.949219-8.828125-8.824219v-61.796875c0-4.875 3.949219-8.824219 8.828125-8.824219 4.875 0 8.824219 3.949219 8.824219 8.824219v61.796875c0 4.875-3.949219 8.824219-8.824219 8.824219zm0 0" fill="#2c3e50"/><path d="m194.207031 264.828125c-4.875 0-8.824219-3.949219-8.824219-8.824219v-61.796875c0-4.875 3.949219-8.824219 8.824219-8.824219 4.878907 0 8.828125 3.949219 8.828125 8.824219v61.796875c0 4.875-3.949218 8.824219-8.828125 8.824219zm0 0" fill="#2c3e50"/><path d="m247.175781 158.898438h17.652344c4.875 0 8.828125 3.953124 8.828125 8.828124v17.65625c0 4.875-3.953125 8.824219-8.828125 8.824219h-17.652344c-4.875 0-8.828125-3.949219-8.828125-8.824219v-17.65625c0-4.875 3.953125-8.828124 8.828125-8.828124zm0 0" fill="#e64c3c"/><path d="m247.175781 194.207031-16.339843 73.542969c-.792969 3.558594.683593 7.238281 3.714843 9.261719l16.550781 11.035156c2.964844 1.972656 6.828126 1.972656 9.789063 0l16.554687-11.035156c3.03125-2.023438 4.507813-5.703125 3.714844-9.261719l-16.332031-73.542969zm0 0" fill="#c03a2b"/><path d="m97.105469 351.949219v18.8125c0 4.875 3.953125 8.828125 8.828125 8.828125h35.308594c9.75 0 17.65625 7.902344 17.65625 17.652344v52.964843c0 9.753907-7.90625 17.65625-17.65625 17.65625h-44.136719v27.640625c0 3.253906-1.792969 6.246094-4.664063 7.785156-2.871094 1.535157-6.355468 1.367188-9.0625-.441406l-79.449218-71.777344c-2.453126-1.636718-3.929688-4.394531-3.929688-7.34375 0-2.953124 1.476562-5.707031 3.929688-7.34375l79.449218-71.777343c2.707032-1.808594 6.191406-1.976563 9.0625-.441407 2.871094 1.535157 4.664063 4.527344 4.664063 7.785157zm0 0" fill="#e64c3c"/><path d="m414.898438 351.949219v18.8125c0 4.875-3.953126 8.828125-8.828126 8.828125h-35.308593c-9.75 0-17.65625 7.902344-17.65625 17.652344v52.964843c0 9.753907 7.90625 17.65625 17.65625 17.65625h44.136719v27.640625c0 3.253906 1.792968 6.246094 4.664062 7.785156 2.871094 1.535157 6.355469 1.367188 9.0625-.441406l79.449219-71.777344c2.453125-1.636718 3.929687-4.394531 3.929687-7.34375 0-2.953124-1.476562-5.707031-3.929687-7.34375l-79.449219-71.777343c-2.707031-1.808594-6.191406-1.976563-9.0625-.441407-2.871094 1.535157-4.664062 4.527344-4.664062 7.785157zm0 0" fill="#e64c3c"/><g fill="#fb7b76"><path d="m158.898438 397.242188v26.484374h-158.898438c-.0273438-2.964843 1.476562-5.734374 3.972656-7.328124l79.449219-71.765626c2.699219-1.824218 6.183594-2 9.050781-.464843 2.871094 1.539062 4.652344 4.535156 4.632813 7.789062v18.804688c0 4.875 3.953125 8.828125 8.828125 8.828125h35.308594c9.738281.027344 17.628906 7.914062 17.65625 17.652344zm0 0"/><path d="m512.003906 423.726562h-158.898437v-26.484374c.027343-9.738282 7.917969-17.625 17.65625-17.652344h35.308593c4.875 0 8.828126-3.953125 8.828126-8.828125v-18.804688c-.019532-3.253906 1.761718-6.25 4.632812-7.789062 2.867188-1.535157 6.351562-1.359375 9.050781.464843l79.449219 71.765626c2.5 1.59375 4 4.363281 3.972656 7.328124zm0 0"/></g></svg>