<svg height="512pt" viewBox="0 0 512.03615 512" width="512pt" xmlns="http://www.w3.org/2000/svg"><path d="m503.503906 256.027344c0 136.671875-110.796875 247.46875-247.46875 247.46875s-247.464844-110.796875-247.464844-247.46875 110.792969-247.464844 247.464844-247.464844 247.46875 110.792969 247.46875 247.464844zm0 0" fill="#285680"/><g fill="#2c3e50"><path d="m256.035156 512.027344c-2.917968 0-5.84375-.09375-8.667968-.273438-86.308594-4.769531-159.128907-81.210937-181.113282-190.207031-8.644531-43.246094-8.644531-87.78125 0-131.027344 21.984375-109.007812 94.796875-185.449219 181.207032-190.226562 5.738281-.3632815 11.496093-.3632815 17.238281 0 86.320312 4.777343 159.136719 81.21875 181.117187 190.21875 8.644532 43.246093 8.644532 87.777343 0 131.027343-21.980468 109.003907-94.804687 185.445313-181.203125 190.214844-2.730469.179688-5.660156.273438-8.578125.273438zm0-494.933594c-2.558594 0-5.117187.078125-7.558594.242188-77.371093 4.265624-145.390624 76.875-165.496093 176.554687-8.199219 41.023437-8.199219 83.261719 0 124.285156 20.105469 99.671875 88.125 172.273438 165.375 176.539063 5.054687.335937 10.125.335937 15.179687 0 77.382813-4.265625 145.410156-76.867188 165.546875-176.546875 8.203125-41.023438 8.203125-83.265625 0-124.289063-20.09375-99.667968-88.113281-172.269531-165.367187-176.542968-2.570313-.160157-5.128906-.242188-7.679688-.242188zm0 0"/><path d="m256.035156 512.027344c-36.914062 0-68.734375-43.929688-87.304687-120.523438-.796875-2.988281.089843-6.175781 2.3125-8.328125 2.21875-2.152343 5.433593-2.933593 8.394531-2.039062 2.964844.890625 5.210938 3.316406 5.875 6.339843 16.109375 66.304688 43.179688 107.484376 70.722656 107.484376 27.546875 0 54.613282-41.179688 70.726563-107.519532.664062-3.019531 2.910156-5.445312 5.871093-6.339844 2.960938-.890624 6.175782-.113281 8.398438 2.039063s3.105469 5.339844 2.308594 8.328125c-18.566406 76.628906-50.386719 120.558594-87.304688 120.558594zm0 0"/><path d="m335.046875 131.101562c-3.933594-.003906-7.359375-2.695312-8.285156-6.519531-16.113281-66.304687-43.179688-107.488281-70.726563-107.488281-27.542968 0-54.613281 41.183594-70.722656 107.523438-.664062 3.019531-2.910156 5.445312-5.875 6.339843-2.960938.890625-6.175781.109375-8.394531-2.042969-2.222657-2.152343-3.109375-5.335937-2.3125-8.328124 18.570312-76.628907 50.390625-120.5585942 87.304687-120.5585942 36.917969 0 68.738282 43.9296872 87.304688 120.5273442.617187 2.542968.035156 5.234374-1.585938 7.292968-1.621094 2.054688-4.097656 3.257813-6.714844 3.253906zm0 0"/><path d="m256.035156 512.027344c-2.917968 0-5.84375-.09375-8.667968-.273438-137.984376-4.585937-247.4492192-117.816406-247.367188-255.878906.0820312-138.058594 109.675781-251.160156 247.664062-255.589844 5.683594-.3554685 11.382813-.3554685 17.066407 0 137.933593 4.652344 247.320312 117.855469 247.246093 255.867188-.074218 138.011718-109.589843 251.09375-247.527343 255.59375-2.566407.1875-5.496094.28125-8.414063.28125zm0-494.933594c-2.558594 0-5.117187.078125-7.558594.242188-128.886718 4-231.320312 109.597656-231.394531 238.546874-.078125 128.949219 102.230469 234.667969 231.113281 238.824219 5.113282.34375 10.246094.34375 15.359376 0 128.886718-3.996093 231.320312-109.59375 231.402343-238.542969.082031-128.949218-102.222656-234.671874-231.105469-238.828124-2.695312-.164063-5.253906-.242188-7.816406-.242188zm0 0"/><path d="m120.28125 343.070312c-.703125 0-1.402344-.085937-2.085938-.257812-15.9375-3.90625-31.578124-8.9375-46.804687-15.0625-46.011719-18.746094-71.3554688-44.21875-71.3554688-71.722656 0-27.5 25.3437498-52.972656 71.3671878-71.730469 30.804687-11.953125 62.941406-20.160156 95.707031-24.4375 3.6875-.625 7.757813-1.136719 11.761719-1.640625 4.742187-.640625 9.128906 2.632812 9.863281 7.363281.351563 2.203125-.203125 4.449219-1.535156 6.234375s-3.332031 2.957032-5.539063 3.25c-4.4375.554688-8.253906 1.03125-11.945312 1.644532-31.457032 4.082031-62.308594 11.933593-91.890625 23.382812-38.585938 15.734375-60.722657 36.121094-60.722657 55.933594 0 19.816406 22.136719 40.203125 60.742188 55.929687 14.476562 5.8125 29.347656 10.59375 44.5 14.300781 4.179688 1.046876 6.921875 5.042969 6.394531 9.316407-.523437 4.277343-4.152343 7.488281-8.457031 7.496093zm0 0"/><path d="m391.792969 343.070312c.703125 0 1.402343-.085937 2.082031-.257812 15.9375-3.90625 31.578125-8.9375 46.804688-15.0625 46.011718-18.746094 71.355468-44.21875 71.355468-71.722656 0-27.5-25.34375-52.972656-71.363281-71.730469-30.808594-11.953125-62.941406-20.160156-95.710937-24.4375-3.683594-.625-7.753907-1.136719-11.757813-1.640625-4.746094-.640625-9.132813 2.632812-9.863281 7.363281-.351563 2.203125.203125 4.449219 1.535156 6.234375s3.328125 2.957032 5.539062 3.25c4.4375.554688 8.25 1.03125 11.945313 1.644532 31.457031 4.082031 62.304687 11.933593 91.886719 23.382812 38.589844 15.734375 60.722656 36.121094 60.722656 55.933594 0 19.816406-22.132812 40.203125-60.738281 55.929687-14.476563 5.8125-29.347657 10.59375-44.503907 14.300781-4.175781 1.046876-6.917968 5.042969-6.394531 9.316407.527344 4.277343 4.152344 7.488281 8.460938 7.496093zm0 0"/><path d="m503.503906 264.5625h-137.644531c-4.710937 0-8.53125-3.820312-8.53125-8.535156 0-4.710938 3.820313-8.53125 8.53125-8.53125h137.644531c4.710938 0 8.53125 3.820312 8.53125 8.53125 0 4.714844-3.820312 8.535156-8.53125 8.535156zm0 0"/><path d="m146.296875 264.5625h-137.726563c-4.714843 0-8.5351558-3.820312-8.5351558-8.535156 0-4.710938 3.8203128-8.53125 8.5351558-8.53125h137.726563c4.714844 0 8.535156 3.820312 8.535156 8.53125 0 4.714844-3.820312 8.535156-8.535156 8.535156zm0 0"/></g><path d="m358.4375 322.769531c0 44.191407-102.402344 44.191407-102.402344 44.191407s-102.398437 0-102.398437-44.191407c-.957031-15.113281 3.65625-30.046875 12.96875-41.984375 12.679687-12.050781 29.289062-19.113281 46.765625-19.882812 0 0 0 26.511718 42.664062 61.867187 42.667969-35.355469 42.667969-61.867187 42.667969-61.867187 17.476563.769531 34.082031 7.832031 46.761719 19.882812 9.3125 11.9375 13.925781 26.871094 12.972656 41.984375zm0 0" fill="#4fba6f"/><path d="m298.703125 260.902344s0 26.511718-42.667969 61.867187c-42.664062-35.355469-42.664062-61.867187-42.664062-61.867187s25.597656 17.671875 42.664062 17.671875 42.667969-17.671875 42.667969-17.671875zm0 0" fill="#e6e7e8"/><path d="m298.703125 260.902344s-25.601563 17.671875-42.667969 17.671875-42.664062-17.671875-42.664062-17.671875c6.890625-9.792969 12.375-20.507813 16.296875-31.820313h52.734375c3.921875 11.3125 9.410156 22.027344 16.300781 31.820313zm0 0" fill="#f09372"/><path d="m302.765625 168.988281c2.6875-2.386719 6.316406-3.410156 9.855469-2.78125 5.035156 1.511719 2.558594 15.230469 2.558594 15.230469-2.554688 7.140625-8.457032 12.566406-15.785157 14.507812h-86.65625c-7.335937-1.949218-13.246093-7.371093-15.828125-14.507812 0 0-2.476562-13.730469 2.601563-15.230469 3.523437-.628906 7.144531.394531 9.8125 2.78125zm0 0" fill="#f09372"/><path d="m302.636719 150.429688c-1.707031-29.457032-43.265625-30.933594-43.265625-30.933594h-6.65625s-41.597656 1.476562-43.261719 30.933594c-1.664063 29.457031 3.328125 32.425781 3.328125 42.71875 0 10.289062-3.328125 19.148437 9.984375 29.457031 13.3125 10.304687 13.3125 20.625 26.625 20.625h13.308594c13.3125 0 13.3125-10.308594 26.625-20.625 13.3125-10.320313 9.984375-19.152344 9.984375-29.457031 0-10.308594 4.992187-13.261719 3.328125-42.71875zm0 0" fill="#fdd7ad"/></svg>