<svg height="512pt" viewBox="0 -5 512.00346 512" width="512pt" xmlns="http://www.w3.org/2000/svg"><path d="m503.324219 130.234375c-4.234375-.003906-7.847657-3.066406-8.546875-7.246094l-15.941406-95.585937c-.210938-.675782-.835938-1.132813-1.539063-1.132813-.707031 0-1.332031.457031-1.542969 1.132813l-15.941406 95.585937c-.785156 4.730469-5.257812 7.921875-9.988281 7.132813-4.726563-.785156-7.921875-5.257813-7.132813-9.988282l15.941406-95.585937c1.527344-9.113281 9.417969-15.789063 18.660157-15.789063 9.238281 0 17.128906 6.675782 18.65625 15.789063l15.933593 95.578125c.421876 2.515625-.289062 5.089844-1.9375 7.039062-1.648437 1.945313-4.070312 3.070313-6.621093 3.070313zm0 0" fill="#955ba5"/><path d="m494.648438 78.167969h-34.710938c-4.792969 0-8.679688-3.886719-8.679688-8.679688s3.886719-8.675781 8.679688-8.675781h34.710938c4.792968 0 8.675781 3.882812 8.675781 8.675781s-3.882813 8.679688-8.675781 8.679688zm0 0" fill="#955ba5"/><path d="m477.292969 260.40625h-26.035157c-4.792968 0-8.679687-3.886719-8.679687-8.679688v-43.390624c0-9.585938 7.773437-17.355469 17.359375-17.355469h17.355469c19.167969 0 34.710937 15.542969 34.710937 34.710937 0 19.171875-15.542968 34.714844-34.710937 34.714844zm-17.355469-17.359375h17.355469c9.585937 0 17.355469-7.769531 17.355469-17.355469 0-9.582031-7.769532-17.355468-17.355469-17.355468h-17.355469zm0 0" fill="#955ba5"/><path d="m477.292969 312.472656h-17.355469c-9.585938 0-17.359375-7.769531-17.359375-17.355468v-43.390626c0-4.792968 3.886719-8.679687 8.679687-8.679687h26.035157c19.167969 0 34.710937 15.542969 34.710937 34.714844 0 19.167969-15.542968 34.710937-34.710937 34.710937zm-17.355469-52.066406v34.710938h17.355469c9.585937 0 17.355469-7.769532 17.355469-17.355469 0-9.585938-7.769532-17.355469-17.355469-17.355469zm0 0" fill="#955ba5"/><path d="m477.292969 494.710938c-19.171875 0-34.714844-15.542969-34.714844-34.714844v-52.066406c0-19.171876 15.542969-34.710938 34.714844-34.710938 19.167969 0 34.710937 15.539062 34.710937 34.710938 0 4.792968-3.886718 8.679687-8.679687 8.679687s-8.675781-3.886719-8.675781-8.679687c0-9.585938-7.769532-17.355469-17.355469-17.355469-9.585938 0-17.355469 7.769531-17.355469 17.355469v52.066406c0 9.585937 7.769531 17.359375 17.355469 17.359375 9.585937 0 17.355469-7.773438 17.355469-17.359375 0-4.789063 3.882812-8.675782 8.675781-8.675782s8.679687 3.886719 8.679687 8.675782c0 19.171875-15.542968 34.714844-34.710937 34.714844zm0 0" fill="#955ba5"/><path d="m190.917969 8.742188h182.238281c9.585938 0 17.355469 7.773437 17.355469 17.359374v8.675782c0 9.585937-7.769531 17.355468-17.355469 17.355468h-182.238281c-9.585938 0-17.355469-7.769531-17.355469-17.355468v-8.675782c0-9.585937 7.769531-17.359374 17.355469-17.359374zm0 0" fill="#90bae1"/><path d="m190.917969 190.980469h182.238281c9.585938 0 17.355469 7.769531 17.355469 17.355469v8.679687c0 9.585937-7.769531 17.355469-17.355469 17.355469h-182.238281c-9.585938 0-17.355469-7.769532-17.355469-17.355469v-8.679687c0-9.585938 7.769531-17.355469 17.355469-17.355469zm0 0" fill="#90bae1"/><path d="m190.917969 373.21875h182.238281c9.585938 0 17.355469 7.769531 17.355469 17.355469v8.679687c0 9.582032-7.769531 17.355469-17.355469 17.355469h-182.238281c-9.585938 0-17.355469-7.773437-17.355469-17.355469v-8.679687c0-9.585938 7.769531-17.355469 17.355469-17.355469zm0 0" fill="#90bae1"/><g fill="#285680"><path d="m260.34375 95.523438h-69.425781c-4.792969 0-8.675781-3.886719-8.675781-8.679688s3.882812-8.675781 8.675781-8.675781h69.425781c4.792969 0 8.675781 3.882812 8.675781 8.675781s-3.882812 8.679688-8.675781 8.679688zm0 0"/><path d="m260.34375 130.234375h-69.425781c-4.792969 0-8.675781-3.882813-8.675781-8.675781 0-4.792969 3.882812-8.679688 8.675781-8.679688h69.425781c4.792969 0 8.675781 3.886719 8.675781 8.679688 0 4.792968-3.882812 8.675781-8.675781 8.675781zm0 0"/><path d="m373.15625 95.523438h-69.425781c-4.789063 0-8.675781-3.886719-8.675781-8.679688s3.886718-8.675781 8.675781-8.675781h69.425781c4.792969 0 8.675781 3.882812 8.675781 8.675781s-3.882812 8.679688-8.675781 8.679688zm0 0"/><path d="m373.15625 130.234375h-69.425781c-4.789063 0-8.675781-3.882813-8.675781-8.675781 0-4.792969 3.886718-8.679688 8.675781-8.679688h69.425781c4.792969 0 8.675781 3.886719 8.675781 8.679688 0 4.792968-3.882812 8.675781-8.675781 8.675781zm0 0"/><path d="m260.34375 277.761719h-69.425781c-4.792969 0-8.675781-3.886719-8.675781-8.679688s3.882812-8.675781 8.675781-8.675781h69.425781c4.792969 0 8.675781 3.882812 8.675781 8.675781s-3.882812 8.679688-8.675781 8.679688zm0 0"/><path d="m260.34375 312.472656h-69.425781c-4.792969 0-8.675781-3.886718-8.675781-8.679687s3.882812-8.675781 8.675781-8.675781h69.425781c4.792969 0 8.675781 3.882812 8.675781 8.675781s-3.882812 8.679687-8.675781 8.679687zm0 0"/><path d="m373.15625 277.761719h-69.425781c-4.789063 0-8.675781-3.886719-8.675781-8.679688s3.886718-8.675781 8.675781-8.675781h69.425781c4.792969 0 8.675781 3.882812 8.675781 8.675781s-3.882812 8.679688-8.675781 8.679688zm0 0"/><path d="m260.34375 459.996094h-69.425781c-4.792969 0-8.675781-3.882813-8.675781-8.675782 0-4.792968 3.882812-8.679687 8.675781-8.679687h69.425781c4.792969 0 8.675781 3.886719 8.675781 8.679687 0 4.792969-3.882812 8.675782-8.675781 8.675782zm0 0"/><path d="m373.15625 494.710938h-69.425781c-4.789063 0-8.675781-3.886719-8.675781-8.679688s3.886718-8.675781 8.675781-8.675781h69.425781c4.792969 0 8.675781 3.882812 8.675781 8.675781s-3.882812 8.679688-8.675781 8.679688zm0 0"/></g><path d="m138.851562 69.488281c-.003906 34.972657-26.042968 64.472657-60.746093 68.816407-5.757813.8125-11.597657.8125-17.355469 0-36.929688-4.652344-63.621094-37.601563-60.503906-74.691407 3.117187-37.09375 34.933594-65.125 72.121094-63.5468748 37.191406 1.5742188 66.515624 32.1992188 66.484374 69.4218748zm0 0" fill="#b49aca"/><path d="m95.460938 52.132812c0 14.378907-11.65625 26.035157-26.035157 26.035157-14.375 0-26.03125-11.65625-26.03125-26.035157 0-14.378906 11.65625-26.03125 26.03125-26.03125 14.378907 0 26.035157 11.652344 26.035157 26.03125zm0 0" fill="#fdd7ad"/><path d="m124.011719 112.359375c-11.277344 14.367187-27.78125 23.695313-45.90625 25.945313-5.757813.8125-11.597657.8125-17.355469 0-18.128906-2.25-34.628906-11.578126-45.90625-25.945313 10.144531-20.910156 31.34375-34.191406 54.582031-34.191406 23.242188 0 44.441407 13.28125 54.585938 34.191406zm0 0" fill="#e64c3c"/><path d="m78.105469 112.878906v25.425782c-5.757813.8125-11.597657.8125-17.355469 0v-25.425782c0-4.792968 3.882812-8.675781 8.675781-8.675781s8.679688 3.882813 8.679688 8.675781zm0 0" fill="#802f34"/><path d="m138.851562 251.726562c-.003906 34.972657-26.042968 64.472657-60.746093 68.816407-5.757813.808593-11.597657.808593-17.355469 0-36.929688-4.652344-63.621094-37.601563-60.503906-74.695313 3.117187-37.089844 34.933594-65.121094 72.121094-63.546875 37.191406 1.578125 66.515624 32.203125 66.484374 69.425781zm0 0" fill="#b49aca"/><path d="m95.460938 234.371094c0 14.378906-11.65625 26.035156-26.035157 26.035156-14.375 0-26.03125-11.65625-26.03125-26.035156s11.65625-26.035156 26.03125-26.035156c14.378907 0 26.035157 11.65625 26.035157 26.035156zm0 0" fill="#fdd7ad"/><path d="m124.011719 294.597656c-11.277344 14.367188-27.78125 23.691406-45.90625 25.945313-5.757813.808593-11.597657.808593-17.355469 0-18.128906-2.253907-34.628906-11.578125-45.90625-25.945313 10.144531-20.914062 31.34375-34.191406 54.582031-34.191406 23.242188 0 44.441407 13.277344 54.585938 34.191406zm0 0" fill="#e64c3c"/><path d="m78.105469 295.117188v25.425781c-5.757813.808593-11.597657.808593-17.355469 0v-25.425781c0-4.792969 3.882812-8.679688 8.675781-8.679688s8.679688 3.886719 8.679688 8.679688zm0 0" fill="#802f34"/><path d="m138.851562 433.964844c-.003906 34.972656-26.042968 64.46875-60.746093 68.816406-5.757813.808594-11.597657.808594-17.355469 0-36.929688-4.652344-63.621094-37.605469-60.503906-74.695312 3.117187-37.089844 34.933594-65.125 72.121094-63.546876 37.191406 1.578126 66.515624 32.203126 66.484374 69.425782zm0 0" fill="#b49aca"/><path d="m95.460938 416.609375c0 14.375-11.65625 26.03125-26.035157 26.03125-14.375 0-26.03125-11.65625-26.03125-26.03125 0-14.378906 11.65625-26.035156 26.03125-26.035156 14.378907 0 26.035157 11.65625 26.035157 26.035156zm0 0" fill="#fdd7ad"/><path d="m124.011719 476.832031c-11.277344 14.367188-27.78125 23.695313-45.90625 25.949219-5.757813.808594-11.597657.808594-17.355469 0-18.128906-2.253906-34.628906-11.582031-45.90625-25.949219 10.144531-20.910156 31.34375-34.1875 54.582031-34.1875 23.242188 0 44.441407 13.277344 54.585938 34.1875zm0 0" fill="#e64c3c"/><path d="m78.105469 477.355469v25.425781c-5.757813.808594-11.597657.808594-17.355469 0v-25.425781c0-4.792969 3.882812-8.679688 8.675781-8.679688s8.679688 3.886719 8.679688 8.679688zm0 0" fill="#802f34"/></svg>