<svg height="512pt" viewBox="-8 0 511 512" width="512pt" xmlns="http://www.w3.org/2000/svg"><path d="m450.507812 326.621094v154.480468c-.082031 17.03125-13.867187 30.816407-30.894531 30.898438-17.066406 0-30.898437-13.832031-30.898437-30.898438 0 8.195313-3.253906 16.054688-9.050782 21.847657-5.792968 5.796875-13.652343 9.050781-21.84375 9.050781-17.03125-.082031-30.816406-13.867188-30.898437-30.898438v-154.480468zm0 0" fill="#35495e"/><path d="m494.644531 194.207031v70.621094h-44.136719v61.792969h-123.585937v-61.792969h-44.136719v-70.621094c0-19.5 15.808594-35.308593 35.308594-35.308593h141.242188c19.5 0 35.308593 15.808593 35.308593 35.308593zm0 0" fill="#285680"/><path d="m450.480469 61.792969c0 34.128906-27.664063 61.792969-61.792969 61.792969-34.125 0-61.792969-27.664063-61.792969-61.792969 0-34.128907 27.667969-61.792969 61.792969-61.792969 34.128906 0 61.792969 27.664062 61.792969 61.792969zm0 0" fill="#fdd7ad"/><path d="m388.714844 489.929688c-4.875 0-8.828125-3.949219-8.828125-8.828126v-101.515624c0-4.875 3.953125-8.828126 8.828125-8.828126s8.828125 3.953126 8.828125 8.828126v101.515624c0 4.878907-3.953125 8.828126-8.828125 8.828126zm0 0" fill="#2c3e50"/><path d="m494.644531 264.828125v22.070313c0 12.1875-9.878906 22.066406-22.066406 22.066406s-22.070313-9.878906-22.070313-22.066406v-22.070313zm0 0" fill="#fdd7ad"/><path d="m450.507812 264.828125c-4.597656.253906-8.542968-3.25-8.828124-7.847656v-54.925781c.53125-4.472657 4.324218-7.84375 8.828124-7.84375 4.503907 0 8.296876 3.371093 8.828126 7.84375v54.925781c-.285157 4.597656-4.226563 8.101562-8.828126 7.847656zm0 0" fill="#2c3e50"/><path d="m326.921875 264.828125v22.070313c0 12.1875-9.878906 22.066406-22.070313 22.066406-12.1875 0-22.066406-9.878906-22.066406-22.066406v-22.070313zm0 0" fill="#fdd7ad"/><path d="m326.921875 264.828125c-4.601563.253906-8.542969-3.25-8.828125-7.847656v-54.925781c.53125-4.472657 4.324219-7.84375 8.828125-7.84375s8.296875 3.371093 8.828125 7.84375v54.925781c-.285156 4.597656-4.226562 8.101562-8.828125 7.847656zm0 0" fill="#2c3e50"/><path d="m379.859375 158.898438h17.65625c4.875 0 8.828125 3.949218 8.828125 8.824218v17.65625c0 4.875-3.953125 8.828125-8.828125 8.828125h-17.65625c-4.875 0-8.824219-3.953125-8.824219-8.828125v-17.65625c0-4.875 3.949219-8.824218 8.824219-8.824218zm0 0" fill="#e64c3c"/><path d="m379.859375 194.207031-16.339844 73.542969c-.789062 3.558594.6875 7.234375 3.71875 9.257812l16.550781 11.035157c2.964844 1.976562 6.824219 1.976562 9.789063 0l16.550781-11.035157c3.035156-2.023437 4.511719-5.699218 3.71875-9.257812l-16.332031-73.542969zm0 0" fill="#c03a2b"/><path d="m266.25 395.800781c-1.550781 0-3.074219-.410156-4.414062-1.191406l-56.398438-32.679687c-2.875-1.5-4.691406-4.457032-4.734375-7.699219-.046875-3.246094 1.691406-6.25 4.523437-7.828125 2.832032-1.582032 6.300782-1.484375 9.039063.257812l56.398437 32.714844c3.449219 2 5.128907 6.066406 4.097657 9.921875-1.035157 3.851563-4.523438 6.535156-8.511719 6.539063zm0 0" fill="#802f34"/><path d="m179.367188 322.074219c-4.625.011719-8.472657-3.542969-8.824219-8.15625l-3.824219-50.855469c-.28125-4.808594 3.34375-8.957031 8.144531-9.320312 4.804688-.363282 9.011719 3.191406 9.457031 7.988281l3.859376 50.820312c.175781 2.335938-.582032 4.644531-2.109376 6.421875-1.523437 1.777344-3.695312 2.871094-6.03125 3.050782zm0 0" fill="#802f34"/><path d="m116.003906 413.183594c-3.644531 0-6.914062-2.238282-8.234375-5.636719-1.316406-3.398437-.410156-7.257813 2.285157-9.714844l49.964843-45.515625c3.765625-3.105468 9.335938-2.570312 12.441407 1.199219 3.105468 3.765625 2.570312 9.335937-1.195313 12.441406l-49.320313 44.921875c-1.625 1.480469-3.742187 2.304688-5.941406 2.304688zm0 0" fill="#802f34"/><g fill="#e64c3c"><path d="m216.699219 199.566406c8.640625 24.730469-4.402344 51.78125-29.132813 60.421875-24.730468 8.636719-51.78125-4.40625-60.417968-29.136719-8.640626-24.726562 4.402343-51.777343 29.132812-60.417968s51.78125 4.402344 60.417969 29.132812zm0 0"/><path d="m350.917969 402.554688c8.636719 24.730468-4.40625 51.78125-29.136719 60.417968-24.726562 8.640625-51.777344-4.402344-60.417969-29.132812-8.640625-24.730469 4.402344-51.78125 29.132813-60.417969 24.730468-8.640625 51.78125 4.402344 60.421875 29.132813zm0 0"/><path d="m123.441406 419.054688c11.519532 32.972656-5.871094 69.039062-38.84375 80.558593s-69.039062-5.871093-80.558594-38.84375c-11.519531-32.972656 5.871094-69.039062 38.84375-80.558593 32.972657-11.519532 69.042969 5.871093 80.558594 38.84375zm0 0"/><path d="m212.332031 330.882812c5.039063 14.421876-2.570312 30.203126-16.992187 35.242188-14.425782 5.039062-30.203125-2.570312-35.242188-16.996094-5.039062-14.421875 2.566406-30.203125 16.992188-35.242187 14.425781-5.039063 30.203125 2.570312 35.242187 16.996093zm0 0"/></g><path d="m37.554688 467.863281c-4.046876-.003906-7.570313-2.757812-8.554688-6.683593-8.554688-34.207032 11.582031-50.707032 23.417969-54.652344 4.617187-1.566406 9.632812.90625 11.199219 5.523437 1.566406 4.617188-.90625 9.628907-5.523438 11.195313-1.992188.726562-18.484375 7.59375-11.96875 33.652344.660156 2.636718.0625 5.429687-1.609375 7.574218-1.675781 2.140625-4.242187 3.390625-6.960937 3.390625zm0 0" fill="#fb7b76"/><path d="m159.375 229.515625c-4.875 0-8.828125-3.949219-8.828125-8.824219-.207031-7.085937 2.515625-13.945312 7.527344-18.957031s11.871093-7.734375 18.957031-7.527344c4.875-.023437 8.84375 3.90625 8.871094 8.785157.023437 4.875-3.910156 8.84375-8.785156 8.871093-2.417969-.253906-4.820313.589844-6.550782 2.300781-1.726562 1.710938-2.59375 4.105469-2.363281 6.527344 0 4.875-3.953125 8.824219-8.828125 8.824219zm0 0" fill="#fb7b76"/></svg>