<svg height="512pt" viewBox="0 -2 512.24328 512" width="512pt" xmlns="http://www.w3.org/2000/svg"><path d="m326.742188 110.867188v-11.238282c0-7.3125-5.929688-13.242187-13.242188-13.242187h-180.964844c-14.625 0-26.484375-11.855469-26.484375-26.480469 0-14.628906 11.859375-26.484375 26.484375-26.484375h180.964844c7.3125 0 13.242188-5.929687 13.242188-13.242187v-11.238282c.003906-3.472656 2.042968-6.621094 5.210937-8.046875 3.171875-1.421875 6.878906-.8515622 9.476563 1.453125l61.792968 50.960938c1.886719 1.675781 2.964844 4.078125 2.964844 6.601562 0 2.519532-1.078125 4.921875-2.964844 6.597656l-61.792968 50.960938c-2.597657 2.308594-6.308594 2.875-9.480469 1.453125-3.167969-1.425781-5.207031-4.578125-5.207031-8.054687zm0 0" fill="#955ba5"/><path d="m406.191406 59.90625h-300.140625c0-14.628906 11.859375-26.484375 26.484375-26.484375h180.964844c7.3125 0 13.242188-5.929687 13.242188-13.242187v-11.210938c.003906-3.464844 2.035156-6.605469 5.191406-8.03125 3.160156-1.429688 6.859375-.875 9.460937 1.410156l61.792969 50.9375c1.894531 1.679688 2.988281 4.085938 3.003906 6.621094zm0 0" fill="#894b9d"/><path d="m185.5 499.28125v-11.238281c0-7.3125 5.929688-13.242188 13.242188-13.242188h180.964843c14.625 0 26.484375-11.855469 26.484375-26.480469 0-14.628906-11.859375-26.484374-26.484375-26.484374h-180.964843c-7.3125 0-13.242188-5.929688-13.242188-13.242188v-11.238281c0-3.472657-2.042969-6.621094-5.210938-8.046875-3.171874-1.421875-6.878906-.851563-9.476562 1.453125l-61.792969 50.960937c-1.886719 1.675782-2.964843 4.078125-2.964843 6.601563 0 2.519531 1.078124 4.921875 2.964843 6.597656l61.792969 50.960937c2.597656 2.308594 6.308594 2.875 9.480469 1.449219 3.171875-1.421875 5.207031-4.574219 5.207031-8.050781zm0 0" fill="#955ba5"/><path d="m406.191406 448.320312h-300.140625c.019531-2.535156 1.109375-4.941406 3.003907-6.621093l61.792968-50.9375c2.601563-2.285157 6.304688-2.839844 9.460938-1.410157 3.15625 1.425782 5.1875 4.566407 5.191406 8.03125v11.210938c0 7.3125 5.929688 13.242188 13.242188 13.242188h180.964843c14.625 0 26.484375 11.855468 26.484375 26.484374zm0 0" fill="#894b9d"/><path d="m211.984375 324.730469c0 44.140625-105.933594 44.140625-105.933594 44.140625s-105.929687 0-105.929687-44.140625c-.964844-15.164063 3.828125-30.140625 13.417968-41.929688 13.289063-12.101562 30.417969-19.136719 48.375-19.863281 0 0 0 26.484375 44.136719 61.792969 44.140625-35.308594 44.140625-61.792969 44.140625-61.792969 17.957032.726562 35.085938 7.761719 48.375 19.863281 9.589844 11.789063 14.382813 26.765625 13.417969 41.929688zm0 0" fill="#e64c3c"/><path d="m150.191406 262.9375s0 26.484375-44.140625 61.792969c-44.136719-35.308594-44.136719-61.792969-44.136719-61.792969 14.285157 4.785156 29.113282 7.75 44.136719 8.828125 15.027344-1.078125 29.855469-4.042969 44.140625-8.828125zm0 0" fill="#e6e7e8"/><path d="m150.191406 262.9375c-14.285156 4.785156-29.113281 7.75-44.140625 8.828125-15.023437-1.078125-29.851562-4.042969-44.136719-8.828125 17.65625-26.480469 17.65625-35.308594 17.65625-35.308594h52.964844s0 8.828125 17.65625 35.308594zm0 0" fill="#f09372"/><path d="m154.390625 165.835938c2.746094-2.539063 6.519531-3.640626 10.199219-2.976563 5.207031 1.617187 2.648437 16.304687 2.648437 16.304687-2.574219 7.535157-8.675781 13.332032-16.332031 15.519532h-89.644531c-7.660157-2.195313-13.773438-7.984375-16.375-15.519532 0 0-2.558594-14.6875 2.691406-16.304687 3.664063-.664063 7.429687.4375 10.152344 2.976563zm0 0" fill="#f09372"/><path d="m154.261719 145.972656c-1.765625-31.523437-44.757813-33.101562-44.757813-33.101562h-6.886718s-43.03125 1.578125-44.753907 33.101562c-1.722656 31.523438 3.441407 34.683594 3.441407 45.71875s-3.441407 20.488282 10.320312 31.523438 13.769531 22.070312 27.542969 22.070312h13.769531c13.773438 0 13.773438-11.035156 27.542969-22.070312s10.328125-20.488282 10.328125-31.523438 5.171875-14.195312 3.453125-45.71875zm0 0" fill="#fdd7ad"/><path d="m512.121094 324.730469c0 44.140625-105.929688 44.140625-105.929688 44.140625s-105.933594 0-105.933594-44.140625c-.960937-15.164063 3.828126-30.140625 13.417969-41.929688 13.289063-12.101562 30.417969-19.136719 48.375-19.863281 0 0 0 26.484375 44.140625 61.792969 44.136719-35.308594 44.136719-61.792969 44.136719-61.792969 17.960937.726562 35.085937 7.761719 48.375 19.863281 9.589844 11.789063 14.382813 26.765625 13.417969 41.929688zm0 0" fill="#24ae5f"/><path d="m450.328125 262.9375s0 26.484375-44.136719 61.792969c-44.140625-35.308594-44.140625-61.792969-44.140625-61.792969 14.285157 4.785156 29.113281 7.75 44.140625 8.828125 15.023438-1.078125 29.851563-4.042969 44.136719-8.828125zm0 0" fill="#e6e7e8"/><path d="m450.328125 262.9375c-14.285156 4.785156-29.113281 7.75-44.136719 8.828125-15.027344-1.078125-29.855468-4.042969-44.140625-8.828125 17.65625-26.480469 17.65625-35.308594 17.65625-35.308594h52.964844s0 8.828125 17.65625 35.308594zm0 0" fill="#f09372"/><path d="m454.53125 165.835938c2.742188-2.539063 6.519531-3.640626 10.195312-2.976563 5.207032 1.617187 2.648438 16.304687 2.648438 16.304687-2.574219 7.535157-8.675781 13.332032-16.332031 15.519532h-89.644531c-7.660157-2.195313-13.769532-7.984375-16.375-15.519532 0 0-2.558594-14.6875 2.691406-16.304687 3.664062-.664063 7.429687.4375 10.152344 2.976563zm0 0" fill="#f09372"/><path d="m454.398438 145.972656c-1.765626-31.523437-44.757813-33.101562-44.757813-33.101562h-6.882813s-43.035156 1.578125-44.757812 33.101562c-1.71875 31.523438 3.445312 34.683594 3.445312 45.71875s-3.445312 20.488282 10.328126 31.523438c13.769531 11.035156 13.769531 22.070312 27.539062 22.070312h13.773438c13.769531 0 13.769531-11.035156 27.542968-22.070312 13.769532-11.035156 10.328125-20.488282 10.328125-31.523438s5.164063-14.195312 3.441407-45.71875zm0 0" fill="#fdd7ad"/></svg>