<svg height="512pt" viewBox="0 -8 512.02057 512" width="512pt" xmlns="http://www.w3.org/2000/svg"><path d="m273.699219.0234375h-194.300781c-9.699219 0-17.597657 7.8984375-17.699219 17.6992185v44.101563l194.300781 326.597656 88.300781 26.5 26.5-317.800781z" fill="#955ba5"/><path d="m273.699219.0234375v88.3007815c0 4.898437 4 8.796875 8.800781 8.796875h86.101562zm0 0" fill="#894b9d"/><path d="m309 158.921875v238.199219l-16.601562 53.101562c-.296876.101563-.699219.101563-1.097657.101563h-273.601562c-9.800781-.101563-17.699219-8-17.699219-17.703125v-353.097656c0-9.699219 7.898438-17.601563 17.699219-17.699219h194.199219zm0 0" fill="#b0d3f0"/><path d="m211.898438 61.824219v88.296875c0 4.902344 4 8.800781 8.800781 8.800781h88.300781" fill="#90bae1"/><path d="m150.101562 185.421875c-5.5 0-10.5-3.398437-12.402343-8.597656l-22.5-68.101563c-1.5-4.601562 1-9.601562 5.601562-11.199218 4.597657-1.5 9.597657 1 11.199219 5.597656l18.101562 54.902344 18.097657-54.902344c1.5-4.597656 6.5-7.097656 11.199219-5.597656 4.601562 1.5 7.101562 6.5 5.601562 11.199218l-22.398438 67.800782c-1.800781 5.300781-6.902343 8.898437-12.5 8.898437zm0 0" fill="#955ba5"/><path d="m70.601562 185.421875h-17.601562c-14.601562 0-26.5-11.898437-26.5-26.5v-35.300781c0-14.597656 11.898438-26.5 26.5-26.5h17.699219c14.601562 0 26.5 11.902344 26.5 26.5 0 4.902344-4 8.800781-8.800781 8.800781-4.898438 0-8.796876-4-8.796876-8.800781 0-4.898438-4-8.796875-8.800781-8.796875h-17.800781c-4.898438 0-8.800781 4-8.800781 8.796875v35.300781c0 4.902344 4 8.800781 8.800781 8.800781h17.699219c4.902343 0 8.800781-4 8.800781-8.800781s4-8.800781 8.800781-8.800781c4.898438 0 8.800781 4 8.800781 8.800781 0 14.601563-11.902343 26.5-26.5 26.5zm0 0" fill="#955ba5"/><g fill="#3d324c"><path d="m264.800781 264.824219h-123.601562c-4.898438 0-8.800781-4-8.800781-8.800781 0-4.800782 4-8.800782 8.800781-8.800782h123.601562c4.898438 0 8.800781 4 8.800781 8.800782 0 4.800781-3.902343 8.800781-8.800781 8.800781zm0 0"/><path d="m264.800781 335.523438h-123.601562c-4.898438 0-8.800781-4-8.800781-8.800782 0-4.800781 4-8.800781 8.800781-8.800781h123.601562c4.898438 0 8.800781 4 8.800781 8.800781 0 4.800782-3.902343 8.800782-8.800781 8.800782zm0 0"/><path d="m264.800781 406.121094h-123.601562c-4.898438 0-8.800781-4-8.800781-8.796875 0-4.902344 4-8.800781 8.800781-8.800781h123.601562c4.898438 0 8.800781 4 8.800781 8.800781.097657 4.796875-3.902343 8.796875-8.800781 8.796875zm0 0"/><path d="m264.800781 229.523438h-61.800781c-4.898438 0-8.800781-4-8.800781-8.800782 0-4.800781 4-8.800781 8.800781-8.800781h61.800781c4.898438 0 8.800781 4 8.800781 8.800781 0 4.800782-3.902343 8.800782-8.800781 8.800782zm0 0"/><path d="m264.800781 300.222656h-61.800781c-4.898438 0-8.800781-4-8.800781-8.800781s4-8.800781 8.800781-8.800781h61.800781c4.898438 0 8.800781 4 8.800781 8.800781s-3.902343 8.800781-8.800781 8.800781zm0 0"/><path d="m264.800781 370.824219h-61.800781c-4.898438 0-8.800781-4-8.800781-8.800781 0-4.800782 4-8.800782 8.800781-8.800782h61.800781c4.898438 0 8.800781 4 8.800781 8.800782 0 4.800781-3.902343 8.800781-8.800781 8.800781zm0 0"/><path d="m105.898438 406.121094h-61.796876c-4.902343 0-8.800781-4-8.800781-8.796875 0-4.902344 4-8.800781 8.800781-8.800781h61.796876c4.902343 0 8.800781 4 8.800781 8.800781.101562 4.796875-3.898438 8.796875-8.800781 8.796875zm0 0"/></g><path d="m105.898438 264.824219c0 14.632812-11.863282 26.5-26.5 26.5-14.632813 0-26.5-11.867188-26.5-26.5 0-14.636719 11.867187-26.5 26.5-26.5 14.636718 0 26.5 11.863281 26.5 26.5zm0 0" fill="#fdd7ad"/><path d="m105.898438 361.921875h-52.898438c-4.898438 0-8.800781-4-8.800781-8.800781v-26.5c0-19.5 15.800781-35.296875 35.300781-35.296875s35.300781 15.796875 35.300781 35.296875v26.5c0 4.902344-4 8.800781-8.902343 8.800781zm0 0" fill="#285680"/><path d="m167.699219 300.222656h-26.5c-4.898438 0-8.800781-4-8.800781-8.800781s4-8.800781 8.800781-8.800781h26.5c4.902343 0 8.800781 4 8.800781 8.800781s-3.898438 8.800781-8.800781 8.800781zm0 0" fill="#3d324c"/><path d="m167.699219 229.523438h-26.5c-4.898438 0-8.800781-4-8.800781-8.800782 0-4.800781 4-8.800781 8.800781-8.800781h26.5c4.902343 0 8.800781 4 8.800781 8.800781 0 4.800782-3.898438 8.800782-8.800781 8.800782zm0 0" fill="#3d324c"/><path d="m167.699219 370.824219h-26.5c-4.898438 0-8.800781-4-8.800781-8.800781 0-4.800782 4-8.800782 8.800781-8.800782h26.5c4.902343 0 8.800781 4 8.800781 8.800782 0 4.800781-3.898438 8.800781-8.800781 8.800781zm0 0" fill="#3d324c"/><path d="m407 55.023438h-1.300781c-.597657 0-1-.402344-1-1 0-.601563.402343-1 1-1h1.300781c.601562 0 1 .398437 1 1 0 .597656-.398438 1-1 1zm0 0"/><path d="m320.5 374.222656c-7.601562 19.101563-19.101562 36.398438-33.699219 50.800782-1.800781 1.699218-2.402343 4.398437-1.5 6.800781l19.398438 50.597656c.902343 2.5 2.902343 4.402344 5.402343 5.199219 2.5.800781 5.199219.601562 7.5-.796875l46.296876-28.203125c2.101562-1.296875 3.300781-3.796875 3-6.296875-2.796876-20.402344-1.296876-41.101563 4.300781-60.800781zm0 0" fill="#e6e7e8"/><path d="m310 496.921875c-1 0-1.898438-.199219-2.800781-.5-2.199219-.800781-4-2.398437-5.097657-4.5-1-2.097656-1.203124-4.5-.402343-6.699219l17.101562-50.101562c1.597657-4.597656 6.597657-7.097656 11.199219-5.5 4.601562 1.601562 7.101562 6.601562 5.5 11.203125l-17.101562 50.097656c-1.199219 3.601563-4.597657 6-8.398438 6zm0 0" fill="#a5a5a4"/><path d="m421.5 301.023438c-7.5 17-15.101562 33.898437-22.800781 50.5-28 5.898437-57-3.902344-75.699219-25.699219 4-18 8.199219-35.902344 12.800781-53.902344 25.597657 16.902344 55.097657 27 85.699219 29.101563zm0 0" fill="#285680"/><path d="m398.699219 351.523438c-1.199219 2.898437-2.597657 5.597656-3.898438 8.398437s-2.601562 5.601563-4 8.402344c-6.601562 13.296875-23.699219 29.898437-35.800781 30.097656-9.5.101563-18.800781-3-26.199219-8.898437-9.402343-7.5-12.800781-31.101563-9.902343-45.601563 1.203124-6 2.601562-12 4.101562-18 18.699219 21.699219 47.699219 31.5 75.699219 25.601563zm0 0" fill="#d1d4d1"/><path d="m510.398438 70.722656c-3 8.800782-6 17.699219-9.199219 26.601563-23.597657-27.5-58-43.300781-94.199219-43.300781l14.699219-39.5c8.5-8.199219 19.5-13.199219 31.199219-14.5000005 15.101562-.3007815 29.902343 4.6992185 41.703124 14.1992185 14.898438 12.101563 20.5 42.5 15.796876 56.5zm0 0" fill="#285680"/><path d="m501.199219 97.324219c-23.699219 68.398437-50.597657 137.398437-79.699219 203.699219v.097656c-30.601562-2.199219-60.101562-12.199219-85.601562-29.097656v-.101563c7.601562-30.898437 15.902343-62.097656 24.800781-93l46.300781-124.898437c36.300781 0 70.601562 15.800781 94.199219 43.300781zm0 0" fill="#4482c3"/><path d="m359.398438 178.621094c-9.199219-3.097656-14.199219-13.199219-11-22.398438l45.5-133.699218c3.101562-9.199219 13.203124-14.199219 22.402343-11 9.199219 3.097656 14.199219 13.199218 11 22.398437l-45.5 133.699219c-3.101562 9.203125-13.101562 14.101562-22.402343 11zm0 0" fill="#2c3e50"/></svg>