<svg height="512pt" viewBox="0 0 512 512.025" width="512pt" xmlns="http://www.w3.org/2000/svg"><path d="m123.316406 80.925781-68.300781-24c-1.800781-.601562-2.898437-2.300781-2.898437-4.199219 0-1.902343 1.199218-3.5 2.898437-4.203124l136.898437-48.296876c1-.3007808 2-.3007808 2.902344 0l136.800782 48.296876c1.796874.601562 2.898437 2.300781 2.898437 4.203124 0 1.898438-1.199219 3.5-2.898437 4.199219l-68.300782 24.097657h-140zm0 0" fill="#35495e"/><path d="m272.414062 345.625c-3.398437 14.101562-14.699218 43-52.097656 79.398438-7.800781 7.601562-16.800781 15.5-27 23.703124-10.199218-8.203124-19.199218-16.203124-27-23.703124-53.601562-52.296876-53.601562-89-53.601562-89 21.101562 6.902343 42.800781 11.902343 64.800781 15h31.601563c2.597656-.296876 5.296874-.597657 7.898437-1.097657 2.101563-.300781 4.101563-.601562 6.199219-1.101562 3-.5 5.902344-1.097657 8.699218-1.699219 1.902344-.398438 3.703126-.800781 5.601563-1.199219 2.300781-.402343 4.601563-1.101562 6.898437-1.601562 1-.300781 1.902344-.5 2.902344-.699219 1.898438-.5 3.800782-1 5.597656-1.5 2.601563-.601562 5.101563-1.300781 7.402344-2 1.5-.398438 2.898438-.800781 4.199219-1.199219.398437-.101562.699219-.199219 1-.300781zm0 0" fill="#e6e7e8"/><path d="m265.515625 338.726562c-.300781.097657-.601563.199219-1 .296876-1.300781.402343-2.699219.800781-4.199219 1.203124-2.300781.597657-4.800781 1.296876-7.402344 2-1.796874.5-3.597656 1-5.597656 1.5-1 .199219-1.902344.398438-2.902344.699219-2.296874.5-4.597656 1.097657-6.898437 1.597657-1.898437.402343-3.699219.902343-5.601563 1.203124-2.796874.597657-5.699218 1.097657-8.699218 1.699219-2 .398438-4.097656.800781-6.199219 1.097657-2.601563.402343-5.300781.800781-7.898437 1.101562h-31.601563c-22-3.101562-43.699219-8.101562-64.800781-15 18.101562-5.699219 30.800781-21.898438 32.101562-40.898438l81.5 4.296876 11.097656.601562 28 38.398438zm0 0" fill="#f09372"/><path d="m106.617188 171.726562c-4.703126-4.800781-11.601563-6.902343-18.203126-5.703124-9.398437 3.101562-4.796874 31.203124-4.796874 31.203124 4.398437 14 15.398437 25.097657 29.398437 29.699219h160.699219c14-4.601562 24.902344-15.601562 29.300781-29.699219 0 0 4.699219-28.101562-4.699219-31.203124-6.699218-1.199219-13.5.902343-18.300781 5.703124zm0 0" fill="#f09372"/><path d="m280.015625 171.726562c-1.5 26.597657-6.398437 34-6.398437 49.398438 0 1.898438.097656 3.800781.097656 5.601562.699218 16.199219 3.101562 30.898438-10.699219 47l-29.699219 32.796876c-1.699218 2.5-3.601562 4.902343-5.601562 7.203124-5.300782 6.597657-13.5 10.296876-22 9.898438h-24.699219c-19.199219 0-23.5-12.800781-36.101563-28.300781v-.097657c-4-5-8.398437-9.601562-13.199218-13.800781-24.699219-21.101562-18.5-39.199219-18.5-60.300781s-9.300782-27.199219-6.199219-87.5c.300781-9 2.800781-17.800781 7.101563-25.699219h158.699218c4.300782 7.898438 6.699219 16.699219 7.097656 25.699219.601563 12.699219.703126 25.398438.101563 38.101562zm0 0" fill="#fdd7ad"/><path d="m354.117188 365.824219c-.203126 0-.5-.097657-.601563-.199219l-.5-.398438c-.398437-.402343-.5-1-.101563-1.402343.402344-.398438 1-.5 1.402344-.097657l.5.398438c.398438.398438.5 1 .097656 1.398438-.199218.203124-.5.300781-.796874.300781zm0 0"/><path d="m386.015625 455.425781c-12.300781 56.597657-192.699219 56.597657-192.699219 56.597657s-194.199218 0-193.300781-63.199219c.398437-26.699219 5.398437-56.097657 24.5-76.5 20.699219-22 58.800781-34.800781 88.300781-36.199219 0 0 0 36.699219 53.597656 89 7.800782 7.601562 16.800782 15.5 27 23.699219 10.203126-8.199219 19.203126-16.199219 27-23.699219 37.402344-36.5 48.703126-65.300781 52.101563-79.398438l1.398437 1.296876 112.101563 108.402343c-.101563-.101562 0-.101562 0 0zm0 0" fill="#285680"/><path d="m209.117188 351.125v20.699219c0 5.800781-3.402344 11.101562-8.703126 13.601562-2 1.097657-4.296874 1.597657-6.5 1.597657h-1.199218c-2.300782 0-4.5-.5-6.5-1.597657-5.300782-2.5-8.699219-7.800781-8.699219-13.601562v-20.699219c0-1 .398437-1.898438 1.101563-2.601562.699218-.699219 1.699218-1.097657 2.699218-1.097657h24c1 0 2 .398438 2.699219 1.097657.699219.703124 1.101563 1.601562 1.101563 2.601562zm0 0" fill="#e64c3c"/><path d="m220.316406 425.023438c-7.800781 7.601562-16.800781 15.5-27 23.703124-10.199218-8.203124-19.199218-16.203124-27-23.703124l19.097656-38.097657.800782-1.601562c2 1.101562 4.300781 1.601562 6.5 1.601562h1.199218c2.300782 0 4.5-.5 6.5-1.601562l.800782 1.601562zm0 0" fill="#c03a2b"/><path d="m272.816406 107.125c0-20.898438-15.699218-38.5-36.601562-40.800781-28.5-3.199219-57.300782-3.199219-85.800782 0-20.796874 2.300781-36.597656 19.902343-36.597656 40.800781 0 4.300781 3 8 7.199219 9l58.898437 13.101562c8.800782 2 18 2 26.800782 0l58.902344-13.101562c4.199218-1 7.199218-4.699219 7.199218-9zm0 0" fill="#2c3e50"/><path d="m58.414062 133.726562c-3.597656 0-7.097656-.902343-10.296874-2.5-2.902344-1.402343-4.800782-4.203124-5.101563-7.402343-.199219-3.199219 1.300781-6.300781 4-8 2.699219-1.800781 6.101563-1.898438 8.898437-.398438 1.300782.699219 2.800782.800781 4.203126.300781 3.699218-2 6.597656-5.300781 7.898437-9.300781 1.898437-6.800781 2.5-13.800781 1.800781-20.800781-.101562-2.601562-.199218-5.199219-.199218-7.699219v-12.800781c0-4.898438 4-8.800781 8.796874-8.800781 4.902344 0 8.800782 4 8.800782 8.800781v12.699219c0 2.300781.101562 4.699219.199218 7.101562.902344 9.398438-.097656 18.898438-3 27.898438-3.097656 8.699219-9.597656 15.699219-18 19.402343-2.398437 1-5.199218 1.5-8 1.5zm0 0" fill="#2c3e50"/><path d="m488.515625 421.226562-15.601563 15.597657c-17.597656 17.601562-42.597656 25.601562-67.199218 21.601562-6.5-1.101562-13.097656-2.101562-19.699219-3 0 0 0-.101562-.101563-.101562-18.296874-2.800781-36.796874-4.300781-55.296874-4.5h-29.300782c-11.902344.300781-22.101562-8.597657-23.402344-20.5-.5-6.398438 1.902344-12.699219 6.402344-17.199219 4.097656-4.199219 9.699219-6.5 15.5-6.398438h12.398438c3.601562 0 6.800781-2.101562 8.199218-5.402343 1.402344-3.300781.601563-7.097657-1.898437-9.699219l-44.699219-44.699219-1.402344-1.300781-6.898437-6.898438-.101563-.203124-39.097656-39-3.699218-3.699219c-8.703126-8.199219-9.601563-21.699219-2.101563-31.097657 4-4.703124 9.800781-7.402343 15.898437-7.703124 6.101563-.199219 12.101563 2.101562 16.402344 6.5l62.398438 62.402343c-6.300782-6.300781-8.199219-15.800781-4.800782-24.101562 3.402344-8.300781 11.5-13.597657 20.402344-13.597657 5.898438 0 11.5 2.296876 15.597656 6.398438l6.300782 6.300781c-4.199219-4.101562-6.5-9.800781-6.5-15.601562 0-5.898438 2.300781-11.5 6.5-15.597657 8.601562-8.601562 22.5-8.601562 31.199218 0l6.300782 6.296876c-6.300782-6.296876-8.199219-15.796876-4.800782-24.097657 3.402344-8.300781 11.5-13.601562 20.402344-13.601562 5.898438 0 11.5 2.402343 15.597656 6.5l67.101563 67.101562c30.101563 30.199219 30.101563 79.097657 0 109.300781zm0 0" fill="#fdd7ad"/><g fill="#f09372"><path d="m233.316406 306.523438c-1.699218 2.5-3.601562 4.902343-5.601562 7.203124l-14.597656-14.5-3.703126-3.703124c-8.699218-8.199219-9.597656-21.699219-2.097656-31.097657 4.199219-4.902343 10.300782-7.699219 16.800782-7.699219 2.398437 0 4.796874.398438 7.097656 1.199219-4.097656 1.199219-7.800782 3.597657-10.597656 6.800781-7.5 9.296876-6.601563 22.898438 2.097656 31.097657l3.699218 3.699219zm0 0"/><path d="m443.214844 425.324219c-3.597656 0-6.800782-2.199219-8.199219-5.398438-1.398437-3.300781-.601563-7.101562 1.898437-9.601562l25-25c3.5-3.300781 9-3.300781 12.402344.101562 3.398438 3.398438 3.5 8.898438.097656 12.398438l-25 25c-1.597656 1.601562-3.796874 2.5-6.199218 2.5zm0 0"/></g></svg>