<svg height="511.45127pt" viewBox="0 0 511.45127 511.45127" width="511.45127pt" xmlns="http://www.w3.org/2000/svg"><path d="m118.113281 352.554688c21.273438-30.808594 71.945313-103.902344 81.476563-113.433594l32.046875-32.046875-52.964844-25.246094c-13.066406 4.589844-37.164063 11.300781-45.726563 2.738281-5.121093-5.121094-4.855468-15.539062-2.914062-25.867187l-125.085938-59.585938c-2.625-1.25-4.445312-3.730469-4.851562-6.605469-.410156-2.875.648438-5.761718 2.820312-7.695312 49.609376-43.253906 84.566407-24.539062 84.566407-24.539062l96.75 24.539062 28.867187-28.953125c9.300782-9.257813 24.332032-9.257813 33.632813 0l14.832031 14.917969c4.488281 4.445312 7.015625 10.5 7.015625 16.816406 0 6.320312-2.527344 12.375-7.015625 16.816406l58.085938 14.65625 73.886718-73.886718c57.644532-57.644532 99.925782-45.640626 109.636719-40.609376 1.5625.859376 2.851563 2.144532 3.707031 3.707032 5.03125 9.710937 17.039063 51.996094-40.605468 109.640625l-73.886719 73.886719 14.652343 58.085937c4.445313-4.492187 10.5-7.019531 16.816407-7.019531 6.320312 0 12.375 2.527344 16.816406 7.019531l14.917969 14.828125c9.261718 9.300781 9.261718 24.335938 0 33.632812l-28.953125 28.867188 24.542969 96.75s18.710937 34.957031-24.542969 84.570312c-1.929688 2.167969-4.820313 3.226563-7.695313 2.820313-2.875-.410156-5.355468-2.230469-6.605468-4.851563l-59.585938-125.085937c-10.328125 1.941406-20.746094 2.207031-25.863281-2.914063-8.5625-8.5625-1.855469-32.660156 2.734375-45.726562l-25.246094-52.964844-32.042969 32.042969c-5.210937 5.207031-29.132812 22.511719-54.910156 40.695313zm0 0" fill="#95a5a5"/><path d="m466.273438 117.917969-73.886719 73.886719 14.652343 58.085937c4.445313-4.492187 10.5-7.019531 16.816407-7.019531 6.320312 0 12.375 2.527344 16.816406 7.019531l14.917969 14.828125c9.261718 9.300781 9.261718 24.335938 0 33.632812l-28.953125 28.867188 24.542969 96.75s18.710937 34.957031-24.542969 84.570312c-1.929688 2.167969-4.820313 3.226563-7.695313 2.820313-2.875-.410156-5.355468-2.230469-6.605468-4.851563l-59.585938-125.085937c-10.328125 1.941406-20.746094 2.207031-25.863281-2.914063-8.5625-8.5625-1.855469-32.660156 2.734375-45.726562l-25.246094-52.964844-32.042969 32.042969c-5.210937 5.207031-29.132812 22.511719-54.910156 40.695313h-58.523437l346.394531-346.394532c.625.628906 1.160156 1.339844 1.585937 2.117188 5.03125 9.710937 17.039063 51.996094-40.605468 109.640625zm0 0" fill="#7f8c8d"/><path d="m52.964844 352.554688h185.378906c29.253906 0 52.964844 23.714843 52.964844 52.964843v52.964844c0 29.253906-23.710938 52.96875-52.964844 52.96875h-185.378906c-29.25 0-52.964844-23.714844-52.964844-52.96875v-52.964844c0-29.25 23.714844-52.964843 52.964844-52.964843zm0 0" fill="#894b9d"/><path d="m291.308594 405.519531v52.964844c0 29.253906-23.710938 52.96875-52.964844 52.96875h-97.101562v-158.898437h97.101562c29.253906 0 52.964844 23.714843 52.964844 52.964843zm0 0" fill="#955ba5"/><g fill="#3d324c"><path d="m57.378906 484.96875c-17.0625 0-30.894531-13.832031-30.894531-30.898438 0-4.875 3.949219-8.824218 8.824219-8.824218 4.878906 0 8.828125 3.949218 8.828125 8.824218 0 7.316407 5.929687 13.242188 13.242187 13.242188s13.242188-5.925781 13.242188-13.242188v-66.207031c0-4.875 3.953125-8.824219 8.828125-8.824219s8.828125 3.949219 8.828125 8.824219v66.207031c0 17.066407-13.835938 30.898438-30.898438 30.898438zm0 0"/><path d="m105.929688 396.691406h-52.964844c-4.875 0-8.828125-3.949218-8.828125-8.828125 0-4.875 3.953125-8.824219 8.828125-8.824219h52.964844c4.875 0 8.828124 3.949219 8.828124 8.824219 0 4.878907-3.953124 8.828125-8.828124 8.828125zm0 0"/><path d="m150.070312 484.96875c-19.503906 0-35.3125-15.808594-35.3125-35.3125v-35.308594c0-19.5 15.808594-35.308594 35.3125-35.308594 19.5 0 35.308594 15.808594 35.308594 35.308594v35.308594c0 19.503906-15.808594 35.3125-35.308594 35.3125zm0-88.277344c-9.753906 0-17.65625 7.90625-17.65625 17.65625v35.308594c0 9.753906 7.902344 17.65625 17.65625 17.65625 9.75 0 17.652344-7.902344 17.652344-17.65625v-35.308594c0-9.75-7.902344-17.65625-17.652344-17.65625zm0 0"/><path d="m233.929688 484.96875h-22.066407c-9.75 0-17.65625-7.90625-17.65625-17.65625v-35.308594c0-4.875 3.953125-8.828125 8.828125-8.828125h30.894532c17.066406 0 30.898437 13.832031 30.898437 30.894531 0 17.066407-13.832031 30.898438-30.898437 30.898438zm-22.066407-44.136719v26.480469h22.066407c7.3125 0 13.242187-5.925781 13.242187-13.242188 0-7.3125-5.929687-13.238281-13.242187-13.238281zm0 0"/><path d="m233.929688 440.832031h-30.894532c-4.875 0-8.828125-3.953125-8.828125-8.828125v-35.3125c0-9.75 7.90625-17.652344 17.65625-17.652344h22.066407c17.066406 0 30.898437 13.832032 30.898437 30.894532s-13.832031 30.898437-30.898437 30.898437zm-22.066407-17.65625h22.066407c7.3125 0 13.242187-5.929687 13.242187-13.242187s-5.929687-13.242188-13.242187-13.242188h-22.066407zm0 0"/></g><path d="m353.101562 140.691406c-3.566406 0-6.785156-2.148437-8.152343-5.449218-1.367188-3.296876-.609375-7.09375 1.914062-9.617188l52.964844-52.964844c3.464844-3.347656 8.96875-3.300781 12.375.105469s3.453125 8.910156.105469 12.375l-52.964844 52.964844c-1.65625 1.65625-3.898438 2.585937-6.242188 2.585937zm0 0" fill="#bdc3c7"/><path d="m432.550781 61.246094c-2.347656.023437-4.605469-.902344-6.265625-2.5625-.777344-.859375-1.40625-1.84375-1.855468-2.914063-.941407-2.136719-.941407-4.570312 0-6.707031.425781-1.082031 1.054687-2.070312 1.855468-2.914062 3.539063-3.265626 8.992188-3.265626 12.535156 0 .796876.84375 1.425782 1.832031 1.851563 2.914062.945313 2.136719.945313 4.570312 0 6.707031-.449219 1.070313-1.074219 2.054688-1.851563 2.914063-1.664062 1.660156-3.921874 2.582031-6.269531 2.5625zm0 0" fill="#bdc3c7"/></svg>