<svg height="511pt" viewBox="0 0 511 511.98675" width="511pt" xmlns="http://www.w3.org/2000/svg"><path d="m365.589844 323.230469 23.382812 21.476562 111.546875 103.097657c10 9.1875 14.15625 23.117187 10.828125 36.28125-3.328125 13.164062-13.609375 23.441406-26.773437 26.773437-13.164063 3.328125-27.09375-.828125-36.277344-10.828125l-103.097656-111.546875-21.480469-23.382813" fill="#e64c3c"/><path d="m388.992188 344.71875c-4.890626 21.839844-21.945313 38.894531-43.785157 43.785156l-21.453125-23.394531-.085937-.089844c15.984375-11.746093 30.09375-25.855469 41.84375-41.839843l.085937.085937zm0 0" fill="#d1d4d1"/><path d="m346.160156 59.308594c79.078125 79.074218 79.078125 207.28125 0 286.359375-79.074218 79.074219-207.285156 79.074219-286.359375 0-79.078125-79.078125-79.078125-207.285157 0-286.359375 79.074219-79.078125 207.285157-79.078125 286.359375 0zm0 0" fill="#e6e7e8"/><path d="m370.1875 202.503906c.03125 67.230469-40.226562 127.929688-102.167969 154.054688-61.945312 26.128906-133.515625 12.59375-181.636719-34.351563-.53125-.441406-1.058593-.972656-1.589843-1.5-45.652344-45.695312-60.910157-113.597656-39.191407-174.429687 21.71875-60.832032 76.527344-103.71875 140.796876-110.171875 5.472656-.53125 11.035156-.796875 16.597656-.796875 44.355468-.050782 86.914062 17.546875 118.28125 48.914062 31.363281 31.367188 48.964844 73.921875 48.910156 118.28125zm0 0" fill="#90bae1"/><path d="m362.066406 150.863281c-162.867187 13.328125-241.167968 108.136719-275.683594 171.34375-.53125-.441406-1.058593-.972656-1.589843-1.5-45.652344-45.695312-60.910157-113.597656-39.191407-174.429687 21.71875-60.832032 76.527344-103.71875 140.796876-110.171875 5.472656-.53125 11.035156-.796875 16.597656-.796875 72.429687.078125 136.605468 46.699218 159.070312 115.554687zm0 0" fill="#b0d3f0"/><path d="m327.109375 293.296875v18.765625c-2.558594 3.1875-5.296875 6.179688-8.207031 9.207031-25.859375 26.890625-60.238282 43.988281-97.28125 48.386719l-.441406-3.460938-7.769532-71.804687h-19.773437l-7.769531 71.804687-.441407 3.53125c-37.441406-4.152343-72.242187-21.304687-98.335937-48.472656-2.472656-2.554687-4.855469-5.203125-7.152344-7.945312v-20.011719c-.269531-16.65625 6.089844-32.734375 17.679688-44.695313 11.589843-11.964843 27.460937-18.828124 44.113281-19.085937h14.566406c2.003906 0 3.941406.710937 5.472656 2.003906l30.71875 25.363281c1.398438 1.167969 2.976563 2.09375 4.679688 2.738282l13.683593-.460938c1.335938-.582031 2.582032-1.351562 3.707032-2.277344l30.71875-25.328124c1.527344-1.304688 3.464844-2.027344 5.472656-2.039063h14.566406c16.65625.257813 32.523438 7.121094 44.113282 19.085937 11.59375 11.960938 17.953124 28.039063 17.679687 44.695313zm0 0" fill="#35495e"/><path d="m265.316406 141.242188c0 34.125-27.664062 61.792968-61.792968 61.792968-34.125 0-61.792969-27.667968-61.792969-61.792968 0-34.128907 27.667969-61.792969 61.792969-61.792969 34.128906 0 61.792968 27.664062 61.792968 61.792969zm0 0" fill="#fdd7ad"/><path d="m221.621094 369.65625c-12.019532 1.441406-24.167969 1.46875-36.195313.085938l.441407-3.53125 7.769531-71.800782h19.773437l7.769532 71.785156zm0 0" fill="#c03a2b"/><path d="m184.796875 271.0625 12.484375-12.480469c3.445312-3.449219 9.035156-3.449219 12.480469 0l12.484375 12.480469c3.449218 3.449219 3.449218 9.039062 0 12.484375l-12.484375 12.484375c-3.445313 3.449219-9.035157 3.449219-12.480469 0l-12.484375-12.484375c-3.449219-3.445313-3.449219-9.035156 0-12.484375zm0 0" fill="#e64c3c"/></svg>