<svg height="512pt" viewBox="-4 0 512 512" width="512pt" xmlns="http://www.w3.org/2000/svg"><path d="m251.660156 512c-4.792968 0-8.675781-3.886719-8.675781-8.679688v-173.558593c0-4.792969 3.882813-8.675781 8.675781-8.675781 4.792969 0 8.679688 3.882812 8.679688 8.675781v173.558593c0 4.792969-3.886719 8.679688-8.679688 8.679688zm0 0" fill="#a5a5a4"/><path d="m160.179688 128.589844-23.578126 35.335937c-1.003906 1.503907-.96875 3.476563.085938 4.945313 1.058594 1.464844 2.914062 2.125 4.660156 1.652344l69.683594-18.972657c.691406-.179687 1.417969-.179687 2.109375 0 12.597656 3.132813 25.539063 4.691407 38.519531 4.652344 62.308594 0 112.8125-34.972656 112.8125-78.101563 0-43.128906-50.503906-78.101562-112.8125-78.101562s-112.8125 34.972656-112.8125 78.101562c.4375 17.191407 7.910156 33.453126 20.671875 44.976563 1.519531 1.4375 1.796875 3.757813.660157 5.511719zm0 0" fill="#b0d3f0"/><path d="m381.832031 308.066406c.015625 5.761719-2.261719 11.289063-6.335937 15.363282-4.070313 4.070312-9.601563 6.351562-15.359375 6.332031h-216.949219c-11.984375 0-21.695312-9.710938-21.695312-21.695313 0-11.980468 9.710937-21.695312 21.695312-21.695312h216.949219c11.980469 0 21.695312 9.714844 21.695312 21.695312zm0 0" fill="#35495e"/><path d="m43.390625 503.320312c-9.585937 0-17.355469-7.769531-17.355469-17.355468v-86.777344h34.710938v86.777344c0 9.585937-7.769532 17.355468-17.355469 17.355468zm0 0" fill="#d1d4d1"/><path d="m112.8125 503.320312c-9.585938 0-17.355469-7.769531-17.355469-17.355468v-86.777344h34.710938v86.777344c0 9.585937-7.769531 17.355468-17.355469 17.355468zm0 0" fill="#d1d4d1"/><path d="m104.136719 147.527344c0 23.960937-19.425781 43.386718-43.390625 43.386718s-43.390625-19.425781-43.390625-43.386718c0-23.964844 19.425781-43.390625 43.390625-43.390625s43.390625 19.425781 43.390625 43.390625zm0 0" fill="#fdd7ad"/><path d="m216.949219 347.117188v137.894531c.171875 9.21875-6.640625 17.085937-15.792969 18.222656-4.847656.414063-9.644531-1.21875-13.234375-4.496094-3.59375-3.28125-5.652344-7.910156-5.683594-12.773437v-104.132813c-.03125-9.574219-7.785156-17.328125-17.355469-17.359375h-95.460937c-19.167969 0-34.710937-15.539062-34.710937-34.710937v-111.335938c-.300782-14.019531 10.183593-25.933593 24.125-27.421875 7.214843-.53125 14.324218 1.960938 19.625 6.882813 5.300781 4.921875 8.3125 11.828125 8.320312 19.0625v86.78125c.027344 9.570312 7.78125 17.324219 17.355469 17.355469h21.695312c4.085938 5.472656 10.523438 8.6875 17.355469 8.675781h67.078125c4.316406 4.75 6.699219 10.941406 6.683594 17.355469zm0 0" fill="#e64c3c"/><path d="m147.527344 381.832031c-.03125 9.570313-7.785156 17.324219-17.359375 17.355469h-95.457031c-19.167969 0-34.710938-15.542969-34.710938-34.714844v-130.167968c.0273438-9.574219 7.78125-17.328126 17.355469-17.355469 4.605469-.023438 9.023437 1.824219 12.238281 5.121093 3.292969 3.214844 5.144531 7.628907 5.117188 12.234376v95.457031c0 19.171875 15.542968 34.710937 34.710937 34.710937h60.746094c9.574219.03125 17.328125 7.785156 17.359375 17.359375zm0 0" fill="#35495e"/><path d="m442.578125 399.1875h34.710937v86.777344c0 9.585937-7.769531 17.355468-17.355468 17.355468-9.585938 0-17.355469-7.769531-17.355469-17.355468zm0 0" fill="#d1d4d1"/><path d="m373.152344 399.1875h34.710937v86.777344c0 9.585937-7.769531 17.355468-17.355469 17.355468-9.585937 0-17.355468-7.769531-17.355468-17.355468zm0 0" fill="#d1d4d1"/><path d="m485.964844 147.527344c0 23.960937-19.425782 43.386718-43.386719 43.386718-23.964844 0-43.390625-19.425781-43.390625-43.386718 0-23.964844 19.425781-43.390625 43.390625-43.390625 23.960937 0 43.386719 19.425781 43.386719 43.390625zm0 0" fill="#fdd7ad"/><path d="m468.609375 218.425781v111.335938c0 19.171875-15.539063 34.710937-34.710937 34.710937h-95.457032c-9.574218.03125-17.328125 7.785156-17.355468 17.359375v104.132813c-.03125 4.863281-2.09375 9.492187-5.683594 12.773437-3.59375 3.277344-8.390625 4.910157-13.234375 4.496094-9.152344-1.136719-15.96875-9.003906-15.796875-18.222656v-137.894531c-.011719-6.414063 2.371094-12.605469 6.683594-17.355469h67.082031c6.832031.011719 13.265625-3.203125 17.355469-8.675781h21.695312c9.574219-.03125 17.328125-7.785157 17.355469-17.355469v-86.78125c.003906-7.234375 3.019531-14.140625 8.320312-19.0625 5.296875-4.921875 12.410157-7.414063 19.621094-6.882813 13.945313 1.488282 24.425781 13.402344 24.125 27.421875zm0 0" fill="#4482c3"/><g fill="#35495e"><path d="m503.320312 234.304688v130.167968c0 19.171875-15.539062 34.714844-34.710937 34.714844h-95.457031c-9.585938 0-17.355469-7.773438-17.355469-17.355469 0-9.585937 7.769531-17.359375 17.355469-17.359375h60.746094c19.171874 0 34.710937-15.539062 34.710937-34.710937v-95.457031c.070313-9.554688 7.800781-17.285157 17.355469-17.355469 9.574218.027343 17.328125 7.78125 17.355468 17.355469zm0 0"/><path d="m208.269531 78.101562c0 9.585938-7.769531 17.355469-17.355469 17.355469-9.585937 0-17.355468-7.769531-17.355468-17.355469 0-9.585937 7.769531-17.355468 17.355468-17.355468 9.585938 0 17.355469 7.769531 17.355469 17.355468zm0 0"/><path d="m269.015625 78.101562c0 9.585938-7.769531 17.355469-17.355469 17.355469-9.585937 0-17.355468-7.769531-17.355468-17.355469 0-9.585937 7.769531-17.355468 17.355468-17.355468 9.585938 0 17.355469 7.769531 17.355469 17.355468zm0 0"/><path d="m329.761719 78.101562c0 9.585938-7.769531 17.355469-17.355469 17.355469s-17.355469-7.769531-17.355469-17.355469c0-9.585937 7.769531-17.355468 17.355469-17.355468s17.355469 7.769531 17.355469 17.355468zm0 0"/></g></svg>