<svg height="512pt" viewBox="0 0 512.00006 512" width="512pt" xmlns="http://www.w3.org/2000/svg"><path d="m108.050781 397.242188h368.640625c19.5 0 35.308594-15.808594 35.308594-35.3125v-326.621094c0-19.5-15.808594-35.308594-35.308594-35.308594h-441.382812c-19.5 0-35.308594 15.808594-35.308594 35.308594v326.621094c-.0351562 18.757812 14.640625 34.246093 33.367188 35.222656zm0 0" fill="#95a5a5"/><path d="m476.691406 44.136719v61.792969h-441.382812v-61.792969c0-4.875 3.953125-8.828125 8.828125-8.828125h423.726562c4.875 0 8.828125 3.953125 8.828125 8.828125zm0 0" fill="#285680"/><path d="m476.691406 105.929688v211.863281c0 4.875-3.953125 8.828125-8.828125 8.828125h-423.726562c-4.875 0-8.828125-3.953125-8.828125-8.828125v-211.863281zm0 0" fill="#b0d3f0"/><path d="m256 397.242188c-74.980469 0-142.582031-45.167969-171.273438-114.441407-28.695312-69.273437-12.828124-149.011719 40.191407-202.027343 72.398437-72.398438 189.78125-72.398438 262.179687 0 72.398438 72.398437 72.398438 189.78125 0 262.179687-34.691406 34.882813-81.902344 54.429687-131.097656 54.289063zm0 0" fill="#e6e7e8"/><path d="m362.109375 317.96875c-56.980469 57.007812-148.820313 58.800781-207.980469 4.0625-1.410156-1.324219-2.824218-2.648438-4.238281-4.0625-42.921875-42.917969-55.765625-107.464844-32.539063-163.546875 23.226563-56.078125 77.949219-92.644531 138.648438-92.644531s115.421875 36.566406 138.648438 92.644531c23.226562 56.082031 10.382812 120.628906-32.539063 163.546875zm0 0" fill="#90bae1"/><path d="m398.125 163.488281c-161.191406 6.972657-221.574219 91.277344-243.996094 158.542969-1.410156-1.324219-2.824218-2.648438-4.238281-4.0625-43.695313-43.769531-56.066406-109.863281-31.15625-166.472656s82-92.136719 143.792969-89.488282c61.792968 2.652344 115.628906 42.941407 135.597656 101.480469zm0 0" fill="#b0d3f0"/><path d="m194.207031 397.242188h123.585938v44.136718h-123.585938zm0 0" fill="#7f8c8d"/><path d="m185.378906 441.378906h141.242188c29.25 0 52.964844 23.714844 52.964844 52.964844 0 9.75-7.902344 17.65625-17.65625 17.65625h-211.859376c-9.753906 0-17.65625-7.90625-17.65625-17.65625 0-29.25 23.714844-52.964844 52.964844-52.964844zm0 0" fill="#95a5a5"/><path d="m467.863281 450.207031c24.375 0 44.136719 19.761719 44.136719 44.136719 0 9.75-7.90625 17.65625-17.65625 17.65625h-52.964844c-9.75 0-17.65625-7.90625-17.65625-17.65625 0-24.375 19.761719-44.136719 44.140625-44.136719zm0 0" fill="#95a5a5"/><path d="m467.863281 476.691406c-4.875 0-8.828125-3.953125-8.828125-8.828125v-17.65625c0-4.875 3.953125-8.828125 8.828125-8.828125s8.828125 3.953125 8.828125 8.828125v17.65625c0 4.875-3.953125 8.828125-8.828125 8.828125zm0 0" fill="#7f8c8d"/><g fill="#35495e"><path d="m163.308594 264.828125c-17.0625 0-30.894532-13.832031-30.894532-30.898437 0-4.875 3.953126-8.828126 8.828126-8.828126s8.828124 3.953126 8.828124 8.828126c0 7.3125 5.925782 13.242187 13.238282 13.242187 7.316406 0 13.242187-5.929687 13.242187-13.242187v-66.207032c0-4.875 3.953125-8.824218 8.828125-8.824218s8.828125 3.949218 8.828125 8.824218v66.207032c0 17.066406-13.832031 30.898437-30.898437 30.898437zm0 0"/><path d="m211.863281 176.550781h-52.964843c-4.878907 0-8.828126-3.953125-8.828126-8.828125s3.949219-8.824218 8.828126-8.824218h52.964843c4.875 0 8.828125 3.949218 8.828125 8.824218s-3.953125 8.828125-8.828125 8.828125zm0 0"/><path d="m256 264.828125c-19.5 0-35.308594-15.808594-35.308594-35.3125v-35.308594c0-19.5 15.808594-35.308593 35.308594-35.308593s35.308594 15.808593 35.308594 35.308593v35.308594c0 19.503906-15.808594 35.3125-35.308594 35.3125zm0-88.277344c-9.75 0-17.65625 7.90625-17.65625 17.65625v35.308594c0 9.753906 7.90625 17.65625 17.65625 17.65625s17.65625-7.902344 17.65625-17.65625v-35.308594c0-9.75-7.90625-17.65625-17.65625-17.65625zm0 0"/><path d="m339.863281 264.828125h-22.070312c-9.75 0-17.65625-7.90625-17.65625-17.65625v-35.308594c0-4.875 3.953125-8.828125 8.828125-8.828125h30.898437c17.0625 0 30.894531 13.832032 30.894531 30.894532 0 17.066406-13.832031 30.898437-30.894531 30.898437zm-22.070312-44.136719v26.480469h22.070312c7.3125 0 13.238281-5.929687 13.238281-13.242187s-5.925781-13.238282-13.238281-13.238282zm0 0"/><path d="m339.863281 220.691406h-30.898437c-4.875 0-8.828125-3.953125-8.828125-8.828125v-35.3125c0-9.75 7.90625-17.652343 17.65625-17.652343h22.070312c17.0625 0 30.894531 13.832031 30.894531 30.894531s-13.832031 30.898437-30.894531 30.898437zm-22.070312-17.65625h22.070312c7.3125 0 13.238281-5.929687 13.238281-13.242187s-5.925781-13.242188-13.238281-13.242188h-22.070312zm0 0"/></g><path d="m79.449219 70.621094c0 4.875-3.953125 8.828125-8.828125 8.828125s-8.828125-3.953125-8.828125-8.828125 3.953125-8.828125 8.828125-8.828125 8.828125 3.953125 8.828125 8.828125zm0 0" fill="#e64c3c"/><path d="m114.757812 70.621094c0 4.875-3.953124 8.828125-8.828124 8.828125s-8.828126-3.953125-8.828126-8.828125 3.953126-8.828125 8.828126-8.828125 8.828124 3.953125 8.828124 8.828125zm0 0" fill="#f0c419"/><path d="m107.519531 322.914062-73.269531 73.269532c-.316406.300781-.609375.625-.882812.96875-9.121094 10.703125-8.289063 26.671875 1.898437 36.367187 10.1875 9.695313 26.175781 9.734375 36.414063.089844l36.371093-36.367187 36.898438-36.898438zm0 0" fill="#e64c3c"/><path d="m273.65625 485.515625h-35.3125c-4.875 0-8.828125-3.949219-8.828125-8.824219 0-4.878906 3.953125-8.828125 8.828125-8.828125h35.3125c4.875 0 8.828125 3.949219 8.828125 8.828125 0 4.875-3.953125 8.824219-8.828125 8.824219zm0 0" fill="#7f8c8d"/></svg>