<svg height="512pt" viewBox="0 0 512.00006 512" width="512pt" xmlns="http://www.w3.org/2000/svg"><path d="m108.050781 397.242188h368.640625c19.5 0 35.308594-15.808594 35.308594-35.3125v-326.621094c0-19.5-15.808594-35.308594-35.308594-35.308594h-441.382812c-19.5 0-35.308594 15.808594-35.308594 35.308594v326.621094c-.0351562 18.757812 14.640625 34.246093 33.367188 35.222656zm0 0" fill="#95a5a5"/><path d="m476.691406 44.136719v61.792969h-441.382812v-61.792969c0-4.875 3.953125-8.828125 8.828125-8.828125h423.726562c4.875 0 8.828125 3.953125 8.828125 8.828125zm0 0" fill="#285680"/><path d="m476.691406 105.929688v211.863281c0 4.875-3.953125 8.828125-8.828125 8.828125h-423.726562c-4.875 0-8.828125-3.953125-8.828125-8.828125v-211.863281zm0 0" fill="#90bae1"/><path d="m476.691406 105.929688v83.15625c-216.101562-48.019532-360.433594 35.3125-441.382812 106.460937v-189.617187zm0 0" fill="#b0d3f0"/><path d="m194.207031 397.242188h123.585938v44.136718h-123.585938zm0 0" fill="#7f8c8d"/><path d="m185.378906 441.378906h141.242188c29.25 0 52.964844 23.714844 52.964844 52.964844 0 9.75-7.902344 17.65625-17.65625 17.65625h-211.859376c-9.753906 0-17.65625-7.90625-17.65625-17.65625 0-29.25 23.714844-52.964844 52.964844-52.964844zm0 0" fill="#95a5a5"/><path d="m467.863281 450.207031c24.375 0 44.136719 19.761719 44.136719 44.136719 0 9.75-7.90625 17.65625-17.65625 17.65625h-52.964844c-9.75 0-17.65625-7.90625-17.65625-17.65625 0-24.375 19.761719-44.136719 44.140625-44.136719zm0 0" fill="#95a5a5"/><path d="m467.863281 476.691406c-4.875 0-8.828125-3.953125-8.828125-8.828125v-17.65625c0-4.875 3.953125-8.828125 8.828125-8.828125s8.828125 3.953125 8.828125 8.828125v17.65625c0 4.875-3.953125 8.828125-8.828125 8.828125zm0 0" fill="#7f8c8d"/><path d="m273.65625 485.515625h-35.3125c-4.875 0-8.828125-3.949219-8.828125-8.824219 0-4.878906 3.953125-8.828125 8.828125-8.828125h35.3125c4.875 0 8.828125 3.949219 8.828125 8.828125 0 4.875-3.953125 8.824219-8.828125 8.824219zm0 0" fill="#7f8c8d"/><path d="m79.449219 70.621094c0 4.875-3.953125 8.828125-8.828125 8.828125s-8.828125-3.953125-8.828125-8.828125 3.953125-8.828125 8.828125-8.828125 8.828125 3.953125 8.828125 8.828125zm0 0" fill="#e64c3c"/><path d="m114.757812 70.621094c0 4.875-3.953124 8.828125-8.828124 8.828125s-8.828126-3.953125-8.828126-8.828125 3.953126-8.828125 8.828126-8.828125 8.828124 3.953125 8.828124 8.828125zm0 0" fill="#f0c419"/><path d="m150.070312 70.621094c0 4.875-3.953124 8.828125-8.828124 8.828125s-8.828126-3.953125-8.828126-8.828125 3.953126-8.828125 8.828126-8.828125 8.828124 3.953125 8.828124 8.828125zm0 0" fill="#4fba6f"/><path d="m150.070312 176.550781c0 14.628907-11.859374 26.484375-26.484374 26.484375s-26.484376-11.855468-26.484376-26.484375c0-14.625 11.859376-26.480469 26.484376-26.480469s26.484374 11.855469 26.484374 26.480469zm0 0" fill="#fdd7ad"/><path d="m114.757812 203.035156h17.65625c19.5 0 35.308594 15.808594 35.308594 35.308594v35.3125c0 4.875-3.949218 8.828125-8.824218 8.828125h-70.621094c-4.875 0-8.828125-3.953125-8.828125-8.828125v-35.3125c0-19.5 15.808593-35.308594 35.308593-35.308594zm0 0" fill="#955ba5"/><path d="m282.484375 176.550781c0 14.628907-11.859375 26.484375-26.484375 26.484375s-26.484375-11.855468-26.484375-26.484375c0-14.625 11.859375-26.480469 26.484375-26.480469s26.484375 11.855469 26.484375 26.480469zm0 0" fill="#fdd7ad"/><path d="m300.136719 265.621094v-27.277344c0-19.5-15.808594-35.308594-35.308594-35.308594h-17.65625c-19.5 0-35.308594 15.808594-35.308594 35.308594v35.3125c0 4.875 3.949219 8.828125 8.828125 8.828125h35.839844zm0 0" fill="#e64c3c"/><path d="m414.898438 176.550781c0 14.628907-11.859376 26.484375-26.484376 26.484375s-26.484374-11.855468-26.484374-26.484375c0-14.625 11.859374-26.480469 26.484374-26.480469s26.484376 11.855469 26.484376 26.480469zm0 0" fill="#fdd7ad"/><path d="m379.585938 203.035156h17.65625c19.5 0 35.308593 15.808594 35.308593 35.308594v35.3125c0 4.875-3.953125 8.828125-8.828125 8.828125h-70.621094c-4.875 0-8.824218-3.953125-8.824218-8.828125v-35.3125c0-19.5 15.808594-35.308594 35.308594-35.308594zm0 0" fill="#955ba5"/><path d="m358.046875 299.433594-35.308594 4.410156 32.308594 35.488281c6.898437 6.898438 6.898437 18.082031 0 24.984375-6.898437 6.898438-18.085937 6.898438-24.984375 0l-37.871094-41.050781-17.566406 26.394531c-1.007812 1.515625-2.84375 2.253906-4.617188 1.863282-1.777343-.390626-3.132812-1.832032-3.414062-3.628907l-14.742188-95.601562c-.257812-1.589844.367188-3.191407 1.636719-4.183594 1.265625-.992187 2.972657-1.214844 4.453125-.582031l101.339844 43.429687c1.875.769531 2.984375 2.714844 2.691406 4.71875-.292968 2.003907-1.910156 3.554688-3.925781 3.757813zm0 0" fill="#e6e7e8"/></svg>