<svg height="512pt" viewBox="0 0 512 512" width="512pt" xmlns="http://www.w3.org/2000/svg"><path d="m476.691406 256c0 121.882812-98.808594 220.691406-220.691406 220.691406s-220.691406-98.808594-220.691406-220.691406 98.808594-220.691406 220.691406-220.691406 220.691406 98.808594 220.691406 220.691406zm0 0" fill="#e64c3c"/><path d="m256 406.070312c-82.878906 0-150.070312-67.191406-150.070312-150.070312s67.191406-150.070312 150.070312-150.070312 150.070312 67.191406 150.070312 150.070312c-.09375 82.84375-67.226562 149.976562-150.070312 150.070312zm0 0" fill="#e6e7e8"/><path d="m256 335.449219c-43.878906 0-79.449219-35.570313-79.449219-79.449219s35.570313-79.449219 79.449219-79.449219 79.449219 35.570313 79.449219 79.449219c-.050781 43.859375-35.589844 79.398438-79.449219 79.449219zm0 0" fill="#e64c3c"/><g fill="#c03a2b"><path d="m37.074219 237.726562c-2.523438.003907-4.929688-1.078124-6.609375-2.964843-1.675782-1.886719-2.464844-4.40625-2.164063-6.914063 12.917969-104.363281 95.136719-186.585937 199.503907-199.503906 4.757812-.433594 9 2.996094 9.570312 7.742188.570312 4.746093-2.742188 9.082031-7.46875 9.78125-96.277344 11.957031-172.117188 87.804687-184.066406 184.082031-.53125 4.4375-4.292969 7.777343-8.765625 7.777343zm0 0"/><path d="m283.082031 483.75c-4.671875 0-8.535156-3.640625-8.808593-8.304688-.277344-4.664062 3.128906-8.734374 7.769531-9.285156 96.304687-11.9375 172.175781-87.804687 184.117187-184.109375.699219-4.726562 5.035156-8.039062 9.78125-7.46875 4.746094.566407 8.175782 4.808594 7.738282 9.570313-12.914063 104.363281-95.136719 186.585937-199.503907 199.503906-.359375.054688-.726562.085938-1.09375.09375zm0 0"/><path d="m228.917969 483.75c-.359375.003906-.714844-.019531-1.070313-.058594-104.363281-12.917968-186.585937-95.140625-199.503906-199.503906-.433594-4.761719 2.996094-9.003906 7.742188-9.570312 4.746093-.570313 9.082031 2.742187 9.78125 7.46875 11.953124 96.28125 87.800781 172.125 184.082031 184.074218 4.640625.550782 8.046875 4.621094 7.769531 9.285156-.277344 4.664063-4.136719 8.304688-8.8125 8.304688zm0 0"/><path d="m474.925781 237.726562c-4.464843-.007812-8.21875-3.347656-8.75-7.777343-11.941406-96.308594-87.816406-172.175781-184.125-184.109375-4.726562-.699219-8.039062-5.035156-7.46875-9.78125.566407-4.746094 4.808594-8.175782 9.570313-7.738282 104.363281 12.914063 186.585937 95.136719 199.503906 199.503907.304688 2.503906-.472656 5.019531-2.140625 6.914062-1.667969 1.890625-4.066406 2.980469-6.589844 2.988281zm0 0"/></g><path d="m256 0c8.582031.00390625 16.699219 3.898438 22.070312 10.589844 5.375 6.691406 7.425782 15.457031 5.578126 23.835937l-10.417969 46.875c-1.828125 8.035157-8.972657 13.734375-17.210938 13.734375-8.242187 0-15.386719-5.699218-17.214843-13.734375l-10.453126-46.875c-1.847656-8.378906.203126-17.144531 5.578126-23.835937 5.371093-6.691406 13.488281-10.58593775 22.070312-10.589844zm0 0" fill="#2c3e50"/><path d="m256 512c8.582031-.003906 16.699219-3.898438 22.070312-10.589844 5.375-6.691406 7.425782-15.457031 5.578126-23.835937l-10.417969-46.875c-1.828125-8.035157-8.972657-13.734375-17.210938-13.734375-8.242187 0-15.386719 5.699218-17.214843 13.734375l-10.417969 46.875c-1.847657 8.371093.199219 17.132812 5.566406 23.820312 5.363281 6.691407 13.472656 10.589844 22.046875 10.605469zm0 0" fill="#2c3e50"/><path d="m0 256c.00390625-8.582031 3.898438-16.699219 10.589844-22.070312 6.691406-5.375 15.457031-7.425782 23.835937-5.578126l46.875 10.417969c8.035157 1.828125 13.734375 8.972657 13.734375 17.210938 0 8.242187-5.699218 15.386719-13.734375 17.214843l-46.875 10.453126c-8.378906 1.847656-17.144531-.203126-23.835937-5.578126-6.691406-5.371093-10.58593775-13.488281-10.589844-22.070312zm0 0" fill="#2c3e50"/><path d="m512 256c-.003906-8.582031-3.898438-16.699219-10.589844-22.070312-6.691406-5.375-15.457031-7.425782-23.835937-5.578126l-46.875 10.417969c-8.035157 1.828125-13.734375 8.972657-13.734375 17.210938 0 8.242187 5.699218 15.386719 13.734375 17.214843l46.875 10.417969c8.371093 1.847657 17.132812-.199219 23.820312-5.566406 6.691407-5.363281 10.589844-13.472656 10.605469-22.046875zm0 0" fill="#2c3e50"/><path d="m430.785156 439.613281c-2.339844 0-4.585937-.929687-6.238281-2.585937l-37.457031-37.457032c-3.34375-3.460937-3.296875-8.96875.105468-12.375 3.40625-3.402343 8.914063-3.449218 12.375-.105468l37.457032 37.457031c2.523437 2.523437 3.277344 6.320313 1.914062 9.617187-1.367187 3.296876-4.585937 5.449219-8.15625 5.449219zm0 0" fill="#802f34"/><path d="m118.679688 127.503906c-2.34375 0-4.585938-.929687-6.242188-2.585937l-37.457031-37.453125c-3.34375-3.464844-3.296875-8.96875.109375-12.375s8.910156-3.453125 12.375-.109375l37.453125 37.457031c2.523437 2.523438 3.28125 6.320312 1.914062 9.617188-1.367187 3.300781-4.585937 5.449218-8.152343 5.449218zm0 0" fill="#802f34"/><path d="m81.214844 439.613281c-3.570313 0-6.789063-2.152343-8.15625-5.449219-1.363282-3.296874-.609375-7.09375 1.914062-9.617187l37.457032-37.457031c3.460937-3.34375 8.96875-3.296875 12.375.105468 3.402343 3.40625 3.449218 8.914063.105468 12.375l-37.457031 37.457032c-1.652344 1.65625-3.898437 2.585937-6.238281 2.585937zm0 0" fill="#802f34"/><path d="m393.320312 127.503906c-3.566406 0-6.785156-2.148437-8.152343-5.449218-1.367188-3.296876-.609375-7.09375 1.914062-9.617188l37.453125-37.457031c3.464844-3.34375 8.96875-3.296875 12.375.109375s3.453125 8.910156.109375 12.375l-37.457031 37.453125c-1.65625 1.65625-3.898438 2.585937-6.242188 2.585937zm0 0" fill="#802f34"/><path d="m361.929688 335.449219c0 44.136719-105.929688 44.136719-105.929688 44.136719s-105.929688 0-105.929688-44.136719c-.964843-15.167969 3.828126-30.140625 13.417969-41.933594 13.285157-12.101563 30.414063-19.132813 48.375-19.859375 0 0 0 26.480469 44.136719 61.792969 44.136719-35.3125 44.136719-61.792969 44.136719-61.792969 17.960937.726562 35.089843 7.757812 48.375 19.859375 9.589843 11.792969 14.382812 26.765625 13.417969 41.933594zm0 0" fill="#285680"/><path d="m300.136719 273.65625s0 26.480469-44.136719 61.792969c-44.136719-35.3125-44.136719-61.792969-44.136719-61.792969s26.480469 17.652344 44.136719 17.652344 44.136719-17.652344 44.136719-17.652344zm0 0" fill="#e6e7e8"/><path d="m300.136719 273.65625s-26.480469 17.652344-44.136719 17.652344-44.136719-17.652344-44.136719-17.652344c7.105469-9.734375 12.785157-20.4375 16.859375-31.78125h54.554688c4.074218 11.34375 9.753906 22.046875 16.859375 31.78125zm0 0" fill="#f09372"/><path d="m304.339844 181.847656c2.816406-2.394531 6.554687-3.414062 10.195312-2.78125 5.207032 1.511719 2.648438 15.21875 2.648438 15.21875-2.714844 7.230469-8.828125 12.652344-16.332032 14.488282h-89.644531c-7.503906-1.84375-13.628906-7.261719-16.375-14.488282 0 0-2.558593-13.707031 2.695313-15.21875 3.628906-.632812 7.351562.386719 10.152344 2.78125zm0 0" fill="#f09372"/><path d="m304.207031 163.308594c-1.765625-29.421875-44.753906-30.894532-44.753906-30.894532h-6.886719s-43.035156 1.472657-44.757812 30.894532c-1.71875 29.425781 3.445312 32.371094 3.445312 42.664062 0 10.292969-3.445312 19.128906 10.328125 29.421875 13.769531 10.292969 13.769531 20.605469 27.542969 20.605469h13.769531c13.769531 0 13.769531-10.300781 27.542969-20.59375 13.769531-10.292969 10.328125-19.128906 10.328125-29.421875s5.164063-13.25 3.441406-42.675781zm0 0" fill="#fdd7ad"/></svg>