<svg height="512pt" viewBox="-39 0 512 512.06693" width="512pt" xmlns="http://www.w3.org/2000/svg"><path d="m164.515625 361.996094h105.929687c9.75 0 17.65625 7.90625 17.65625 17.65625s-7.90625 17.65625-17.65625 17.65625h-105.929687c-9.75 0-17.65625-7.90625-17.65625-17.65625s7.90625-17.65625 17.65625-17.65625zm0 0" fill="#e6e7e8"/><path d="m164.515625 397.308594h105.929687c9.75 0 17.65625 7.902344 17.65625 17.65625 0 9.75-7.90625 17.652344-17.65625 17.652344h-105.929687c-9.75 0-17.65625-7.902344-17.65625-17.652344 0-9.753906 7.90625-17.65625 17.65625-17.65625zm0 0" fill="#d1d4d1"/><path d="m164.515625 432.617188h105.929687c9.75 0 17.65625 7.90625 17.65625 17.65625s-7.90625 17.65625-17.65625 17.65625h-105.929687c-9.75 0-17.65625-7.90625-17.65625-17.65625s7.90625-17.65625 17.65625-17.65625zm0 0" fill="#e6e7e8"/><path d="m173.34375 467.929688h88.273438v8.828124c0 19.5-15.808594 35.308594-35.308594 35.308594h-17.65625c-19.5 0-35.308594-15.808594-35.308594-35.308594zm0 0" fill="#a5a5a4"/><path d="m279.273438 335.789062v26.207032h-123.585938v-26.941406c-.199219-17.289063-9.230469-33.273438-23.929688-42.371094-59.359374-38.035156-86.558593-110.632813-66.808593-178.304688 19.753906-67.675781 81.734375-114.246094 152.230469-114.378906 70.5-.132812 132.65625 46.199219 152.664062 113.796875 20.011719 67.601563-6.914062 140.300781-66.125 178.558594-15.019531 9.363281-24.234375 25.734375-24.445312 43.433593zm0 0" fill="#f0c419"/><g fill="#f3d55b"><path d="m376.378906 158.964844c.035156 53.945312-27.328125 104.214844-72.652344 133.472656-15.011718 9.328125-24.230468 25.667969-24.453124 43.34375v26.214844h-61.792969v-361.9296878c87.738281.0390628 158.859375 71.1562498 158.898437 158.8984378zm0 0"/><path d="m338.25 341.871094c-2.894531 0-5.605469-1.417969-7.253906-3.796875l-10.066406-14.511719c-1.855469-2.589844-2.171876-5.976562-.828126-8.867188 1.34375-2.890624 4.140626-4.828124 7.316407-5.078124 3.175781-.246094 6.242187 1.238281 8.015625 3.882812l10.046875 14.511719c1.871093 2.695312 2.089843 6.210937.570312 9.117187-1.519531 2.910156-4.527343 4.738282-7.808593 4.742188zm0 0"/><path d="m54.171875 62.742188c-1.691406.003906-3.347656-.484376-4.769531-1.402344l-14.882813-9.570313c-4.066406-2.652343-5.226562-8.085937-2.601562-12.167969 2.625-4.085937 8.054687-5.28125 12.152343-2.679687l14.847657 9.550781c3.308593 2.109375 4.828125 6.152344 3.726562 9.917969-1.097656 3.765625-4.550781 6.351563-8.472656 6.351563zm0 0"/><path d="m395.65625 282.398438c-1.691406.003906-3.347656-.484376-4.765625-1.402344l-14.847656-9.550782c-4.066407-2.652343-5.230469-8.089843-2.605469-12.171874 2.628906-4.082032 8.058594-5.277344 12.15625-2.675782l14.847656 9.550782c3.296875 2.121093 4.796875 6.15625 3.691406 9.917968-1.105468 3.757813-4.558593 6.335938-8.476562 6.332032zm0 0"/><path d="m26.390625 133.230469c-.53125.003906-1.058594-.042969-1.582031-.140625l-17.378906-3.144532c-3.144532-.515624-5.765626-2.6875-6.859376-5.679687s-.4882808-6.34375 1.582032-8.765625c2.070312-2.421875 5.28125-3.539062 8.410156-2.925781l17.382812 3.144531c4.492188.8125 7.625 4.917969 7.21875 9.46875s-4.214843 8.039062-8.78125 8.042969zm0 0"/><path d="m425.96875 205.492188c-.527344.003906-1.058594-.042969-1.578125-.140626l-17.371094-3.132812c-3.144531-.515625-5.765625-2.6875-6.859375-5.679688-1.09375-2.996093-.488281-6.34375 1.578125-8.765624 2.070313-2.421876 5.285157-3.542969 8.414063-2.925782l17.378906 3.140625c4.496094.8125 7.628906 4.921875 7.222656 9.472657-.40625 4.546874-4.214844 8.035156-8.785156 8.042968zm0 0"/><path d="m10.4375 212.742188c-4.503906-.011719-8.277344-3.410157-8.757812-7.890626-.476563-4.480468 2.496093-8.601562 6.894531-9.5625l17.25-3.742187c3.113281-.75 6.390625.242187 8.558593 2.597656 2.171876 2.351563 2.898438 5.699219 1.898438 8.738281-1 3.042969-3.570312 5.304688-6.714844 5.914063l-17.246094 3.742187c-.621093.132813-1.25.203126-1.882812.203126zm0 0"/><path d="m407.273438 126.582031c-4.503907-.007812-8.28125-3.410156-8.757813-7.890625-.476563-4.476562 2.492187-8.597656 6.894531-9.558594l17.25-3.742187c3.113282-.753906 6.386719.242187 8.558594 2.59375 2.171875 2.355469 2.898438 5.699219 1.898438 8.742187-1 3.042969-3.570313 5.304688-6.714844 5.910157l-17.25 3.742187c-.617188.136719-1.246094.207032-1.878906.203125zm0 0"/><path d="m43.410156 288.550781c-3.863281.003907-7.277344-2.503906-8.429687-6.191406-1.152344-3.683594.222656-7.691406 3.398437-9.890625l14.511719-10.0625c4.007813-2.777344 9.507813-1.78125 12.285156 2.226562 2.773438 4.007813 1.777344 9.507813-2.230469 12.285157l-14.511718 10.046875c-1.472656 1.03125-3.226563 1.585937-5.023438 1.585937zm0 0"/><path d="m377.058594 57.09375c-3.863282 0-7.277344-2.507812-8.429688-6.191406-1.15625-3.6875.222656-7.695313 3.394532-9.894532l14.503906-10.042968c4.007812-2.777344 9.507812-1.78125 12.285156 2.226562 2.777344 4.007813 1.777344 9.507813-2.230469 12.285156l-14.511719 10.0625c-1.472656 1.019532-3.222656 1.5625-5.011718 1.554688zm0 0"/><path d="m102.863281 345.976562c-3.226562-.003906-6.195312-1.769531-7.742187-4.601562-1.542969-2.835938-1.417969-6.289062.328125-9.003906l9.550781-14.847656c2.652344-4.066407 8.085938-5.226563 12.171875-2.601563 4.082031 2.625 5.277344 8.054687 2.675781 12.152344l-9.550781 14.851562c-1.625 2.527344-4.425781 4.054688-7.433594 4.050781zm0 0"/></g><path d="m314.585938 232.761719c0 40.960937-97.105469 40.960937-97.105469 40.960937s-97.101563 0-97.101563-40.960937c-.84375-14.070313 3.523438-27.960938 12.269532-39.015625 12.175781-11.160156 27.902343-17.660156 44.402343-18.363282 0 0 0 24.539063 40.429688 57.378907 40.429687-32.839844 40.429687-57.378907 40.429687-57.378907 16.5.703126 32.226563 7.203126 44.402344 18.363282 8.746094 11.054687 13.113281 24.945312 12.273438 39.015625zm0 0" fill="#285680"/><path d="m257.910156 175.382812s0 24.539063-40.429687 57.378907c-40.429688-32.839844-40.429688-57.378907-40.429688-57.378907s24.277344 18.890626 40.429688 18.890626c16.15625 0 40.429687-18.890626 40.429687-18.890626zm0 0" fill="#e6e7e8"/><path d="m257.910156 175.382812s-24.273437 18.890626-40.429687 18.890626c-16.152344 0-40.429688-18.890626-40.429688-18.890626 6.21875-8.796874 11.289063-18.347656 15.09375-28.425781h50.671875c3.804688 10.078125 8.875 19.628907 15.09375 28.425781zm0 0" fill="#f09372"/><path d="m265.820312 84.8125c2.816407-2.398438 6.554688-3.417969 10.195313-2.78125 5.210937 1.507812 2.648437 15.21875 2.648437 15.21875-2.714843 7.230469-8.828124 12.652344-16.332031 14.484375h-89.640625c-7.507812-1.84375-13.632812-7.257813-16.378906-14.484375 0 0-2.558594-13.710938 2.695312-15.21875 3.628907-.632812 7.351563.386719 10.152344 2.78125zm0 0" fill="#f09372"/><path d="m265.6875 66.273438c-1.765625-29.421876-44.753906-30.894532-44.753906-30.894532h-6.886719s-43.035156 1.472656-44.757813 30.894532c-1.71875 29.421874 3.445313 32.371093 3.445313 42.664062s-3.445313 19.128906 10.328125 29.421875c13.769531 10.292969 13.769531 20.605469 27.542969 20.605469h13.769531c13.769531 0 13.769531-10.304688 27.542969-20.597656 13.769531-10.292969 10.328125-19.128907 10.328125-29.421876 0-10.292968 5.164062-13.25 3.441406-42.671874zm0 0" fill="#fdd7ad"/></svg>