<svg height="512pt" viewBox="0 0 512.14189 512" width="512pt" xmlns="http://www.w3.org/2000/svg"><path d="m194.347656 512.070312h273.65625c24.375 0 44.136719-19.761718 44.136719-44.136718v-361.929688l-105.929687-105.9335935h-211.863282c-24.375 0-44.136718 19.7617185-44.136718 44.1367185v423.726563c0 24.375 19.761718 44.136718 44.136718 44.136718zm0 0" fill="#b0d3f0"/><path d="m187.726562 344.347656c-17.855468 5.976563-36.390624 9.683594-55.171874 11.035156-18.78125-1.351562-37.316407-5.058593-55.171876-11.035156 22.070313-33.105468 22.070313-44.140625 22.070313-44.140625h66.207031s0 11.035157 22.066406 44.140625zm0 0" fill="#f09372"/><path d="m406.210938.0703125 105.929687 105.9335935h-88.273437c-9.75 0-17.65625-7.90625-17.65625-17.65625zm0 0" fill="#90bae1"/><path d="m300.28125 123.65625c-5.515625.015625-10.453125-3.414062-12.359375-8.589844l-22.503906-68.09375c-1.527344-4.632812.988281-9.625 5.621093-11.15625 4.632813-1.527344 9.625.988282 11.152344 5.621094l18.089844 54.855469 18.105469-54.875c1.527343-4.628907 6.519531-7.144531 11.152343-5.617188 4.632813 1.527344 7.148438 6.523438 5.617188 11.152344l-22.351562 67.761719c-1.835938 5.351562-6.867188 8.941406-12.523438 8.941406zm0 0" fill="#894b9d"/><path d="m229.660156 123.65625h-17.65625c-14.625 0-26.484375-11.855469-26.484375-26.480469v-35.3125c0-14.625 11.859375-26.480469 26.484375-26.480469h17.65625c14.625 0 26.480469 11.855469 26.480469 26.480469 0 4.875-3.949219 8.828125-8.828125 8.828125-4.875 0-8.824219-3.953125-8.824219-8.828125s-3.953125-8.828125-8.828125-8.828125h-17.65625c-4.875 0-8.828125 3.953125-8.828125 8.828125v35.3125c0 4.875 3.953125 8.828125 8.828125 8.828125h17.65625c4.875 0 8.828125-3.953125 8.828125-8.828125s3.949219-8.828125 8.824219-8.828125c4.878906 0 8.828125 3.953125 8.828125 8.828125 0 14.625-11.855469 26.480469-26.480469 26.480469zm0 0" fill="#894b9d"/><path d="m378.660156 248.3125-16.585937-16.589844c-6.894531-6.890625-6.894531-18.066406 0-24.960937s18.070312-6.894531 24.964843 0l7.21875 7.21875c1.722657 1.722656 4.519532 1.722656 6.242188 0l33.703125-33.703125c6.894531-6.890625 18.070313-6.890625 24.964844 0 6.890625 6.894531 6.890625 18.070312 0 24.964844l-43.070313 43.070312c-10.339844 10.332031-27.097656 10.332031-37.4375 0zm0 0" fill="#4fba6f"/><path d="m378.660156 345.414062-16.585937-16.585937c-6.894531-6.894531-6.894531-18.070313 0-24.964844 6.894531-6.890625 18.070312-6.890625 24.964843 0l7.21875 7.222657c1.722657 1.722656 4.519532 1.722656 6.242188 0l33.703125-33.707032c6.894531-6.890625 18.070313-6.890625 24.964844 0 6.890625 6.894532 6.890625 18.070313 0 24.964844l-43.070313 43.070312c-10.339844 10.332032-27.097656 10.332032-37.4375 0zm0 0" fill="#4fba6f"/><path d="m378.660156 442.519531-16.585937-16.589843c-6.894531-6.894532-6.894531-18.070313 0-24.960938 6.894531-6.894531 18.070312-6.894531 24.964843 0l7.21875 7.21875c1.722657 1.722656 4.519532 1.722656 6.242188 0l33.703125-33.703125c6.894531-6.890625 18.070313-6.890625 24.964844 0 6.890625 6.894531 6.890625 18.070313 0 24.964844l-43.070313 43.070312c-10.339844 10.332031-27.097656 10.332031-37.4375 0zm0 0" fill="#4fba6f"/><path d="m264.96875 421.589844c0 55.171875-132.414062 55.171875-132.414062 55.171875s-132.414063 0-132.414063-55.171875c-1.160156-18.960938 4.824219-37.667969 16.773437-52.4375 16.621094-15.109375 38.027344-23.890625 60.46875-24.804688 0 0 0 33.101563 55.171876 77.242188 55.171874-44.140625 55.171874-77.242188 55.171874-77.242188 22.445313.914063 43.851563 9.695313 60.46875 24.804688 11.949219 14.769531 17.933594 33.476562 16.773438 52.4375zm0 0" fill="#285680"/><path d="m187.726562 344.347656s0 33.101563-55.171874 77.242188c-55.171876-44.140625-55.171876-77.242188-55.171876-77.242188 17.855469 5.976563 36.390626 9.683594 55.171876 11.035156 18.78125-1.351562 37.316406-5.058593 55.171874-11.035156zm0 0" fill="#e6e7e8"/><path d="m181.988281 222.527344c4.734375-3.144532 10.472657-4.402344 16.085938-3.53125 8.21875 1.933594 4.105469 19.5625 4.105469 19.5625s-3.691407 12.464844-25.769532 18.617187h-89.625c-20.4375-6.199219-23.96875-18.664062-23.96875-18.664062s-3.742187-17.652344 3.9375-19.5625c5.21875-.859375 10.566406.414062 14.839844 3.53125zm0 0" fill="#f09372"/><g fill="#3d324c"><path d="m317.933594 176.621094h-97.101563c-4.875 0-8.828125-3.949219-8.828125-8.824219 0-4.878906 3.953125-8.828125 8.828125-8.828125h97.101563c4.875 0 8.828125 3.949219 8.828125 8.828125 0 4.875-3.953125 8.824219-8.828125 8.824219zm0 0"/><path d="m317.933594 211.933594h-79.445313c-4.875 0-8.828125-3.953125-8.828125-8.828125s3.953125-8.828125 8.828125-8.828125h79.445313c4.875 0 8.828125 3.953125 8.828125 8.828125s-3.953125 8.828125-8.828125 8.828125zm0 0"/><path d="m317.933594 247.242188h-70.621094c-4.875 0-8.824219-3.949219-8.824219-8.828126 0-4.875 3.949219-8.824218 8.824219-8.824218h70.621094c4.875 0 8.828125 3.949218 8.828125 8.824218 0 4.878907-3.953125 8.828126-8.828125 8.828126zm0 0"/><path d="m317.933594 282.554688h-79.445313c-4.875 0-8.828125-3.953126-8.828125-8.828126s3.953125-8.828124 8.828125-8.828124h79.445313c4.875 0 8.828125 3.953124 8.828125 8.828124s-3.953125 8.828126-8.828125 8.828126zm0 0"/><path d="m317.933594 317.863281h-105.929688c-4.875 0-8.828125-3.953125-8.828125-8.828125s3.953125-8.828125 8.828125-8.828125h105.929688c4.875 0 8.828125 3.953125 8.828125 8.828125s-3.953125 8.828125-8.828125 8.828125zm0 0"/><path d="m317.933594 353.175781h-44.667969c-4.875 0-8.824219-3.953125-8.824219-8.828125s3.949219-8.828125 8.824219-8.828125h44.667969c4.875 0 8.828125 3.953125 8.828125 8.828125s-3.953125 8.828125-8.828125 8.828125zm0 0"/><path d="m317.933594 388.484375h-23.746094c-4.875 0-8.828125-3.953125-8.828125-8.828125s3.953125-8.828125 8.828125-8.828125h23.746094c4.875 0 8.828125 3.953125 8.828125 8.828125s-3.953125 8.828125-8.828125 8.828125zm0 0"/><path d="m317.933594 423.796875h-17.742188c-4.875 0-8.828125-3.953125-8.828125-8.828125s3.953125-8.828125 8.828125-8.828125h17.742188c4.875 0 8.828125 3.953125 8.828125 8.828125s-3.953125 8.828125-8.828125 8.828125zm0 0"/><path d="m317.933594 459.105469h-23.746094c-4.875 0-8.828125-3.953125-8.828125-8.828125s3.953125-8.828125 8.828125-8.828125h23.746094c4.875 0 8.828125 3.953125 8.828125 8.828125s-3.953125 8.828125-8.828125 8.828125zm0 0"/></g><path d="m185.679688 198.691406c-1.933594-37.835937-50.316407-39.722656-50.316407-39.722656h-7.75s-48.421875 1.886719-50.316406 39.722656c-1.898437 37.835938 3.875 41.613282 3.875 54.855469s-3.9375 24.59375 11.554687 37.835937c15.492188 13.238282 15.492188 26.480469 30.984376 26.480469h15.492187c15.492187 0 15.492187-13.242187 30.984375-26.480469 15.492188-13.242187 11.617188-24.59375 11.617188-37.835937s5.816406-17.019531 3.875-54.855469zm0 0" fill="#fdd7ad"/></svg>