<svg height="512pt" viewBox="0 0 512 512.06816" width="512pt" xmlns="http://www.w3.org/2000/svg"><path d="m277.09375 287.503906c-1.117188-.457031-2.324219-.675781-3.53125-.632812-26.175781 1.148437-63.945312 17.378906-90.597656 30.488281-1.886719.882813-4.132813.328125-5.390625-1.335937-1.257813-1.660157-1.179688-3.972657.183593-5.546876 16.441407-18.339843 27.828126-40.644531 33.03125-64.714843.496094-2.570313-.199218-5.226563-1.890624-7.222657-20.746094-24.828124-32.175782-56.117187-32.316407-88.46875 0-82.890624 75.125-150.070312 167.726563-150.070312 92.597656 0 167.722656 67.179688 167.722656 150.070312 0 82.890626-75.125 150.066407-167.722656 150.066407-23 .054687-45.804688-4.230469-67.214844-12.632813zm0 0" fill="#90bae1"/><path d="m512.03125 150.070312c0 82.890626-75.125 150.066407-167.722656 150.066407v-300.136719c92.597656 0 167.722656 67.179688 167.722656 150.070312zm0 0" fill="#b0d3f0"/><path d="m352.691406 471.394531c-28.652344 27.183594-66.976562 41.804688-106.460937 40.605469-13.976563-.039062-27.914063-1.546875-41.578125-4.503906-44.664063-9.707032-81.300782-36.28125-113.257813-67.882813-3.175781-3.265625-6.175781-6.445312-9.355469-9.621093l70.53125-70.53125c15.527344 15.226562 32.167969 29.269531 49.789063 42.019531 7.019531 4.921875 16.566406 4.0625 22.597656-2.03125l27.894531-27.894531c7.90625-7.929688 18.644532-12.382813 29.839844-12.382813 11.195313 0 21.929688 4.453125 29.835938 12.382813l40.164062 40.164062c7.929688 7.90625 12.382813 18.640625 12.382813 29.835938 0 11.195312-4.453125 21.933593-12.382813 29.839843zm0 0" fill="#24ae5f"/><path d="m110.550781 309.671875c12.75 17.617187 26.792969 34.261719 42.019531 49.789063l-70.53125 70.53125c-3.179687-3.179688-6.355468-6.179688-9.621093-9.359376-31.605469-31.953124-58.175781-68.589843-67.886719-113.257812-11.210938-51.816406-2.292969-109.636719 36.105469-148.035156 7.914062-7.914063 18.648437-12.359375 29.839843-12.359375 11.191407 0 21.921876 4.445312 29.835938 12.359375l40.164062 40.164062c7.925782 7.90625 12.382813 18.640625 12.382813 29.835938 0 11.195312-4.457031 21.933594-12.382813 29.839844l-27.894531 27.894531c-6.09375 6.027343-6.953125 15.578125-2.03125 22.597656zm0 0" fill="#4fba6f"/><path d="m45.484375 300.597656c-3.796875-.003906-7.167969-2.433594-8.367187-6.039062-20.226563-60.652344 7.183593-89.007813 8.367187-90.183594 3.445313-3.371094 8.953125-3.355469 12.378906.03125 3.429688 3.390625 3.503907 8.898438.171875 12.382812-.960937 1.023438-20.664062 22.722657-4.183594 72.183594.902344 2.691406.453126 5.648438-1.207031 7.953125-1.65625 2.304688-4.324219 3.671875-7.160156 3.671875zm0 0" fill="#4c8056"/><path d="m259.367188 482.332031c-14.269532-.199219-28.414063-2.703125-41.886719-7.417969-4.632813-1.542968-7.136719-6.546874-5.59375-11.179687 1.542969-4.628906 6.550781-7.132813 11.183593-5.589844 49.609376 16.542969 71.289063-3.339843 72.191407-4.1875 3.503906-3.332031 9.035156-3.246093 12.4375.195313 3.394531 3.421875 3.394531 8.9375 0 12.359375-13.53125 11.191406-30.800781 16.84375-48.332031 15.820312zm0 0" fill="#4c8056"/><path d="m388.445312 88.277344c0 24.375-19.761718 44.136718-44.136718 44.136718-24.378906 0-44.140625-19.761718-44.140625-44.136718 0-24.378906 19.761719-44.140625 44.140625-44.140625 24.375 0 44.136718 19.761719 44.136718 44.140625zm0 0" fill="#fdd7ad"/><path d="m317.824219 132.414062h52.964843c19.5 0 35.3125 15.808594 35.3125 35.308594v61.792969c0 4.878906-3.953124 8.828125-8.828124 8.828125h-105.933594c-4.875 0-8.828125-3.949219-8.828125-8.828125v-61.792969c0-19.5 15.8125-35.308594 35.3125-35.308594zm0 0" fill="#955ba5"/></svg>