<svg height="512pt" viewBox="0 0 512 512" width="512pt" xmlns="http://www.w3.org/2000/svg"><path d="m17.65625 291.308594c-.964844-15.164063 3.828125-30.140625 13.417969-41.929688 13.289062-12.101562 30.414062-19.132812 48.375-19.863281h88.273437c17.960938.730469 35.089844 7.761719 48.375 19.863281 9.59375 11.789063 14.382813 26.765625 13.417969 41.929688zm0 0" fill="#285680"/><path d="m282.484375 229.515625c-.964844-15.164063 3.824219-30.140625 13.417969-41.929687 13.285156-12.101563 30.414062-19.132813 48.375-19.863282h88.273437c17.960938.730469 35.085938 7.761719 48.375 19.863282 9.589844 11.789062 14.382813 26.765624 13.417969 41.929687zm0 0" fill="#955ba5"/><g fill="#b19046"><path d="m132.414062 446.789062c-9.75 0-17.65625-7.902343-17.65625-17.652343v-67.207031c0-4.875 3.953126-8.828126 8.828126-8.828126s8.828124 3.953126 8.828124 8.828126v67.179687l114.351563-38.117187c2.996094-1 6.296875-.324219 8.660156 1.773437 2.363281 2.09375 3.429688 5.292969 2.792969 8.386719-.632812 3.09375-2.867188 5.613281-5.863281 6.613281l-114.320313 38.132813c-1.8125.601562-3.710937.902343-5.621094.890624zm0 0"/><path d="m299.519531 391.589844c-4.332031.003906-8.027343-3.136719-8.71875-7.414063-.695312-4.277343 1.816407-8.421875 5.929688-9.789062l82.855469-27.628907v-73.101562c0-4.875 3.953124-8.828125 8.828124-8.828125s8.828126 3.953125 8.828126 8.828125v73.089844c-.023438 7.539062-4.800782 14.242187-11.917969 16.722656l-82.980469 27.671875c-.910156.304687-1.863281.457031-2.824219.449219zm0 0"/><path d="m256 408.097656h35.308594v45.199219h-35.308594zm0 0"/></g><path d="m300.136719 388.414062c0 14.625-11.855469 26.484376-26.480469 26.484376-14.628906 0-26.484375-11.859376-26.484375-26.484376s11.855469-26.484374 26.484375-26.484374c14.625 0 26.480469 11.859374 26.480469 26.484374zm0 0" fill="#e4c05c"/><path d="m273.65625 450.207031c29.25 0 52.964844 23.714844 52.964844 52.964844 0 4.875-3.953125 8.828125-8.828125 8.828125h-88.277344c-4.875 0-8.824219-3.953125-8.824219-8.828125 0-29.25 23.710938-52.964844 52.964844-52.964844zm0 0" fill="#e4c05c"/><path d="m167.722656 229.515625c-14.28125 4.785156-29.113281 7.75-44.136718 8.828125-15.023438-1.078125-29.851563-4.042969-44.136719-8.828125 17.652343-26.480469 17.652343-35.308594 17.652343-35.308594l1.0625-8.828125c5.03125 6.269532 8.5625 17.65625 17.917969 17.65625h15.007813c8.472656 0 12.09375-12.269531 16.417968-17.65625l2.5625 8.828125s0 8.828125 17.652344 35.308594zm0 0" fill="#f09372"/><path d="m167.722656 229.515625s0 26.484375-44.136718 61.792969c-44.136719-35.308594-44.136719-61.792969-44.136719-61.792969 14.285156 4.785156 29.113281 7.75 44.136719 8.828125 15.023437-1.078125 29.855468-4.042969 44.136718-8.828125zm0 0" fill="#e6e7e8"/><path d="m432.550781 167.722656c-14.285156 4.785156-29.113281 7.75-44.136719 8.828125-15.023437-1.078125-29.855468-4.042969-44.136718-8.828125 17.652344-26.480468 17.652344-35.308594 17.652344-35.308594l1.0625-8.828124c5.03125 6.269531 8.5625 17.65625 17.917968 17.65625h15.007813c8.472656 0 12.09375-12.269532 16.417969-17.65625l2.5625 8.828124s0 8.828126 17.652343 35.308594zm0 0" fill="#f09372"/><path d="m432.550781 167.722656s0 26.484375-44.136719 61.792969c-44.136718-35.308594-44.136718-61.792969-44.136718-61.792969 14.28125 4.785156 29.113281 7.75 44.136718 8.828125 15.023438-1.078125 29.851563-4.042969 44.136719-8.828125zm0 0" fill="#e6e7e8"/><path d="m8.828125 291.308594h229.515625c4.875 0 8.828125 3.953125 8.828125 8.828125 0 34.128906-27.664063 61.792969-61.792969 61.792969h-123.585937c-34.128907 0-61.792969-27.664063-61.792969-61.792969 0-4.875 3.953125-8.828125 8.828125-8.828125zm0 0" fill="#e4c05c"/><path d="m247.171875 300.136719c0 34.128906-27.664063 61.792969-61.792969 61.792969h-61.792968v-70.621094h114.757812c4.875 0 8.828125 3.953125 8.828125 8.828125zm0 0" fill="#f3d55b"/><path d="m273.65625 229.515625h229.515625c4.875 0 8.828125 3.953125 8.828125 8.828125 0 16.390625-6.511719 32.105469-18.097656 43.695312-11.589844 11.589844-27.308594 18.097657-43.695313 18.097657h-123.585937c-34.128906 0-61.792969-27.664063-61.792969-61.792969 0-4.875 3.953125-8.828125 8.828125-8.828125zm0 0" fill="#e4c05c"/><path d="m173.144531 118.996094c1.121094-1.324219 5.21875-5.597656 9.277344-3.804688 4.742187 2.054688 2.367187 20.804688 2.367187 20.804688-1.78125 8.472656-7.222656 15.722656-14.859374 19.800781h-92.6875c-7.636719-4.085937-13.082032-11.328125-14.882813-19.800781 0 0-2.332031-18.75 2.445313-20.804688 4.050781-1.765625 8.101562 2.480469 9.222656 3.804688zm0 0" fill="#f09372"/><path d="m437.972656 57.203125c1.121094-1.324219 5.214844-5.597656 9.277344-3.804687 4.738281 2.054687 2.367188 20.804687 2.367188 20.804687-1.78125 8.472656-7.222657 15.722656-14.859376 19.800781h-92.6875c-7.636718-4.085937-13.082031-11.328125-14.882812-19.800781 0 0-2.332031-18.75 2.445312-20.804687 4.050782-1.765626 8.101563 2.480468 9.222657 3.804687zm0 0" fill="#f09372"/><path d="m172.402344 145.832031c0 11.828125 3.796875 21.890625-11.300782 33.632813-5.101562 4.257812-9.664062 9.117187-13.59375 14.476562-3.445312 5.757813-9.710937 9.226563-16.417968 9.09375h-15.007813c-9.355469 0-12.886719-4.589844-17.917969-10.859375-3.421874-4.777343-7.492187-9.058593-12.09375-12.710937-15.097656-11.742188-11.300781-21.804688-11.300781-33.632813s-5.648437-15.09375-3.796875-48.730469c1.855469-33.632812 48.816406-35.308593 48.816406-35.308593h7.59375s46.875 1.675781 48.816407 35.308593c1.941406 33.636719-3.796875 36.988282-3.796875 48.730469zm0 0" fill="#fdd7ad"/><path d="m437.230469 84.039062c0 11.828126 3.796875 21.890626-11.300781 33.632813-5.101563 4.257813-9.664063 9.117187-13.59375 14.476563-3.445313 5.757812-9.710938 9.226562-16.417969 9.09375h-15.007813c-9.355468 0-12.886718-4.589844-17.917968-10.859376-3.421876-4.777343-7.492188-9.058593-12.09375-12.710937-15.097657-11.742187-11.300782-21.804687-11.300782-33.632813 0-11.828124-5.648437-15.09375-3.796875-48.730468 1.855469-33.632813 48.816407-35.308594 48.816407-35.308594h7.59375s46.875 1.675781 48.816406 35.308594c1.941406 33.636718-3.796875 36.988281-3.796875 48.730468zm0 0" fill="#fdd7ad"/><path d="m512 238.34375c0 16.390625-6.511719 32.105469-18.097656 43.695312-11.589844 11.589844-27.308594 18.097657-43.695313 18.097657h-61.792969v-70.621094h114.757813c4.875 0 8.828125 3.953125 8.828125 8.828125zm0 0" fill="#f3d55b"/></svg>