<svg height="512pt" viewBox="0 0 512.00024 512" width="512pt" xmlns="http://www.w3.org/2000/svg"><path d="m123.585938 44.136719c0 24.378906-19.761719 44.140625-44.136719 44.140625-24.378907 0-44.136719-19.761719-44.136719-44.140625 0-24.375 19.757812-44.136719 44.136719-44.136719 24.375 0 44.136719 19.761719 44.136719 44.136719zm0 0" fill="#fdd7ad"/><path d="m158.898438 141.242188v52.964843c-.03125 9.738281-7.917969 17.625-17.65625 17.65625-9.722657-.074219-17.582032-7.9375-17.65625-17.65625v35.308594h-88.273438v-35.308594c-.03125 9.738281-7.917969 17.625-17.65625 17.65625-4.683594.023438-9.175781-1.855469-12.449219-5.210937-3.351562-3.269532-5.2304685-7.761719-5.207031-12.445313v-52.964843c0-14.625 11.855469-26.484376 26.484375-26.484376h105.929687c14.625 0 26.484376 11.859376 26.484376 26.484376zm0 0" fill="#e64c3c"/><g fill="#c03a2b"><path d="m123.585938 203.035156c-4.875 0-8.828126-3.953125-8.828126-8.828125v-44.136719c0-4.875 3.953126-8.828124 8.828126-8.828124s8.828124 3.953124 8.828124 8.828124v44.136719c0 4.875-3.953124 8.828125-8.828124 8.828125zm0 0"/><path d="m35.3125 203.035156c-4.878906 0-8.828125-3.953125-8.828125-8.828125v-44.136719c0-4.875 3.949219-8.828124 8.828125-8.828124 4.875 0 8.824219 3.953124 8.824219 8.828124v44.136719c0 4.875-3.949219 8.828125-8.824219 8.828125zm0 0"/><path d="m123.585938 203.035156c-4.875 0-8.828126-3.953125-8.828126-8.828125v-17.65625c0-4.875 3.953126-8.828125 8.828126-8.828125s8.828124 3.953125 8.828124 8.828125v17.65625c0 4.875-3.953124 8.828125-8.828124 8.828125zm0 0"/></g><path d="m123.585938 229.515625v83.863281c0 12.1875-9.878907 22.070313-22.070313 22.070313-12.1875 0-22.066406-9.882813-22.066406-22.070313 0 12.1875-9.882813 22.070313-22.070313 22.070313s-22.066406-9.882813-22.066406-22.070313v-83.863281zm0 0" fill="#35495e"/><path d="m35.3125 203.035156c-4.878906 0-8.828125-3.953125-8.828125-8.828125v-17.65625c0-4.875 3.949219-8.828125 8.828125-8.828125 4.875 0 8.824219 3.953125 8.824219 8.828125v17.65625c0 4.875-3.949219 8.828125-8.824219 8.828125zm0 0" fill="#c03a2b"/><path d="m282.484375 44.136719c0 24.378906-19.761719 44.140625-44.140625 44.140625-24.375 0-44.136719-19.761719-44.136719-44.140625 0-24.375 19.761719-44.136719 44.136719-44.136719 24.378906 0 44.140625 19.761719 44.140625 44.136719zm0 0" fill="#fdd7ad"/><path d="m317.792969 141.242188v52.964843c-.027344 9.738281-7.917969 17.625-17.65625 17.65625-9.71875-.074219-17.582031-7.9375-17.652344-17.65625v35.308594h-88.277344v-35.308594c-.027343 9.738281-7.917969 17.625-17.65625 17.65625-9.71875-.074219-17.582031-7.9375-17.652343-17.65625v-52.964843c0-14.625 11.855468-26.484376 26.480468-26.484376h105.933594c14.625 0 26.480469 11.859376 26.480469 26.484376zm0 0" fill="#e64c3c"/><path d="m282.484375 203.035156c-4.875 0-8.828125-3.953125-8.828125-8.828125v-44.136719c0-4.875 3.953125-8.828124 8.828125-8.828124s8.828125 3.953124 8.828125 8.828124v44.136719c0 4.875-3.953125 8.828125-8.828125 8.828125zm0 0" fill="#c03a2b"/><path d="m194.207031 203.035156c-4.875 0-8.828125-3.953125-8.828125-8.828125v-44.136719c0-4.875 3.953125-8.828124 8.828125-8.828124s8.828125 3.953124 8.828125 8.828124v44.136719c0 4.875-3.953125 8.828125-8.828125 8.828125zm0 0" fill="#c03a2b"/><path d="m282.484375 203.035156c-4.875 0-8.828125-3.953125-8.828125-8.828125v-17.65625c0-4.875 3.953125-8.828125 8.828125-8.828125s8.828125 3.953125 8.828125 8.828125v17.65625c0 4.875-3.953125 8.828125-8.828125 8.828125zm0 0" fill="#c03a2b"/><path d="m282.484375 229.515625v83.863281c0 12.1875-9.882813 22.070313-22.070313 22.070313s-22.070312-9.882813-22.070312-22.070313c0 12.1875-9.878906 22.070313-22.066406 22.070313-12.191406 0-22.070313-9.882813-22.070313-22.070313v-83.863281zm0 0" fill="#35495e"/><path d="m203.035156 97.105469c0 24.375-19.761718 44.136719-44.136718 44.136719-24.378907 0-44.140626-19.761719-44.140626-44.136719 0-24.378907 19.761719-44.140625 44.140626-44.140625 24.375 0 44.136718 19.761718 44.136718 44.140625zm0 0" fill="#fdd7ad"/><path d="m238.34375 185.378906v52.964844c-.027344 9.738281-7.914062 17.628906-17.652344 17.65625-9.722656-.070312-17.585937-7.933594-17.65625-17.65625v35.3125h-88.277344v-35.3125c-.027343 9.738281-7.914062 17.628906-17.652343 17.65625-9.722657-.070312-17.585938-7.933594-17.65625-17.65625v-52.964844c0-14.625 11.855469-26.480468 26.480469-26.480468h105.933593c14.625 0 26.480469 11.855468 26.480469 26.480468zm0 0" fill="#4fba6f"/><path d="m203.035156 247.171875c-4.875 0-8.828125-3.953125-8.828125-8.828125v-44.136719c0-4.875 3.953125-8.828125 8.828125-8.828125s8.828125 3.953125 8.828125 8.828125v44.136719c0 4.875-3.953125 8.828125-8.828125 8.828125zm0 0" fill="#24ae5f"/><path d="m114.757812 247.171875c-4.875 0-8.828124-3.953125-8.828124-8.828125v-44.136719c0-4.875 3.953124-8.828125 8.828124-8.828125s8.828126 3.953125 8.828126 8.828125v44.136719c0 4.875-3.953126 8.828125-8.828126 8.828125zm0 0" fill="#24ae5f"/><path d="m203.035156 247.171875c-4.875 0-8.828125-3.953125-8.828125-8.828125v-17.652344c0-4.878906 3.953125-8.828125 8.828125-8.828125s8.828125 3.949219 8.828125 8.828125v17.652344c0 4.875-3.953125 8.828125-8.828125 8.828125zm0 0" fill="#24ae5f"/><path d="m203.035156 273.65625v83.859375c0 12.191406-9.882812 22.070313-22.070312 22.070313s-22.066406-9.878907-22.066406-22.070313c0 12.191406-9.882813 22.070313-22.070313 22.070313s-22.070313-9.878907-22.070313-22.070313v-83.859375zm0 0" fill="#285680"/><path d="m158.898438 366.34375c-4.878907 0-8.828126-3.949219-8.828126-8.828125v-39.722656c0-4.875 3.949219-8.828125 8.828126-8.828125 4.875 0 8.824218 3.953125 8.824218 8.828125v39.722656c0 4.878906-3.949218 8.828125-8.824218 8.828125zm0 0" fill="#2c3e50"/><path d="m114.757812 247.171875c-4.875 0-8.828124-3.953125-8.828124-8.828125v-17.652344c0-4.878906 3.953124-8.828125 8.828124-8.828125s8.828126 3.949219 8.828126 8.828125v17.652344c0 4.875-3.953126 8.828125-8.828126 8.828125zm0 0" fill="#24ae5f"/><path d="m79.449219 322.207031c-4.875 0-8.828125-3.953125-8.828125-8.828125v-39.722656c0-4.875 3.953125-8.828125 8.828125-8.828125s8.828125 3.953125 8.828125 8.828125v39.722656c0 4.875-3.953125 8.828125-8.828125 8.828125zm0 0" fill="#2c3e50"/><path d="m238.34375 322.207031c-4.875 0-8.828125-3.953125-8.828125-8.828125v-39.722656c0-4.875 3.953125-8.828125 8.828125-8.828125s8.828125 3.953125 8.828125 8.828125v39.722656c0 4.875-3.953125 8.828125-8.828125 8.828125zm0 0" fill="#2c3e50"/><path d="m512 379.585938c0 73.128906-59.285156 132.414062-132.414062 132.414062-73.128907 0-132.414063-59.285156-132.414063-132.414062 0-73.128907 59.285156-132.414063 132.414063-132.414063 73.128906 0 132.414062 59.285156 132.414062 132.414063zm0 0" fill="#b0d3f0"/><path d="m459.035156 379.585938c0 14.625-11.855468 26.484374-26.484375 26.484374h-22.066406c-2.4375 0-4.414063 1.976563-4.414063 4.414063v22.066406c0 14.628907-11.859374 26.484375-26.484374 26.484375s-26.480469-11.855468-26.480469-26.484375v-22.066406c0-2.4375-1.976563-4.414063-4.414063-4.414063h-22.070312c-14.625 0-26.484375-11.859374-26.484375-26.484374s11.859375-26.480469 26.484375-26.480469h22.070312c2.4375 0 4.414063-1.976563 4.414063-4.414063v-22.070312c0-14.625 11.855469-26.484375 26.480469-26.484375s26.484374 11.859375 26.484374 26.484375v22.070312c0 2.4375 1.976563 4.414063 4.414063 4.414063h22.066406c14.628907 0 26.484375 11.855469 26.484375 26.480469zm0 0" fill="#4fba6f"/></svg>