<svg height="512pt" viewBox="0 -22 512 512" width="512pt" xmlns="http://www.w3.org/2000/svg"><path d="m289.101562 52.964844h-253.792968c-9.738282.03125-17.625 7.917968-17.652344 17.65625v317.792968h476.6875v-266.683593zm0 0" fill="#95a5a5"/><path d="m283.1875 88.277344h-221.394531c-4.875 0-8.828125 3.949218-8.828125 8.824218v291.3125h406.070312v-242.050781zm0 0" fill="#285680"/><path d="m304.179688 130.808594-23.984376 35.945312c-1.019531 1.53125-.984374 3.535156.089844 5.027344 1.074219 1.492188 2.964844 2.164062 4.738282 1.679688l70.886718-19.296876c.703125-.183593 1.441406-.183593 2.144532 0 12.820312 3.183594 25.980468 4.773438 39.1875 4.734376 63.382812 0 114.757812-35.578126 114.757812-79.449219 0-43.875-51.375-79.449219-114.757812-79.449219-63.382813 0-114.757813 35.574219-114.757813 79.449219.441406 17.488281 8.042969 34.027343 21.027344 45.753906 1.542969 1.460937 1.824219 3.816406.667969 5.605469zm0 0" fill="#b0d3f0"/><path d="m512 397.242188v35.308593c0 19.503907-15.808594 35.3125-35.308594 35.3125h-441.382812c-19.5 0-35.308594-15.808593-35.308594-35.3125v-35.308593c0-4.875 3.953125-8.828126 8.828125-8.828126h494.34375c4.875 0 8.828125 3.953126 8.828125 8.828126zm0 0" fill="#7f8c8d"/><g fill="#95a5a5"><path d="m315.710938 423.722656h-119.421876c-6.6875 0-12.800781-3.777344-15.792968-9.761718l-12.773438-25.546876h176.554688l-12.773438 25.546876c-2.992187 5.984374-9.105468 9.761718-15.792968 9.761718zm0 0"/><path d="m114.757812 423.722656c0 4.875-3.953124 8.828125-8.828124 8.828125h-105.929688v-17.652343h105.929688c4.875 0 8.828124 3.949218 8.828124 8.824218zm0 0"/><path d="m150.070312 432.550781h-8.828124c-4.875 0-8.828126-3.953125-8.828126-8.828125s3.953126-8.824218 8.828126-8.824218h8.828124c4.875 0 8.828126 3.949218 8.828126 8.824218s-3.953126 8.828125-8.828126 8.828125zm0 0"/><path d="m512 414.898438v17.652343h-105.929688c-4.875 0-8.828124-3.953125-8.828124-8.828125s3.953124-8.824218 8.828124-8.824218zm0 0"/><path d="m370.757812 432.550781h-8.828124c-4.875 0-8.828126-3.953125-8.828126-8.828125s3.953126-8.824218 8.828126-8.824218h8.828124c4.875 0 8.828126 3.949218 8.828126 8.824218s-3.953126 8.828125-8.828126 8.828125zm0 0"/></g><path d="m353.101562 79.449219c0 9.75-7.902343 17.652343-17.652343 17.652343s-17.65625-7.902343-17.65625-17.652343 7.90625-17.65625 17.65625-17.65625 17.652343 7.90625 17.652343 17.65625zm0 0" fill="#35495e"/><path d="m414.898438 79.449219c0 9.75-7.90625 17.652343-17.65625 17.652343s-17.65625-7.902343-17.65625-17.652343 7.90625-17.65625 17.65625-17.65625 17.65625 7.90625 17.65625 17.65625zm0 0" fill="#35495e"/><path d="m476.691406 79.449219c0 9.75-7.90625 17.652343-17.65625 17.652343s-17.65625-7.902343-17.65625-17.652343 7.90625-17.65625 17.65625-17.65625 17.65625 7.90625 17.65625 17.65625zm0 0" fill="#35495e"/><path d="m423.722656 229.515625h-88.273437c-4.875 0-8.828125-3.949219-8.828125-8.824219 0-4.878906 3.953125-8.828125 8.828125-8.828125h88.273437c4.875 0 8.828125 3.949219 8.828125 8.828125 0 4.875-3.953125 8.824219-8.828125 8.824219zm0 0" fill="#2c2f38"/><path d="m423.722656 264.828125h-88.273437c-4.875 0-8.828125-3.953125-8.828125-8.828125s3.953125-8.828125 8.828125-8.828125h88.273437c4.875 0 8.828125 3.953125 8.828125 8.828125s-3.953125 8.828125-8.828125 8.828125zm0 0" fill="#2c2f38"/><path d="m423.722656 300.136719h-88.273437c-4.875 0-8.828125-3.949219-8.828125-8.828125 0-4.875 3.953125-8.824219 8.828125-8.824219h88.273437c4.875 0 8.828125 3.949219 8.828125 8.824219 0 4.878906-3.953125 8.828125-8.828125 8.828125zm0 0" fill="#2c2f38"/><path d="m423.722656 335.449219h-88.273437c-4.875 0-8.828125-3.953125-8.828125-8.828125s3.953125-8.828125 8.828125-8.828125h88.273437c4.875 0 8.828125 3.953125 8.828125 8.828125s-3.953125 8.828125-8.828125 8.828125zm0 0" fill="#2c2f38"/><path d="m300.136719 317.792969c0 44.136719-105.929688 44.136719-105.929688 44.136719s-105.929687 0-105.929687-44.136719c-.964844-15.167969 3.824218-30.140625 13.417968-41.929688 13.285157-12.105469 30.414063-19.136719 48.375-19.863281 0 0 0 26.484375 44.136719 61.792969 44.136719-35.308594 44.136719-61.792969 44.136719-61.792969 17.960938.726562 35.089844 7.757812 48.375 19.863281 9.589844 11.789063 14.382812 26.761719 13.417969 41.929688zm0 0" fill="#4fba6f"/><path d="m238.34375 256s0 26.484375-44.136719 61.792969c-44.136719-35.308594-44.136719-61.792969-44.136719-61.792969s26.480469 17.65625 44.136719 17.65625 44.136719-17.65625 44.136719-17.65625zm0 0" fill="#e6e7e8"/><path d="m238.34375 256s-26.480469 17.65625-44.136719 17.65625-44.136719-17.65625-44.136719-17.65625c6.878907-9.5625 12.488282-19.976562 16.683594-30.984375h54.90625c4.195313 11.007813 9.804688 21.421875 16.683594 30.984375zm0 0" fill="#f09372"/><path d="m242.546875 169.488281c2.886719-2.246093 6.585937-3.183593 10.195313-2.585937 5.207031 1.394531 2.648437 14.125 2.648437 14.125-2.875 6.914062-8.992187 11.953125-16.332031 13.445312h-89.644532c-7.34375-1.503906-13.46875-6.535156-16.375-13.445312 0 0-2.558593-12.730469 2.695313-14.125 3.59375-.601563 7.28125.335937 10.148437 2.585937zm0 0" fill="#f09372"/><path d="m242.414062 145.65625c-1.765624-29.421875-44.753906-30.898438-44.753906-30.898438h-6.886718s-43.035157 1.476563-44.757813 30.898438c-1.71875 29.421875 3.445313 32.371094 3.445313 42.664062 0 10.292969-3.445313 19.128907 10.328124 29.421876 13.769532 10.292968 13.769532 20.601562 27.542969 20.601562h13.769531c13.769532 0 13.769532-10.300781 27.542969-20.59375 13.769531-10.292969 10.328125-19.128906 10.328125-29.421875s5.164063-13.25 3.441406-42.671875zm0 0" fill="#fdd7ad"/></svg>