<svg height="512pt" viewBox="-53 0 512 512.00049" width="512pt" xmlns="http://www.w3.org/2000/svg"><path d="m238.609375 433.171875c95.160156 3.265625 167.460937 19.507813 167.460937 39.105469 0 21.980468-90.925781 39.722656-203.035156 39.722656s-203.035156-17.742188-203.035156-39.722656c0-19.597656 72.296875-35.839844 167.460938-39.105469zm0 0" fill="#b49aca"/><path d="m203.035156 0c67.324219-.152344 129.421875 36.261719 162.15625 95.089844s30.945313 130.792968-4.671875 187.921875c-16.308593 23.375-34.152343 45.640625-53.40625 66.648437-18.714843 22.6875-37.519531 45.375-55.96875 68.238282l-34.425781 42.109374c-3.375 4.078126-8.390625 6.441407-13.683594 6.441407-5.292968 0-10.3125-2.363281-13.683594-6.441407l-34.425781-42.109374c-18.449219-22.863282-37.253906-45.550782-55.96875-68.238282-19.257812-21.007812-37.097656-43.273437-53.40625-66.648437-7.046875-11.285157-12.847656-23.300781-17.300781-35.839844-19.976562-56.738281-11.207031-119.636719 23.523438-168.75 34.726562-49.113281 91.109374-78.34375 151.261718-78.421875zm0 0" fill="#955ba5"/><path d="m353.105469 185.378906c0 82.882813-67.191407 150.070313-150.070313 150.070313-82.882812 0-150.070312-67.1875-150.070312-150.070313 0-82.878906 67.1875-150.066406 150.070312-150.066406 82.878906 0 150.070313 67.1875 150.070313 150.066406zm0 0" fill="#b0d3f0"/><path d="m307.640625 292.898438c-58.199219 56.730468-151.011719 56.730468-209.210937 0 1.460937-9.601563 5.660156-18.582032 12.09375-25.863282 13.285156-12.101562 30.414062-19.136718 48.375-19.863281 0 0 0 26.484375 44.136718 61.792969 44.136719-35.308594 44.136719-61.792969 44.136719-61.792969 17.960937.726563 35.089844 7.761719 48.375 19.863281 6.433594 7.28125 10.632813 16.261719 12.09375 25.863282zm0 0" fill="#285680"/><path d="m123.585938 109.152344c-3.640626.003906-6.910157-2.226563-8.234376-5.621094-1.324218-3.394531-.425781-7.25 2.257813-9.710938 21.921875-20.308593 50.460937-31.988281 80.332031-32.875 3.152344-.109374 6.125 1.472657 7.796875 4.152344 1.671875 2.675782 1.789063 6.039063.304688 8.824219-1.484375 2.789063-4.339844 4.570313-7.492188 4.679687-25.65625.765626-50.164062 10.800782-68.988281 28.246094-1.632812 1.492188-3.765625 2.3125-5.976562 2.304688zm0 0" fill="#ecf0f1"/><path d="m244.390625 74.609375c0 4.878906-3.949219 8.828125-8.828125 8.828125-4.875 0-8.824219-3.949219-8.824219-8.828125 0-4.875 3.949219-8.824219 8.824219-8.824219 4.878906 0 8.828125 3.949219 8.828125 8.824219zm0 0" fill="#ecf0f1"/><path d="m247.171875 247.171875s0 26.484375-44.136719 61.792969c-44.136718-35.308594-44.136718-61.792969-44.136718-61.792969s26.480468 17.65625 44.136718 17.65625 44.136719-17.65625 44.136719-17.65625zm0 0" fill="#e6e7e8"/><path d="m247.171875 247.171875s-26.480469 17.65625-44.136719 17.65625-44.136718-17.65625-44.136718-17.65625c7.320312-9.898437 13.09375-20.851563 17.125-32.484375h54.023437c4.027344 11.632812 9.804687 22.585938 17.125 32.484375zm0 0" fill="#f09372"/><path d="m251.375 150.070312c2.742188-2.539062 6.519531-3.640624 10.195312-2.976562 5.207032 1.617188 2.648438 16.304688 2.648438 16.304688-2.574219 7.535156-8.675781 13.332031-16.332031 15.519531h-89.644531c-7.660157-2.195313-13.769532-7.988281-16.375-15.519531 0 0-2.558594-14.6875 2.695312-16.304688 3.660156-.664062 7.425781.4375 10.148438 2.976562zm0 0" fill="#f09372"/><path d="m251.242188 130.207031c-1.765626-31.523437-44.757813-33.101562-44.757813-33.101562h-6.882813s-43.035156 1.578125-44.757812 33.101562c-1.71875 31.523438 3.445312 34.683594 3.445312 45.71875 0 11.035157-3.445312 20.488281 10.328126 31.523438 13.769531 11.035156 13.769531 22.070312 27.539062 22.070312h13.773438c13.769531 0 13.769531-11.035156 27.542968-22.070312 13.769532-11.035157 10.328125-20.488281 10.328125-31.523438 0-11.035156 5.164063-14.195312 3.441407-45.71875zm0 0" fill="#fdd7ad"/></svg>