<svg height="512pt" viewBox="-4 0 512 512" width="512pt" xmlns="http://www.w3.org/2000/svg"><path d="m90.511719 303.730469 112.8125 156.203125 112.8125-130.171875-15.792969-38.441407c-23.136719 7.554688-46.886719 13.074219-70.984375 16.488282h-34.710937c-23.5625-3.304688-46.789063-8.652344-69.425782-15.976563zm0 0" fill="#e6e7e8"/><path d="m353.539062 303.292969-14.75 184.0625c-41.519531 10.109375-84.054687 15.46875-126.785156 15.964843 0 0-212.003906 0-212.003906-88.339843 0-29.246094 5.902344-61.613281 26.902344-83.917969 22.648437-24.121094 64.476562-38.09375 96.757812-39.742188 0 0 0 40.351563 58.75 97.625 8.503906 8.332032 18.367188 17.011719 29.59375 26.035157 11.195313-9.023438 21.058594-17.703125 29.589844-26.035157 58.75-57.273437 58.75-97.625 58.75-97.625 18.253906 1.152344 36.210938 5.195313 53.195312 11.972657zm0 0" fill="#285680"/><path d="m494.644531 399.1875c-.082031 55.308594-43.441406 100.875-98.679687 103.703125-55.234375 2.824219-103.019532-38.085937-108.738282-93.097656-5.722656-55.011719 32.621094-104.878907 87.257813-113.480469 54.632813-8.601562 106.445313 27.070312 117.902344 81.179688 1.503906 7.132812 2.257812 14.402343 2.257812 21.695312zm0 0" fill="#90bae1"/><path d="m492.386719 377.492188c-101.097657-4.773438-150.039063 54.84375-172.167969 98.582031-33.175781-30.386719-43.082031-78.640625-24.570312-119.644531 18.515624-41 61.261718-65.476563 105.992187-60.6875 44.734375 4.789062 81.332031 37.757812 90.746094 81.75zm0 0" fill="#b0d3f0"/><path d="m307.027344 111.078125c5.238281-5.269531 12.742187-7.609375 20.046875-6.25 10.238281 3.386719 5.117187 34.191406 5.117187 34.191406-4.808594 15.402344-16.769531 27.527344-32.105468 32.542969h-176.164063c-15.347656-5.03125-27.328125-17.144531-32.195313-32.542969 0 0-5.035156-30.804687 5.292969-34.191406 7.277344-1.363281 14.757813.980469 19.960938 6.25zm0 0" fill="#f09372"/><path d="m265.113281 246.542969c1.441407 20.738281 15.410157 38.496093 35.230469 44.777343-23.136719 7.554688-46.886719 13.074219-70.984375 16.488282h-34.710937c-24.097657-3.414063-47.851563-8.933594-70.988282-16.488282 19.820313-6.28125 33.789063-24.039062 35.234375-44.777343zm0 0" fill="#f09372"/><path d="m241.59375 388.945312c-8.503906 8.332032-18.367188 17.011719-29.589844 26.035157-11.195312-9.023438-21.058594-17.703125-29.59375-26.035157l20.914063-50.503906h17.355469zm0 0" fill="#c03a2b"/><path d="m306.765625 69.421875c-3.382813-66.117187-87.992187-69.421875-87.992187-69.421875h-13.539063s-84.609375 3.304688-87.996094 69.421875c-3.382812 66.121094 6.769531 72.730469 6.769531 95.875s-6.769531 42.972656 20.308594 66.117187c27.074219 23.144532 27.074219 46.28125 54.148438 46.28125h27.074218c27.078126 0 27.078126-23.144531 54.152344-46.28125 27.074219-23.132812 20.304688-42.972656 20.304688-66.117187s10.15625-29.753906 6.769531-95.875zm0 0" fill="#fdd7ad"/><path d="m198.984375 303.730469h26.035156c2.394531 0 4.339844 1.941406 4.339844 4.335937v21.695313c0 9.585937-7.769531 17.355469-17.355469 17.355469-9.585937 0-17.355468-7.769532-17.355468-17.355469v-21.695313c0-2.394531 1.941406-4.335937 4.335937-4.335937zm0 0" fill="#e64c3c"/><g fill="#7f8c8d"><path d="m425.21875 407.863281h-34.710938c-4.792968 0-8.675781-3.882812-8.675781-8.675781v-52.070312c0-4.792969 3.882813-8.675782 8.675781-8.675782 4.792969 0 8.679688 3.882813 8.679688 8.675782v43.390624h26.03125c4.792969 0 8.679688 3.886719 8.679688 8.679688s-3.886719 8.675781-8.679688 8.675781zm0 0"/><path d="m390.507812 321.085938c-4.792968 0-8.675781-3.886719-8.675781-8.679688v-17.355469c0-4.792969 3.882813-8.679687 8.675781-8.679687 4.792969 0 8.679688 3.886718 8.679688 8.679687v17.355469c0 4.792969-3.886719 8.679688-8.679688 8.679688zm0 0"/><path d="m390.507812 512c-4.792968 0-8.675781-3.886719-8.675781-8.679688v-17.355468c0-4.792969 3.882813-8.675782 8.675781-8.675782 4.792969 0 8.679688 3.882813 8.679688 8.675782v17.355468c0 4.792969-3.886719 8.679688-8.679688 8.679688zm0 0"/><path d="m347.117188 332.714844c-3.101563 0-5.96875-1.652344-7.523438-4.339844l-8.675781-15.03125c-1.574219-2.6875-1.589844-6.011719-.039063-8.710938 1.550782-2.699218 4.429688-4.363281 7.542969-4.355468 3.113281.007812 5.984375 1.679687 7.523437 4.390625l8.679688 15.027343c1.550781 2.683594 1.550781 5.992188.003906 8.675782-1.550781 2.683594-4.410156 4.339844-7.511718 4.34375zm0 0"/><path d="m442.578125 498.046875c-3.105469.003906-5.972656-1.652344-7.527344-4.339844l-8.675781-15.03125c-2.359375-4.144531-.925781-9.417969 3.203125-11.804687 4.132813-2.382813 9.414063-.988282 11.828125 3.128906l8.675781 15.027344c1.550781 2.683594 1.550781 5.992187.003907 8.675781-1.550782 2.683594-4.410157 4.339844-7.507813 4.34375zm0 0"/><path d="m315.347656 364.472656c-1.523437 0-3.019531-.398437-4.339844-1.160156l-15.027343-8.679688c-2.707031-1.539062-4.382813-4.410156-4.390625-7.523437-.007813-3.113281 1.65625-5.992187 4.355468-7.542969 2.703126-1.550781 6.027344-1.539062 8.710938.039063l15.03125 8.675781c3.402344 1.964844 5.058594 5.96875 4.042969 9.761719s-4.453125 6.429687-8.382813 6.429687zm0 0"/><path d="m480.691406 459.933594c-1.523437 0-3.023437-.398438-4.339844-1.164063l-15.03125-8.679687c-2.707031-1.539063-4.382812-4.410156-4.386718-7.523438-.007813-3.113281 1.652344-5.992187 4.355468-7.542968 2.699219-1.550782 6.023438-1.539063 8.710938.039062l15.027344 8.675781c3.402344 1.964844 5.0625 5.96875 4.042968 9.761719-1.015624 3.792969-4.453124 6.433594-8.378906 6.433594zm0 0"/><path d="m303.730469 407.863281h-17.359375c-4.789063 0-8.675782-3.882812-8.675782-8.675781s3.886719-8.679688 8.675782-8.679688h17.359375c4.792969 0 8.675781 3.886719 8.675781 8.679688s-3.882812 8.675781-8.675781 8.675781zm0 0"/><path d="m494.644531 407.863281h-17.355469c-4.792968 0-8.679687-3.882812-8.679687-8.675781s3.886719-8.679688 8.679687-8.679688h17.355469c4.792969 0 8.675781 3.886719 8.675781 8.679688s-3.882812 8.675781-8.675781 8.675781zm0 0"/><path d="m300.335938 459.933594c-3.929688 0-7.367188-2.640625-8.382813-6.433594s.640625-7.796875 4.042969-9.761719l15.03125-8.675781c4.148437-2.359375 9.417968-.925781 11.804687 3.203125 2.382813 4.132813.988281 9.414063-3.128906 11.824219l-15.027344 8.679687c-1.320312.761719-2.816406 1.164063-4.339843 1.164063zm0 0"/><path d="m465.667969 364.472656c-3.925781 0-7.363281-2.636718-8.382813-6.429687-1.015625-3.792969.644532-7.796875 4.042969-9.761719l15.03125-8.675781c4.148437-2.359375 9.417969-.929688 11.804687 3.203125 2.386719 4.132812.988282 9.414062-3.125 11.824218l-15.03125 8.679688c-1.320312.761719-2.816406 1.164062-4.339843 1.160156zm0 0"/><path d="m338.441406 498.046875c-3.097656-.003906-5.960937-1.660156-7.507812-4.34375-1.550782-2.683594-1.546875-5.992187 0-8.675781l8.679687-15.027344c1.539063-2.707031 4.410157-4.382812 7.523438-4.390625s5.992187 1.65625 7.542969 4.355469c1.550781 2.699218 1.539062 6.023437-.039063 8.710937l-8.675781 15.03125c-1.550782 2.6875-4.421875 4.34375-7.523438 4.339844zm0 0"/><path d="m433.898438 332.714844c-3.097657-.003906-5.960938-1.660156-7.507813-4.34375-1.550781-2.683594-1.546875-5.992188 0-8.675782l8.679687-15.027343c1.539063-2.710938 4.410157-4.382813 7.523438-4.390625 3.113281-.007813 5.992188 1.65625 7.546875 4.355468 1.550781 2.699219 1.535156 6.023438-.039063 8.710938l-8.679687 15.03125c-1.550781 2.6875-4.421875 4.339844-7.523437 4.339844zm0 0"/></g><path d="m390.507812 512c-62.304687 0-112.8125-50.507812-112.8125-112.8125s50.507813-112.816406 112.8125-112.816406c62.304688 0 112.8125 50.511718 112.8125 112.816406-.066406 62.277344-50.535156 112.746094-112.8125 112.8125zm0-208.269531c-52.71875 0-95.457031 42.734375-95.457031 95.457031 0 52.71875 42.738281 95.457031 95.457031 95.457031s95.457032-42.738281 95.457032-95.457031c-.054688-52.695312-42.761719-95.402344-95.457032-95.457031zm0 0" fill="#464f5d"/></svg>