<svg height="512pt" viewBox="-18 0 512 512" width="512pt" xmlns="http://www.w3.org/2000/svg"><g fill="#2c3e50"><path d="m79.449219 185.378906c-4.875 0-8.828125-3.953125-8.828125-8.828125v-88.273437c0-14.628906 11.855468-26.484375 26.480468-26.484375h70.621094c4.875 0 8.828125 3.953125 8.828125 8.828125s-3.953125 8.828125-8.828125 8.828125h-70.621094c-4.875 0-8.824218 3.953125-8.824218 8.828125v88.273437c0 4.875-3.953125 8.828125-8.828125 8.828125zm0 0"/><path d="m397.242188 185.378906c-4.875 0-8.828126-3.953125-8.828126-8.828125v-88.273437c0-4.875-3.953124-8.828125-8.828124-8.828125h-70.621094c-4.875 0-8.828125-3.953125-8.828125-8.828125s3.953125-8.828125 8.828125-8.828125h70.621094c14.625 0 26.484374 11.855469 26.484374 26.484375v88.273437c0 4.875-3.953124 8.828125-8.828124 8.828125zm0 0"/><path d="m238.34375 185.378906c-4.875 0-8.828125-3.953125-8.828125-8.828125v-35.308593c0-4.875 3.953125-8.828126 8.828125-8.828126s8.828125 3.953126 8.828125 8.828126v35.308593c0 4.875-3.953125 8.828125-8.828125 8.828125zm0 0"/></g><path d="m123.585938 220.691406c0 24.375-19.761719 44.136719-44.136719 44.136719-24.378907 0-44.140625-19.761719-44.140625-44.136719 0-24.378906 19.761718-44.140625 44.140625-44.140625 24.375 0 44.136719 19.761719 44.136719 44.140625zm0 0" fill="#fdd7ad"/><path d="m158.898438 317.792969v52.964843c-.03125 9.738282-7.917969 17.625-17.65625 17.65625-9.722657-.074218-17.582032-7.933593-17.65625-17.65625v35.3125h-88.277344v-35.3125c-.027344 9.738282-7.914063 17.625-17.652344 17.65625-9.722656-.074218-17.5859375-7.933593-17.65625-17.65625v-52.964843c0-14.625 11.855469-26.484375 26.484375-26.484375h105.929687c14.625 0 26.484376 11.859375 26.484376 26.484375zm0 0" fill="#e64c3c"/><path d="m123.585938 370.757812c-4.515626.320313-8.453126-3.050781-8.828126-7.5625v-37.835937c.675782-4.351563 4.425782-7.5625 8.828126-7.5625 4.40625 0 8.152343 3.210937 8.828124 7.5625v37.835937c-.375 4.511719-4.308593 7.882813-8.828124 7.5625zm0 0" fill="#c03a2b"/><path d="m35.308594 370.757812c-4.515625.320313-8.449219-3.050781-8.824219-7.5625v-37.835937c.375-4.515625 4.308594-7.886719 8.824219-7.566406 4.519531-.320313 8.453125 3.050781 8.828125 7.566406v37.835937c-.375 4.511719-4.308594 7.882813-8.828125 7.5625zm0 0" fill="#c03a2b"/><path d="m123.585938 406.070312v83.859376c0 12.191406-9.878907 22.070312-22.070313 22.070312-12.1875 0-22.066406-9.878906-22.066406-22.070312 0 12.191406-9.882813 22.070312-22.070313 22.070312s-22.070312-9.878906-22.070312-22.070312v-83.859376zm0 0" fill="#35495e"/><path d="m79.449219 498.757812c-4.875 0-8.828125-3.953124-8.828125-8.828124v-48.550782c0-4.875 3.953125-8.828125 8.828125-8.828125s8.828125 3.953125 8.828125 8.828125v48.550782c0 4.875-3.953125 8.828124-8.828125 8.828124zm0 0" fill="#2c3e50"/><path d="m317.792969 317.792969v52.964843c-.027344 9.738282-7.917969 17.625-17.65625 17.65625-9.71875-.074218-17.582031-7.933593-17.652344-17.65625v35.3125h-88.277344v-35.3125c-.027343 9.738282-7.917969 17.625-17.65625 17.65625-9.71875-.074218-17.582031-7.933593-17.652343-17.65625v-52.964843c0-14.625 11.855468-26.484375 26.480468-26.484375h105.929688c14.628906 0 26.484375 11.859375 26.484375 26.484375zm0 0" fill="#285680"/><path d="m282.484375 370.757812c-4.519531.320313-8.453125-3.050781-8.828125-7.5625v-37.835937c.675781-4.351563 4.421875-7.5625 8.828125-7.5625 4.402344 0 8.148437 3.210937 8.824219 7.5625v37.835937c-.375 4.511719-4.308594 7.882813-8.824219 7.5625zm0 0" fill="#2c3e50"/><path d="m194.207031 370.757812c-4.515625.320313-8.453125-3.050781-8.828125-7.5625v-37.835937c.675782-4.351563 4.421875-7.5625 8.828125-7.5625 4.402344 0 8.152344 3.210937 8.828125 7.5625v37.835937c-.375 4.511719-4.3125 7.882813-8.828125 7.5625zm0 0" fill="#2c3e50"/><path d="m282.484375 406.070312v83.859376c0 12.191406-9.882813 22.070312-22.070313 22.070312s-22.070312-9.878906-22.070312-22.070312c0 12.191406-9.878906 22.070312-22.066406 22.070312-12.191406 0-22.070313-9.878906-22.070313-22.070312v-83.859376zm0 0" fill="#35495e"/><path d="m238.34375 498.757812c-4.875 0-8.828125-3.953124-8.828125-8.828124v-48.550782c0-4.875 3.953125-8.828125 8.828125-8.828125s8.828125 3.953125 8.828125 8.828125v48.550782c0 4.875-3.953125 8.828124-8.828125 8.828124zm0 0" fill="#2c3e50"/><path d="m441.378906 220.691406c0 24.375-19.761718 44.136719-44.136718 44.136719-24.378907 0-44.140626-19.761719-44.140626-44.136719 0-24.378906 19.761719-44.140625 44.140626-44.140625 24.375 0 44.136718 19.761719 44.136718 44.140625zm0 0" fill="#fdd7ad"/><path d="m282.484375 220.691406c0 24.375-19.761719 44.136719-44.140625 44.136719-24.375 0-44.136719-19.761719-44.136719-44.136719 0-24.378906 19.761719-44.140625 44.136719-44.140625 24.378906 0 44.140625 19.761719 44.140625 44.140625zm0 0" fill="#fdd7ad"/><path d="m476.691406 317.792969v52.964843c-.03125 9.738282-7.917968 17.625-17.65625 17.65625-9.722656-.074218-17.582031-7.933593-17.65625-17.65625v35.3125h-88.277344v-35.3125c-.027343 9.738282-7.914062 17.625-17.652343 17.65625-9.722657-.074218-17.585938-7.933593-17.65625-17.65625v-52.964843c0-14.625 11.855469-26.484375 26.484375-26.484375h105.929687c14.625 0 26.484375 11.859375 26.484375 26.484375zm0 0" fill="#e64c3c"/><path d="m441.378906 370.757812c-4.515625.320313-8.453125-3.050781-8.828125-7.5625v-37.835937c.675781-4.351563 4.425781-7.5625 8.828125-7.5625 4.40625 0 8.152344 3.210937 8.828125 7.5625v37.835937c-.375 4.511719-4.308593 7.882813-8.828125 7.5625zm0 0" fill="#c03a2b"/><path d="m353.101562 370.757812c-4.515624.320313-8.449218-3.050781-8.824218-7.5625v-37.835937c.675781-4.351563 4.421875-7.5625 8.824218-7.5625 4.40625 0 8.152344 3.210937 8.828126 7.5625v37.835937c-.375 4.511719-4.308594 7.882813-8.828126 7.5625zm0 0" fill="#c03a2b"/><path d="m441.378906 406.070312v83.859376c0 12.191406-9.878906 22.070312-22.070312 22.070312-12.1875 0-22.066406-9.878906-22.066406-22.070312 0 12.191406-9.882813 22.070312-22.070313 22.070312s-22.070313-9.878906-22.070313-22.070312v-83.859376zm0 0" fill="#35495e"/><path d="m397.242188 498.757812c-4.875 0-8.828126-3.953124-8.828126-8.828124v-48.550782c0-4.875 3.953126-8.828125 8.828126-8.828125s8.828124 3.953125 8.828124 8.828125v48.550782c0 4.875-3.953124 8.828124-8.828124 8.828124zm0 0" fill="#2c3e50"/><path d="m308.964844 70.621094c0 39.003906-31.617188 70.621094-70.621094 70.621094-39 0-70.621094-31.617188-70.621094-70.621094s31.621094-70.621094 70.621094-70.621094c39.003906 0 70.621094 31.617188 70.621094 70.621094zm0 0" fill="#e64c3c"/><path d="m273.65625 70.621094c0 19.5-15.808594 35.308594-35.3125 35.308594-19.5 0-35.308594-15.808594-35.308594-35.308594s15.808594-35.3125 35.308594-35.3125c19.503906 0 35.3125 15.8125 35.3125 35.3125zm0 0" fill="#e6e7e8"/><path d="m247.171875 70.621094c0 4.875-3.953125 8.828125-8.828125 8.828125s-8.828125-3.953125-8.828125-8.828125 3.953125-8.828125 8.828125-8.828125 8.828125 3.953125 8.828125 8.828125zm0 0" fill="#e64c3c"/></svg>