<svg height="503pt" viewBox="-1 0 503 503.32203" width="503pt" xmlns="http://www.w3.org/2000/svg"><path d="m90.671875 303.730469 112.8125 156.203125 112.816406-130.171875-15.796875-38.441407c-23.132812 7.554688-46.886718 13.074219-70.984375 16.488282h-34.710937c-23.5625-3.304688-46.789063-8.652344-69.425782-15.976563zm0 0" fill="#e6e7e8"/><path d="m307.1875 111.078125c5.238281-5.269531 12.742188-7.609375 20.046875-6.25 10.238281 3.386719 5.121094 34.191406 5.121094 34.191406-4.8125 15.402344-16.773438 27.527344-32.109375 32.542969h-176.164063c-15.34375-5.03125-27.328125-17.144531-32.195312-32.542969 0 0-5.03125-30.804687 5.292969-34.191406 7.277343-1.363281 14.757812.980469 19.960937 6.25zm0 0" fill="#f09372"/><path d="m353.703125 303.292969-14.753906 184.0625c-41.519531 10.109375-84.054688 15.46875-126.785157 15.964843 0 0-212.003906 0-212.003906-88.339843 0-29.246094 5.902344-61.613281 26.902344-83.917969 22.648438-24.121094 64.476562-38.09375 96.757812-39.742188 0 0 0 40.351563 58.75 97.625 8.507813 8.332032 18.371094 17.011719 29.59375 26.035157 11.195313-9.023438 21.058594-17.703125 29.589844-26.035157 58.75-57.273437 58.75-97.625 58.75-97.625 18.253906 1.152344 36.210938 5.195313 53.199219 11.972657zm0 0" fill="#285680"/><path d="m265.273438 246.542969c1.441406 20.738281 15.410156 38.496093 35.230468 44.777343-23.132812 7.554688-46.886718 13.074219-70.984375 16.488282h-34.710937c-24.097656-3.414063-47.851563-8.933594-70.988282-16.488282 19.820313-6.28125 33.792969-24.039062 35.234376-44.777343zm0 0" fill="#f09372"/><path d="m241.753906 388.945312c-8.503906 8.332032-18.367187 17.011719-29.589844 26.035157-11.195312-9.023438-21.058593-17.703125-29.59375-26.035157l20.914063-50.503906h17.355469zm0 0" fill="#c03a2b"/><path d="m306.925781 69.421875c-3.382812-66.117187-87.992187-69.421875-87.992187-69.421875h-13.539063s-84.609375 3.304688-87.996093 69.421875c-3.382813 66.121094 6.769531 72.730469 6.769531 95.875s-6.769531 42.972656 20.308593 66.117187c27.074219 23.144532 27.074219 46.28125 54.148438 46.28125h27.078125c27.074219 0 27.074219-23.144531 54.148437-46.28125 27.074219-23.132812 20.308594-42.972656 20.308594-66.117187s10.152344-29.753906 6.765625-95.875zm0 0" fill="#fdd7ad"/><path d="m199.148438 303.730469h26.03125c2.398437 0 4.339843 1.941406 4.339843 4.335937v21.695313c0 9.585937-7.769531 17.355469-17.355469 17.355469-9.585937 0-17.355468-7.769532-17.355468-17.355469v-21.695313c0-2.394531 1.941406-4.335937 4.339844-4.335937zm0 0" fill="#e64c3c"/><path d="m498.535156 399.1875c0 57.511719-46.621094 104.132812-104.132812 104.132812-57.515625 0-104.136719-46.621093-104.136719-104.132812s46.621094-104.136719 104.136719-104.136719c57.511718 0 104.132812 46.625 104.132812 104.136719zm0 0" fill="#e64c3c"/><path d="m455.148438 399.1875c0 33.546875-27.199219 60.746094-60.746094 60.746094-33.550782 0-60.746094-27.199219-60.746094-60.746094 0-33.550781 27.195312-60.746094 60.746094-60.746094 33.546875 0 60.746094 27.195313 60.746094 60.746094zm0 0" fill="#e6e7e8"/><path d="m420.433594 399.1875c0 14.378906-11.65625 26.03125-26.03125 26.03125-14.378906 0-26.035156-11.652344-26.035156-26.03125s11.65625-26.035156 26.035156-26.035156c14.375 0 26.03125 11.65625 26.03125 26.035156zm0 0" fill="#e64c3c"/><path d="m395.875 409.339844c-1.011719 0-2.015625-.179688-2.964844-.53125-2.167968-.78125-3.933594-2.394532-4.910156-4.480469-.980469-2.085937-1.085938-4.476563-.296875-6.644531l67.164063-184.492188c1.664062-4.476562 6.625-6.769531 11.109374-5.132812 4.484376 1.632812 6.808594 6.582031 5.199219 11.078125l-67.167969 184.492187c-1.246093 3.421875-4.492187 5.699219-8.132812 5.710938zm0 0" fill="#7f6e5d"/><path d="m439.300781 290.042969c-2.761719 0-5.359375-1.3125-6.996093-3.539063l-18.535157-25.210937c-1.875-2.496094-2.269531-5.804688-1.023437-8.671875 1.242187-2.863282 3.929687-4.839844 7.03125-5.171875 3.105468-.332031 6.148437 1.027343 7.972656 3.5625l15.109375 20.546875 24.773437-6.074219c3.035157-.789063 6.257813.117187 8.433594 2.371094 2.175782 2.253906 2.964844 5.507812 2.070313 8.511719-.894531 3-3.339844 5.285156-6.398438 5.980468l-30.371093 7.402344c-.675782.179688-1.367188.277344-2.066407.292969zm0 0" fill="#e64c3c"/><path d="m451.171875 257.421875c-2.761719 0-5.359375-1.3125-6.992187-3.539063l-18.539063-25.210937c-1.875-2.496094-2.265625-5.804687-1.023437-8.667969 1.242187-2.867187 3.929687-4.839844 7.03125-5.175781 3.105468-.332031 6.148437 1.027344 7.972656 3.5625l15.109375 20.546875 24.773437-6.074219c3.035156-.789062 6.257813.117188 8.433594 2.371094s2.96875 5.507813 2.070312 8.511719c-.894531 3-3.339843 5.289062-6.398437 5.980468l-30.371094 7.402344c-.675781.179688-1.367187.28125-2.066406.292969zm0 0" fill="#e6e7e8"/><path d="m463.042969 224.800781c-2.769531.019531-5.378907-1.285156-7.027344-3.511719l-18.539063-25.210937c-1.875-2.496094-2.265624-5.804687-1.023437-8.671875 1.242187-2.863281 3.929687-4.839844 7.035156-5.171875 3.101563-.332031 6.148438 1.027344 7.96875 3.5625l15.109375 20.546875 24.777344-6.074219c3.03125-.789062 6.253906.117188 8.429688 2.371094 2.175781 2.253906 2.96875 5.507813 2.070312 8.511719-.894531 3-3.339844 5.285156-6.398438 5.980468l-30.371093 7.402344c-.664063.167969-1.34375.257813-2.03125.265625zm0 0" fill="#e64c3c"/></svg>