<svg height="512pt" viewBox="0 -28 512 512" width="512pt" xmlns="http://www.w3.org/2000/svg"><g fill="#f0c419"><path d="m512 147.089844-221.308594 131.972656c-4.554687 2.730469-9.414062 4.921875-14.476562 6.53125-13.144532 4.238281-27.285156 4.238281-40.429688 0-5.0625-1.609375-9.921875-3.800781-14.476562-6.53125l-221.308594-131.972656 79.449219-49.34375 62.761719-38.929688 79.097656-49.082031c21.308594-12.980469 48.074218-12.980469 69.382812 0l79.097656 49.082031 62.761719 38.929688zm0 0"/><path d="m235.785156 285.59375-226.691406 163.929688c-5.773438-5.023438-9.0859375-12.296876-9.09375-19.949219v-282.484375l221.308594 131.972656c4.554687 2.730469 9.414062 4.921875 14.476562 6.53125zm0 0"/><path d="m502.90625 449.523438c-4.800781 4.234374-10.988281 6.558593-17.390625 6.53125h-459.03125c-6.402344.027343-12.589844-2.296876-17.390625-6.53125l226.691406-163.929688c13.144532 4.238281 27.285156 4.238281 40.429688 0zm0 0"/><path d="m512 147.089844v282.484375c-.007812 7.652343-3.320312 14.925781-9.09375 19.949219l-226.691406-163.929688c5.0625-1.609375 9.921875-3.800781 14.476562-6.53125zm0 0"/></g><path d="m512 147.089844-221.308594 131.972656c-4.554687 2.730469-9.414062 4.921875-14.476562 6.53125-13.144532 4.238281-27.285156 4.238281-40.429688 0-5.0625-1.609375-9.921875-3.800781-14.476562-6.53125l-221.308594-131.972656 79.449219-49.34375 62.761719-38.929688 79.097656-49.082031c21.308594-12.980469 48.074218-12.980469 69.382812 0l79.097656 49.082031 62.761719 38.929688zm0 0" fill="#f29c1f"/><path d="m235.785156 285.59375-226.691406 163.929688c-5.773438-5.023438-9.0859375-12.296876-9.09375-19.949219v-282.484375l79.449219 47.40625 141.859375 84.566406c4.554687 2.730469 9.414062 4.921875 14.476562 6.53125zm0 0" fill="#f0c419"/><path d="m502.90625 449.523438c-4.800781 4.234374-10.988281 6.558593-17.390625 6.53125h-459.03125c-6.402344.027343-12.589844-2.296876-17.390625-6.53125l226.691406-163.929688c13.144532 4.238281 27.285156 4.238281 40.429688 0zm0 0" fill="#f3d55b"/><path d="m432.550781 76.46875v118.027344l-141.859375 84.566406c-4.554687 2.730469-9.414062 4.921875-14.476562 6.53125-13.144532 4.238281-27.285156 4.238281-40.429688 0-5.0625-1.609375-9.921875-3.800781-14.476562-6.53125l-141.859375-84.566406v-118.027344c.027343-9.738281 7.914062-17.625 17.652343-17.652344h317.796876c9.738281.027344 17.625 7.914063 17.652343 17.652344zm0 0" fill="#e6e7e8"/><path d="m308.964844 94.125h70.621094c9.75 0 17.65625 7.90625 17.65625 17.65625v8.828125c0 9.75-7.90625 17.652344-17.65625 17.652344h-70.621094c-9.75 0-17.65625-7.902344-17.65625-17.652344v-8.828125c0-9.75 7.90625-17.65625 17.65625-17.65625zm0 0" fill="#90bae1"/><path d="m379.585938 182.402344h-70.621094c-4.875 0-8.828125-3.953125-8.828125-8.828125s3.953125-8.828125 8.828125-8.828125h70.621094c4.875 0 8.828124 3.953125 8.828124 8.828125s-3.953124 8.828125-8.828124 8.828125zm0 0" fill="#35495e"/><path d="m379.585938 217.710938h-70.621094c-4.875 0-8.828125-3.953126-8.828125-8.828126s3.953125-8.828124 8.828125-8.828124h70.621094c4.875 0 8.828124 3.953124 8.828124 8.828124s-3.953124 8.828126-8.828124 8.828126zm0 0" fill="#35495e"/><path d="m349.132812 253.023438h-40.167968c-4.875 0-8.828125-3.953126-8.828125-8.828126s3.953125-8.828124 8.828125-8.828124h40.167968c4.875 0 8.824219 3.953124 8.824219 8.828124s-3.949219 8.828126-8.824219 8.828126zm0 0" fill="#35495e"/><path d="m35.308594 244.195312c-4.875 0-8.824219-3.953124-8.824219-8.828124v-17.65625c0-4.875 3.949219-8.828126 8.824219-8.828126 4.878906 0 8.828125 3.953126 8.828125 8.828126v17.65625c0 4.875-3.949219 8.828124-8.828125 8.828124zm0 0" fill="#f3d55b"/><path d="m35.308594 367.78125c-4.875 0-8.824219-3.953125-8.824219-8.828125v-88.277344c0-4.875 3.949219-8.828125 8.824219-8.828125 4.878906 0 8.828125 3.953125 8.828125 8.828125v88.277344c0 4.875-3.949219 8.828125-8.828125 8.828125zm0 0" fill="#f3d55b"/><path d="m512 147.089844v282.484375c-.007812 7.652343-3.320312 14.925781-9.09375 19.949219l-226.691406-163.929688c5.0625-1.609375 9.921875-3.800781 14.476562-6.53125l141.859375-84.566406zm0 0" fill="#f0c419"/><path d="m256 173.574219c0 39.003906-31.617188 70.621093-70.621094 70.621093s-70.621094-31.617187-70.621094-70.621093c0-39.003907 31.617188-70.621094 70.621094-70.621094 18.75-.0625 36.75 7.355469 50.007813 20.613281 13.257812 13.257813 20.675781 31.257813 20.613281 50.007813zm0 0" fill="#b49aca"/><path d="m211.863281 155.917969c0 14.625-11.859375 26.484375-26.484375 26.484375s-26.480468-11.859375-26.480468-26.484375 11.855468-26.480469 26.480468-26.480469 26.484375 11.855469 26.484375 26.480469zm0 0" fill="#fdd7ad"/><path d="m240.90625 217.183594c-11.476562 14.613281-28.261719 24.101562-46.699219 26.394531-5.855469.820313-11.800781.820313-17.65625 0-18.4375-2.292969-35.222656-11.78125-46.695312-26.394531 10.316406-21.273438 31.882812-34.78125 55.523437-34.78125 23.644532 0 45.207032 13.507812 55.527344 34.78125zm0 0" fill="#e64c3c"/><path d="m194.207031 217.710938v25.867187c-5.855469.820313-11.800781.820313-17.65625 0v-25.867187c0-4.875 3.953125-8.828126 8.828125-8.828126s8.828125 3.953126 8.828125 8.828126zm0 0" fill="#802f34"/></svg>