<svg height="511pt" viewBox="0 0 511 511.98675" width="511pt" xmlns="http://www.w3.org/2000/svg"><path d="m365.589844 323.230469 23.382812 21.476562 111.546875 103.097657c10 9.1875 14.15625 23.117187 10.828125 36.28125-3.328125 13.164062-13.609375 23.441406-26.773437 26.773437-13.164063 3.328125-27.09375-.828125-36.277344-10.828125l-103.097656-111.546875-21.480469-23.382813" fill="#e64c3c"/><path d="m388.992188 344.71875c-4.890626 21.839844-21.945313 38.894531-43.785157 43.785156l-21.453125-23.394531-.085937-.089844c15.984375-11.746093 30.09375-25.855469 41.84375-41.839843l.085937.085937zm0 0" fill="#d1d4d1"/><path d="m346.160156 59.308594c79.078125 79.074218 79.078125 207.28125 0 286.359375-79.074218 79.074219-207.285156 79.074219-286.359375 0-79.078125-79.078125-79.078125-207.285157 0-286.359375 79.074219-79.078125 207.285157-79.078125 286.359375 0zm0 0" fill="#e6e7e8"/><path d="m370.1875 202.503906c.03125 67.230469-40.226562 127.929688-102.167969 154.054688-61.945312 26.128906-133.515625 12.59375-181.636719-34.351563-.53125-.441406-1.058593-.972656-1.589843-1.5-45.652344-45.695312-60.910157-113.597656-39.191407-174.429687 21.71875-60.832032 76.527344-103.71875 140.796876-110.171875 5.472656-.53125 11.035156-.796875 16.597656-.796875 44.355468-.050782 86.914062 17.546875 118.28125 48.914062 31.363281 31.367188 48.964844 73.921875 48.910156 118.28125zm0 0" fill="#90bae1"/><path d="m362.066406 150.863281c-162.867187 13.328125-241.167968 108.136719-275.683594 171.34375-.53125-.441406-1.058593-.972656-1.589843-1.5-45.652344-45.695312-60.910157-113.597656-39.191407-174.429687 21.71875-60.832032 76.527344-103.71875 140.796876-110.171875 5.472656-.53125 11.035156-.796875 16.597656-.796875 72.429687.078125 136.605468 46.699218 159.070312 115.554687zm0 0" fill="#b0d3f0"/><path d="m116.21875 116.4375c-3.640625.003906-6.910156-2.230469-8.234375-5.625-1.324219-3.390625-.425781-7.25 2.257813-9.710938 23.851562-22.089843 54.898437-34.800781 87.394531-35.777343 3.152343-.109375 6.125 1.472656 7.796875 4.148437 1.671875 2.679688 1.785156 6.042969.304687 8.828125-1.484375 2.785157-4.339843 4.570313-7.492187 4.679688-28.292969.839843-55.320313 11.902343-76.085938 31.132812-1.621094 1.488281-3.742187 2.316407-5.941406 2.324219zm0 0" fill="#ecf0f1"/><path d="m208.644531 339.683594c-3.15625.066406-6.101562-1.558594-7.734375-4.257813-1.632812-2.699219-1.699218-6.066406-.175781-8.828125 1.523437-2.761718 4.402344-4.503906 7.554687-4.566406 28.253907-1.167969 55.164063-12.355469 75.917969-31.558594 2.316407-2.144531 5.601563-2.890625 8.617188-1.957031s5.304687 3.40625 6.003906 6.484375-.296875 6.292969-2.613281 8.441406c-23.847656 22.035156-54.757813 34.867188-87.199219 36.191406zm0 0" fill="#ecf0f1"/><g fill="#35495e"><path d="m110.835938 256c-17.066407 0-30.898438-13.832031-30.898438-30.898438 0-4.875 3.953125-8.824218 8.828125-8.824218s8.828125 3.949218 8.828125 8.824218c0 7.316407 5.925781 13.242188 13.242188 13.242188 7.3125 0 13.238281-5.925781 13.238281-13.242188v-66.203124c0-4.878907 3.953125-8.828126 8.828125-8.828126s8.828125 3.949219 8.828125 8.828126v66.203124c0 17.066407-13.832031 30.898438-30.894531 30.898438zm0 0"/><path d="m159.386719 167.722656h-52.964844c-4.875 0-8.828125-3.949218-8.828125-8.824218 0-4.878907 3.953125-8.828126 8.828125-8.828126h52.964844c4.875 0 8.828125 3.949219 8.828125 8.828126 0 4.875-3.953125 8.824218-8.828125 8.824218zm0 0"/><path d="m203.523438 256c-19.5 0-35.308594-15.808594-35.308594-35.308594v-35.3125c0-19.5 15.808594-35.308594 35.308594-35.308594s35.3125 15.808594 35.3125 35.308594v35.3125c0 19.5-15.8125 35.308594-35.3125 35.308594zm0-88.277344c-9.75 0-17.65625 7.90625-17.65625 17.65625v35.3125c0 9.75 7.90625 17.652344 17.65625 17.652344s17.65625-7.902344 17.65625-17.652344v-35.3125c0-9.75-7.90625-17.65625-17.65625-17.65625zm0 0"/><path d="m287.386719 256h-22.070313c-9.75 0-17.65625-7.90625-17.65625-17.65625v-35.308594c0-4.875 3.953125-8.828125 8.828125-8.828125h30.898438c17.0625 0 30.894531 13.832031 30.894531 30.894531 0 17.066407-13.832031 30.898438-30.894531 30.898438zm-22.070313-44.136719v26.480469h22.070313c7.3125 0 13.242187-5.925781 13.242187-13.242188 0-7.3125-5.929687-13.238281-13.242187-13.238281zm0 0"/><path d="m287.386719 211.863281h-30.898438c-4.875 0-8.828125-3.953125-8.828125-8.828125v-35.3125c0-9.75 7.90625-17.652344 17.65625-17.652344h22.070313c17.0625 0 30.894531 13.832032 30.894531 30.894532s-13.832031 30.898437-30.894531 30.898437zm-22.070313-17.65625h22.070313c7.3125 0 13.242187-5.929687 13.242187-13.242187s-5.929687-13.242188-13.242187-13.242188h-22.070313zm0 0"/></g><path d="m247.660156 79.449219c0 4.875-3.949218 8.828125-8.824218 8.828125-4.878907 0-8.828126-3.953125-8.828126-8.828125s3.949219-8.828125 8.828126-8.828125c4.875 0 8.824218 3.953125 8.824218 8.828125zm0 0" fill="#ecf0f1"/></svg>