<svg height="512pt" viewBox="-18 0 512 512.00948" width="512pt" xmlns="http://www.w3.org/2000/svg"><path d="m306.675781 167.734375c-11.5-16.632813-30.453125-26.535156-50.671875-26.484375h-35.308594c-20.222656-.050781-39.171874 9.851562-50.671874 26.484375l-2.292969 79.449219h132.414062zm0 0" fill="#955ba5"/><path d="m147.777344 167.734375c-11.5-16.632813-30.449219-26.535156-50.667969-26.484375h-35.3125c-34.125 0-61.79296875 27.667969-61.79296875 61.792969v26.484375c.03124995 9.738281 7.91796875 17.625 17.65624975 17.65625h61.792969zm0 0" fill="#955ba5"/><path d="m397.246094 247.183594h61.792968c9.738282-.03125 17.625-7.917969 17.65625-17.65625v-26.484375c0-34.125-27.667968-61.792969-61.792968-61.792969h-35.3125c-20.21875-.050781-39.167969 9.851562-50.667969 26.484375zm0 0" fill="#955ba5"/><path d="m129.417969 35.496094c-9.03125-25.824219-36.242188-40.523438-62.789063-33.914063-26.546875 6.605469-43.695312 32.34375-39.566406 59.386719 4.125 27.046875 28.171875 46.496094 55.480469 44.882812 9.453125-.480468 18.585937-3.566406 26.394531-8.914062zm0 0" fill="#f09372"/><path d="m288.3125 35.496094c-7.40625-21.253906-27.453125-35.496094-49.964844-35.496094-22.507812 0-42.554687 14.242188-49.960937 35.496094l20.480469 61.441406c9.574218 6.484375 21.027343 9.617188 32.570312 8.914062 9.453125-.480468 18.589844-3.566406 26.394531-8.914062zm0 0" fill="#f09372"/><path d="m367.761719 96.9375c9.578125 6.484375 21.03125 9.617188 32.574219 8.914062 26.527343-1.53125 47.8125-22.480468 49.765624-48.980468 1.957032-26.5-16.027343-50.34375-42.042968-55.753906-26.011719-5.40625-52.007813 9.296874-60.777344 34.378906zm0 0" fill="#f09372"/><path d="m211.773438 76.371094c1.710937 29.199218-20.574219 54.261718-49.777344 55.96875-29.203125 1.710937-54.261719-20.574219-55.972656-49.777344-1.707032-29.199219 20.578124-54.261719 49.78125-55.96875 29.199218-1.710938 54.257812 20.574219 55.96875 49.777344zm0 0" fill="#fdd7ad"/><path d="m370.671875 76.367188c1.710937 29.199218-20.574219 54.261718-49.777344 55.96875-29.203125 1.710937-54.261719-20.574219-55.972656-49.777344-1.707031-29.199219 20.578125-54.261719 49.78125-55.972656 29.199219-1.707032 54.257813 20.578124 55.96875 49.78125zm0 0" fill="#fdd7ad"/><path d="m300.144531 167.734375h35.308594c34.128906 0 61.792969 27.664063 61.792969 61.792969v26.480468c0 9.753907-7.90625 17.65625-17.65625 17.65625h-123.585938c-9.75 0-17.65625-7.902343-17.65625-17.65625v-26.480468c0-34.128906 27.667969-61.792969 61.796875-61.792969zm0 0" fill="#4fba6f"/><path d="m185.382812 273.664062h35.3125c9.738282-.027343 17.625-7.914062 17.652344-17.65625v-26.480468c0-34.128906-27.664062-61.792969-61.792968-61.792969h-35.308594c-34.128906 0-61.792969 27.664063-61.792969 61.792969v26.480468c.027344 9.742188 7.917969 17.628907 17.65625 17.65625zm0 0" fill="#4fba6f"/><path d="m218.488281 512.007812c-24.886719.007813-48.253906-11.984374-62.757812-32.210937-14.332031-20.753906-30.320313-40.3125-47.808594-58.492187l-20.699219-20.699219c-8.636718-8.257813-9.527344-21.746094-2.050781-31.0625 4.195313-4.847657 10.292969-7.625 16.703125-7.601563 5.835938-.035156 11.4375 2.289063 15.535156 6.441406l8.765625 8.769532c2.527344 2.523437 6.324219 3.277344 9.621094 1.910156s5.449219-4.582031 5.449219-8.152344v-135.558594c-.316406-11.949218 8.570312-22.152343 20.453125-23.480468 6.128906-.449219 12.164062 1.675781 16.660156 5.863281s7.042969 10.0625 7.023437 16.207031v88.273438c0-12.1875 9.882813-22.066406 22.070313-22.066406s22.070313 9.878906 22.070313 22.066406v8.828125c0-12.1875 9.878906-22.066407 22.066406-22.066407 12.191406 0 22.070312 9.878907 22.070312 22.066407v8.828125c0-12.1875 9.878906-22.070313 22.070313-22.070313 12.1875 0 22.066406 9.882813 22.066406 22.070313v94.898437c0 20.484375-8.136719 40.132813-22.621094 54.617188-14.488281 14.484375-34.132812 22.621093-54.621093 22.621093zm0 0" fill="#fdd7ad"/><g fill="#f09372"><path d="m247.175781 485.527344h-35.308593c-4.875 0-8.828126-3.953125-8.828126-8.828125s3.953126-8.828125 8.828126-8.828125h35.308593c4.875 0 8.828125 3.953125 8.828125 8.828125s-3.953125 8.828125-8.828125 8.828125zm0 0"/><path d="m185.382812 388.421875c-4.875 0-8.828124-3.949219-8.828124-8.828125v-44.136719c0-4.875 3.953124-8.828125 8.828124-8.828125s8.828126 3.953125 8.828126 8.828125v44.136719c0 4.878906-3.953126 8.828125-8.828126 8.828125zm0 0"/><path d="m229.523438 388.421875c-4.875 0-8.828126-3.949219-8.828126-8.828125v-44.136719c0-4.875 3.953126-8.828125 8.828126-8.828125s8.824218 3.953125 8.824218 8.828125v44.136719c0 4.878906-3.949218 8.828125-8.824218 8.828125zm0 0"/><path d="m273.660156 388.421875c-4.875 0-8.828125-3.949219-8.828125-8.828125v-35.308594c0-4.875 3.953125-8.828125 8.828125-8.828125s8.828125 3.953125 8.828125 8.828125v35.308594c0 4.878906-3.953125 8.828125-8.828125 8.828125zm0 0"/></g></svg>