<svg height="511pt" viewBox="-4 0 511 511.98218" width="511pt" xmlns="http://www.w3.org/2000/svg"><path d="m252.152344 511.980469c-4.792969 0-8.679688-3.882813-8.679688-8.675781v-173.558594c0-4.792969 3.886719-8.679688 8.679688-8.679688 4.792968 0 8.675781 3.886719 8.675781 8.679688v173.558594c0 4.792968-3.882813 8.675781-8.675781 8.675781zm0 0" fill="#a5a5a4"/><path d="m382.320312 308.050781c.019532 5.757813-2.261718 11.289063-6.332031 15.359375-4.074219 4.074219-9.601562 6.351563-15.363281 6.335938h-216.949219c-11.980469 0-21.691406-9.714844-21.691406-21.695313 0-11.984375 9.710937-21.695312 21.691406-21.695312h216.949219c11.984375 0 21.695312 9.710937 21.695312 21.695312zm0 0" fill="#35495e"/><path d="m43.882812 503.304688c-9.585937 0-17.359374-7.769532-17.359374-17.355469v-86.78125h34.714843v86.78125c0 9.585937-7.773437 17.355469-17.355469 17.355469zm0 0" fill="#d1d4d1"/><path d="m113.304688 503.304688c-9.585938 0-17.355469-7.769532-17.355469-17.355469v-86.78125h34.710937v86.78125c0 9.585937-7.769531 17.355469-17.355468 17.355469zm0 0" fill="#d1d4d1"/><path d="m104.625 147.507812c0 23.964844-19.425781 43.390626-43.386719 43.390626-23.964843 0-43.390625-19.425782-43.390625-43.390626 0-23.964843 19.425782-43.390624 43.390625-43.390624 23.960938 0 43.386719 19.425781 43.386719 43.390624zm0 0" fill="#fdd7ad"/><path d="m217.441406 347.101562v137.890626c.171875 9.222656-6.644531 17.085937-15.796875 18.226562-4.84375.410156-9.640625-1.21875-13.234375-4.5-3.589844-3.277344-5.652344-7.90625-5.683594-12.769531v-104.136719c-.027343-9.574219-7.78125-17.328125-17.355468-17.355469h-95.457032c-19.171874 0-34.710937-15.542969-34.710937-34.710937v-111.339844c-.300781-14.019531 10.183594-25.933594 24.125-27.421875 7.214844-.53125 14.324219 1.964844 19.625 6.886719s8.3125 11.828125 8.316406 19.058594v86.78125c.03125 9.574218 7.785157 17.328124 17.355469 17.355468h21.695312c4.089844 5.472656 10.527344 8.691406 17.355469 8.679688h67.082031c4.3125 4.75 6.695313 10.9375 6.683594 17.355468zm0 0" fill="#e64c3c"/><path d="m148.015625 381.8125c-.027344 9.574219-7.78125 17.328125-17.355469 17.355469h-95.457031c-19.171875 0-34.710937-15.539063-34.710937-34.710938v-130.167969c.027343-9.574218 7.78125-17.328124 17.355468-17.359374 4.605469-.023438 9.019532 1.824218 12.234375 5.121093 3.296875 3.214844 5.144531 7.632813 5.121094 12.238281v95.457032c0 19.167968 15.539063 34.710937 34.710937 34.710937h60.746094c9.574219.027344 17.328125 7.78125 17.355469 17.355469zm0 0" fill="#35495e"/><path d="m443.066406 399.167969h34.710938v86.78125c0 9.585937-7.769532 17.355469-17.355469 17.355469s-17.355469-7.769532-17.355469-17.355469zm0 0" fill="#d1d4d1"/><path d="m373.644531 399.167969h34.710938v86.78125c0 9.585937-7.769531 17.355469-17.355469 17.355469s-17.355469-7.769532-17.355469-17.355469zm0 0" fill="#d1d4d1"/><path d="m486.457031 147.507812c0 23.964844-19.425781 43.390626-43.390625 43.390626-23.960937 0-43.390625-19.425782-43.390625-43.390626 0-23.964843 19.429688-43.390624 43.390625-43.390624 23.964844 0 43.390625 19.425781 43.390625 43.390624zm0 0" fill="#fdd7ad"/><path d="m469.101562 218.40625v111.339844c0 19.167968-15.542968 34.710937-34.710937 34.710937h-95.457031c-9.574219.027344-17.328125 7.78125-17.359375 17.355469v104.136719c-.03125 4.863281-2.089844 9.492187-5.679688 12.769531-3.59375 3.28125-8.390625 4.910156-13.238281 4.5-9.148438-1.140625-15.964844-9.003906-15.792969-18.226562v-137.890626c-.015625-6.417968 2.371094-12.605468 6.683594-17.355468h67.078125c6.832031.011718 13.269531-3.207032 17.359375-8.679688h21.691406c9.574219-.027344 17.328125-7.78125 17.359375-17.355468v-86.78125c.003906-7.230469 3.015625-14.136719 8.316406-19.058594 5.300782-4.921875 12.410157-7.417969 19.625-6.886719 13.941407 1.488281 24.425782 13.402344 24.125 27.421875zm0 0" fill="#955ba5"/><path d="m503.8125 234.289062v130.167969c0 19.171875-15.539062 34.710938-34.710938 34.710938h-95.457031c-9.585937 0-17.355469-7.769531-17.355469-17.355469s7.769532-17.355469 17.355469-17.355469h60.746094c19.167969 0 34.710937-15.542969 34.710937-34.710937v-95.457032c.070313-9.558593 7.800782-17.285156 17.355469-17.359374 9.574219.03125 17.328125 7.785156 17.355469 17.359374zm0 0" fill="#35495e"/><path d="m382.320312 50.488281-118.53125 118.550781c-15.40625 15.40625-40.382812 15.40625-55.789062 0l-48.816406-48.816406c-11.550782-11.550781-11.550782-30.28125 0-41.835937 11.554687-11.550781 30.285156-11.550781 41.839844 0l27.890624 27.890625c1.847657 1.851562 4.355469 2.890625 6.972657 2.890625 2.613281 0 5.121093-1.039063 6.972656-2.890625l97.632813-97.617188c11.554687-11.546875 30.277343-11.546875 41.828124 0 11.546876 11.550782 11.546876 30.277344 0 41.828125zm0 0" fill="#24ae5f"/></svg>