<svg height="512pt" viewBox="0 0 512 512" width="512pt" xmlns="http://www.w3.org/2000/svg"><path d="m35.308594 0h441.382812c19.5 0 35.308594 15.808594 35.308594 35.308594v441.382812c0 19.5-15.808594 35.308594-35.308594 35.308594h-441.382812c-19.5 0-35.308594-15.808594-35.308594-35.308594v-441.382812c0-19.5 15.808594-35.308594 35.308594-35.308594zm0 0" fill="#b0d3f0"/><path d="m512 35.308594v35.3125h-512v-35.3125c0-19.5 15.808594-35.308594 35.308594-35.308594h441.382812c19.5 0 35.308594 15.808594 35.308594 35.308594zm0 0" fill="#285680"/><path d="m128 203.035156c-17.0625 0-30.898438-13.832031-30.898438-30.898437 0-4.875 3.953126-8.828125 8.828126-8.828125s8.828124 3.953125 8.828124 8.828125c0 7.3125 5.929688 13.242187 13.242188 13.242187s13.242188-5.929687 13.242188-13.242187v-66.207031c0-4.875 3.953124-8.828126 8.828124-8.828126s8.828126 3.953126 8.828126 8.828126v66.207031c0 17.066406-13.835938 30.898437-30.898438 30.898437zm0 0" fill="#894b9d"/><path d="m176.550781 114.757812h-52.964843c-4.875 0-8.828126-3.953124-8.828126-8.828124s3.953126-8.828126 8.828126-8.828126h52.964843c4.875 0 8.828125 3.953126 8.828125 8.828126s-3.953125 8.828124-8.828125 8.828124zm0 0" fill="#894b9d"/><path d="m220.691406 203.035156c-19.503906 0-35.3125-15.808594-35.3125-35.3125v-35.308594c0-19.5 15.808594-35.3125 35.3125-35.3125 19.5 0 35.308594 15.8125 35.308594 35.3125v35.308594c0 19.503906-15.808594 35.3125-35.308594 35.3125zm0-88.277344c-9.753906 0-17.65625 7.90625-17.65625 17.65625v35.308594c0 9.753906 7.902344 17.65625 17.65625 17.65625 9.75 0 17.652344-7.902344 17.652344-17.65625v-35.308594c0-9.75-7.902344-17.65625-17.652344-17.65625zm0 0" fill="#894b9d"/><path d="m304.550781 203.035156h-22.066406c-9.753906 0-17.65625-7.90625-17.65625-17.65625v-35.308594c0-4.875 3.953125-8.828124 8.828125-8.828124h30.894531c17.066407 0 30.898438 13.832031 30.898438 30.894531 0 17.066406-13.832031 30.898437-30.898438 30.898437zm-22.066406-44.136718v26.480468h22.066406c7.3125 0 13.242188-5.929687 13.242188-13.242187s-5.929688-13.238281-13.242188-13.238281zm0 0" fill="#894b9d"/><path d="m304.550781 158.898438h-30.894531c-4.875 0-8.828125-3.953126-8.828125-8.828126v-35.3125c0-9.75 7.902344-17.65625 17.65625-17.65625h22.066406c17.066407 0 30.898438 13.835938 30.898438 30.898438s-13.832031 30.898438-30.898438 30.898438zm-22.066406-17.65625h22.066406c7.3125 0 13.242188-5.929688 13.242188-13.242188s-5.929688-13.242188-13.242188-13.242188h-22.066406zm0 0" fill="#894b9d"/><path d="m384 203.035156h-13.242188c-14.320312-.710937-25.773437-12.160156-26.480468-26.484375 0-4.875 3.949218-8.828125 8.824218-8.828125 4.878907 0 8.828126 3.953125 8.828126 8.828125.632812 4.589844 4.238281 8.199219 8.828124 8.828125h13.242188c7.3125 0 13.242188-5.929687 13.242188-13.242187s-5.929688-13.238281-13.242188-13.238281h-8.828125c-17.0625 0-30.894531-13.835938-30.894531-30.898438s13.832031-30.898438 30.894531-30.898438h13.242187c14.320313.710938 25.773438 12.164063 26.484376 26.484376 0 4.875-3.953126 8.828124-8.828126 8.828124s-8.828124-3.953124-8.828124-8.828124c-.628907-4.589844-4.238282-8.199219-8.828126-8.828126h-13.242187c-7.3125 0-13.242187 5.929688-13.242187 13.242188s5.929687 13.242188 13.242187 13.242188h8.828125c17.0625 0 30.898438 13.832031 30.898438 30.894531 0 17.066406-13.835938 30.898437-30.898438 30.898437zm0 0" fill="#894b9d"/><path d="m52.964844 247.171875h176.550781c4.878906 0 8.828125 3.953125 8.828125 8.828125v52.964844c0 4.875-3.949219 8.828125-8.828125 8.828125h-176.550781c-4.875 0-8.828125-3.953125-8.828125-8.828125v-52.964844c0-4.875 3.953125-8.828125 8.828125-8.828125zm0 0" fill="#b49aca"/><path d="m282.484375 388.414062h185.378906c4.875 0 8.828125 3.953126 8.828125 8.828126v52.964843c0 4.875-3.953125 8.828125-8.828125 8.828125h-185.378906c-4.878906 0-8.828125-3.953125-8.828125-8.828125v-52.964843c0-4.875 3.949219-8.828126 8.828125-8.828126zm0 0" fill="#b49aca"/><g fill="#3d324c"><path d="m476.691406 256h-203.035156c-4.875 0-8.828125-3.953125-8.828125-8.828125s3.953125-8.828125 8.828125-8.828125h203.035156c4.875 0 8.824219 3.953125 8.824219 8.828125s-3.949219 8.828125-8.824219 8.828125zm0 0"/><path d="m476.691406 291.308594h-203.035156c-4.875 0-8.828125-3.949219-8.828125-8.824219 0-4.878906 3.953125-8.828125 8.828125-8.828125h203.035156c4.875 0 8.824219 3.949219 8.824219 8.828125 0 4.875-3.949219 8.824219-8.824219 8.824219zm0 0"/><path d="m476.691406 326.621094h-203.035156c-4.875 0-8.828125-3.953125-8.828125-8.828125s3.953125-8.828125 8.828125-8.828125h203.035156c4.875 0 8.824219 3.953125 8.824219 8.828125s-3.949219 8.828125-8.824219 8.828125zm0 0"/><path d="m476.691406 361.929688h-203.035156c-4.875 0-8.828125-3.949219-8.828125-8.828126 0-4.875 3.953125-8.824218 8.828125-8.824218h203.035156c4.875 0 8.824219 3.949218 8.824219 8.824218 0 4.878907-3.949219 8.828126-8.824219 8.828126zm0 0"/><path d="m238.34375 397.242188h-194.207031c-4.875 0-8.828125-3.953126-8.828125-8.828126s3.953125-8.828124 8.828125-8.828124h194.207031c4.875 0 8.828125 3.953124 8.828125 8.828124s-3.953125 8.828126-8.828125 8.828126zm0 0"/><path d="m238.34375 361.929688h-194.207031c-4.875 0-8.828125-3.949219-8.828125-8.828126 0-4.875 3.953125-8.824218 8.828125-8.824218h194.207031c4.875 0 8.828125 3.949218 8.828125 8.824218 0 4.878907-3.953125 8.828126-8.828125 8.828126zm0 0"/><path d="m238.34375 432.550781h-194.207031c-4.875 0-8.828125-3.953125-8.828125-8.828125s3.953125-8.824218 8.828125-8.824218h194.207031c4.875 0 8.828125 3.949218 8.828125 8.824218s-3.953125 8.828125-8.828125 8.828125zm0 0"/><path d="m238.34375 467.863281h-194.207031c-4.875 0-8.828125-3.953125-8.828125-8.828125s3.953125-8.828125 8.828125-8.828125h194.207031c4.875 0 8.828125 3.953125 8.828125 8.828125s-3.953125 8.828125-8.828125 8.828125zm0 0"/></g><path d="m44.136719 35.308594c0 4.878906-3.949219 8.828125-8.828125 8.828125-4.875 0-8.824219-3.949219-8.824219-8.828125 0-4.875 3.949219-8.824219 8.824219-8.824219 4.878906 0 8.828125 3.949219 8.828125 8.824219zm0 0" fill="#e64c3c"/><path d="m79.449219 35.308594c0 4.878906-3.953125 8.828125-8.828125 8.828125s-8.828125-3.949219-8.828125-8.828125c0-4.875 3.953125-8.824219 8.828125-8.824219s8.828125 3.949219 8.828125 8.824219zm0 0" fill="#f0c419"/><path d="m114.757812 35.308594c0 4.878906-3.953124 8.828125-8.828124 8.828125s-8.828126-3.949219-8.828126-8.828125c0-4.875 3.953126-8.824219 8.828126-8.824219s8.828124 3.949219 8.828124 8.824219zm0 0" fill="#4fba6f"/></svg>