<svg height="512pt" viewBox="0 0 512 512.06121" width="512pt" xmlns="http://www.w3.org/2000/svg"><path d="m141.277344 441.441406c-.003906 35.574219-26.492188 65.585938-61.796875 70-5.855469.824219-11.796875.824219-17.652344 0-37.566406-4.730468-64.71875-38.25-61.546875-75.980468 3.171875-37.730469 35.535156-66.246094 73.367188-64.640626 37.828124 1.601563 67.660156 32.757813 67.628906 70.621094zm0 0" fill="#b49aca"/><path d="m126.179688 485.046875c-11.472657 14.617187-28.257813 24.105469-46.699219 26.394531-5.855469.824219-11.796875.824219-17.652344 0-18.441406-2.289062-35.226563-11.777344-46.699219-26.394531 10.320313-21.269531 31.882813-34.777344 55.527344-34.777344 23.640625 0 45.207031 13.507813 55.523438 34.777344zm0 0" fill="#e64c3c"/><path d="m264.863281 176.613281h-17.65625c-4.875 0-8.828125-3.953125-8.828125-8.828125v-5.429687c.171875-25.21875 13.644532-48.472657 35.433594-61.164063 13.332031-7.742187 20.097656-23.238281 16.71875-38.277344-2.667969-13.34375-13.015625-23.824218-26.324219-26.660156-9.253906-2.167968-18.996093-.523437-27.027343 4.5625-8.03125 5.082032-13.6875 13.183594-15.6875 22.476563-.765626 4.230469-4.414063 7.328125-8.714844 7.390625h-17.839844c-2.5625.023437-5.007812-1.070313-6.703125-2.992188-1.695313-1.925781-2.46875-4.488281-2.125-7.027344 4.683594-32.691406 31.375-57.78125 64.289063-60.433593 32.917968-2.652344 63.28125 17.835937 73.140624 49.351562 9.613282 31.421875-3.574218 65.335938-31.886718 82.011719-11.003906 6.347656-17.835938 18.039062-17.964844 30.746094v5.445312c0 4.875-3.949219 8.828125-8.824219 8.828125zm0 0" fill="#4482c3"/><path d="m273.6875 220.75c0 9.75-7.902344 17.65625-17.652344 17.65625s-17.65625-7.90625-17.65625-17.65625 7.90625-17.65625 17.65625-17.65625 17.652344 7.90625 17.652344 17.65625zm0 0" fill="#285680"/><path d="m97.136719 423.785156c0 14.625-11.855469 26.484375-26.480469 26.484375-14.628906 0-26.484375-11.859375-26.484375-26.484375s11.855469-26.484375 26.484375-26.484375c14.625 0 26.480469 11.859375 26.480469 26.484375zm0 0" fill="#fdd7ad"/><path d="m79.480469 485.578125v25.863281c-5.855469.824219-11.796875.824219-17.652344 0v-25.863281c0-4.875 3.953125-8.828125 8.828125-8.828125s8.824219 3.953125 8.824219 8.828125zm0 0" fill="#802f34"/><path d="m326.65625 441.441406c-.003906 35.574219-26.492188 65.585938-61.792969 70-5.859375.824219-11.800781.824219-17.65625 0-37.566406-4.730468-64.714843-38.25-61.546875-75.980468 3.171875-37.730469 35.535156-66.246094 73.367188-64.640626 37.828125 1.601563 67.660156 32.757813 67.628906 70.621094zm0 0" fill="#b49aca"/><path d="m282.515625 423.785156c0 14.625-11.855469 26.484375-26.480469 26.484375-14.628906 0-26.484375-11.859375-26.484375-26.484375s11.855469-26.484375 26.484375-26.484375c14.625 0 26.480469 11.859375 26.480469 26.484375zm0 0" fill="#fdd7ad"/><path d="m311.558594 485.046875c-11.472656 14.617187-28.257813 24.105469-46.695313 26.394531-5.859375.824219-11.800781.824219-17.65625 0-18.4375-2.289062-35.226562-11.777344-46.699219-26.394531 10.320313-21.269531 31.882813-34.777344 55.527344-34.777344 23.640625 0 45.207032 13.507813 55.523438 34.777344zm0 0" fill="#e64c3c"/><path d="m264.863281 485.578125v25.863281c-5.859375.824219-11.800781.824219-17.65625 0v-25.863281c0-4.875 3.953125-8.828125 8.828125-8.828125s8.828125 3.953125 8.828125 8.828125zm0 0" fill="#802f34"/><path d="m512.035156 441.441406c0 35.574219-26.492187 65.585938-61.792968 70-5.855469.824219-11.800782.824219-17.65625 0-37.566407-4.730468-64.714844-38.25-61.546876-75.980468 3.171876-37.730469 35.535157-66.246094 73.367188-64.640626 37.828125 1.601563 67.664062 32.757813 67.628906 70.621094zm0 0" fill="#b49aca"/><path d="m467.894531 423.785156c0 14.625-11.855469 26.484375-26.480469 26.484375s-26.484374-11.859375-26.484374-26.484375 11.859374-26.484375 26.484374-26.484375 26.480469 11.859375 26.480469 26.484375zm0 0" fill="#fdd7ad"/><path d="m496.9375 485.046875c-11.472656 14.617187-28.257812 24.105469-46.695312 26.394531-5.855469.824219-11.800782.824219-17.65625 0-18.4375-2.289062-35.222657-11.777344-46.699219-26.394531 10.320312-21.269531 31.882812-34.777344 55.527343-34.777344 23.640626 0 45.207032 13.507813 55.523438 34.777344zm0 0" fill="#e64c3c"/><path d="m450.242188 485.578125v25.863281c-5.855469.824219-11.800782.824219-17.65625 0v-25.863281c0-4.875 3.953124-8.828125 8.828124-8.828125s8.828126 3.953125 8.828126 8.828125zm0 0" fill="#802f34"/><g fill="#35495e"><path d="m256.035156 344.335938c-4.875 0-8.828125-3.953126-8.828125-8.828126v-61.792968c0-4.875 3.953125-8.824219 8.828125-8.824219s8.828125 3.949219 8.828125 8.824219v61.792968c0 4.875-3.953125 8.828126-8.828125 8.828126zm0 0"/><path d="m441.414062 344.335938c-4.875 0-8.828124-3.953126-8.828124-8.828126v-17.652343h-353.105469v17.652343c0 4.875-3.949219 8.828126-8.824219 8.828126s-8.828125-3.953126-8.828125-8.828126v-17.652343c0-9.75 7.902344-17.65625 17.652344-17.65625h353.105469c9.75 0 17.65625 7.90625 17.65625 17.65625v17.652343c0 4.875-3.953126 8.828126-8.828126 8.828126zm0 0"/></g></svg>