<svg height="512pt" viewBox="0 0 512.00355 512" width="512pt" xmlns="http://www.w3.org/2000/svg"><path d="m256.003906 344.277344c-4.875 0-8.828125-3.953125-8.828125-8.828125v-88.273438c0-4.875 3.953125-8.828125 8.828125-8.828125s8.828125 3.953125 8.828125 8.828125v88.273438c0 4.875-3.953125 8.828125-8.828125 8.828125zm0 0" fill="#35495e"/><path d="m441.382812 344.277344c-4.875 0-8.828124-3.953125-8.828124-8.828125v-17.65625h-353.101563v17.65625c0 4.875-3.953125 8.828125-8.828125 8.828125s-8.828125-3.953125-8.828125-8.828125v-17.65625c0-9.75 7.902344-17.652344 17.65625-17.652344h353.101563c9.75 0 17.65625 7.902344 17.65625 17.652344v17.65625c0 4.875-3.953126 8.828125-8.828126 8.828125zm0 0" fill="#35495e"/><path d="m361.933594 203.035156c0 44.140625-105.929688 44.140625-105.929688 44.140625s-105.929687 0-105.929687-44.140625c-.964844-15.167968 3.824219-30.140625 13.417969-41.929687 13.285156-12.101563 30.414062-19.136719 48.375-19.863281 0 0 0 26.484374 44.136718 61.792968 44.136719-35.308594 44.136719-61.792968 44.136719-61.792968 17.960937.726562 35.089844 7.761718 48.375 19.863281 9.589844 11.789062 14.382813 26.761719 13.417969 41.929687zm0 0" fill="#285680"/><path d="m300.140625 141.242188s0 26.484374-44.136719 61.792968c-44.136718-35.308594-44.136718-61.792968-44.136718-61.792968s26.480468 17.65625 44.136718 17.65625 44.136719-17.65625 44.136719-17.65625zm0 0" fill="#e6e7e8"/><path d="m300.140625 141.242188s-26.480469 17.65625-44.136719 17.65625-44.136718-17.65625-44.136718-17.65625c7.105468-9.734376 12.785156-20.433594 16.859374-31.777344h54.554688c4.074219 11.34375 9.753906 22.042968 16.859375 31.777344zm0 0" fill="#f09372"/><path d="m304.34375 49.4375c2.816406-2.398438 6.550781-3.417969 10.195312-2.78125 5.207032 1.507812 2.648438 15.21875 2.648438 15.21875-2.714844 7.230469-8.828125 12.652344-16.332031 14.484375h-89.644531c-7.507813-1.84375-13.628907-7.257813-16.375-14.484375 0 0-2.558594-13.710938 2.695312-15.21875 3.628906-.632812 7.351562.386719 10.148438 2.78125zm0 0" fill="#f09372"/><path d="m304.210938 30.898438c-1.765626-29.421876-44.753907-30.898438-44.753907-30.898438h-6.886719s-43.035156 1.476562-44.757812 30.898438c-1.71875 29.421874 3.445312 32.371093 3.445312 42.664062s-3.445312 19.128906 10.328126 29.421875c13.769531 10.292969 13.769531 20.605469 27.539062 20.605469h13.773438c13.769531 0 13.769531-10.304688 27.542968-20.597656 13.769532-10.292969 10.328125-19.128907 10.328125-29.421876 0-10.292968 5.164063-13.25 3.441407-42.671874zm0 0" fill="#fdd7ad"/><path d="m141.246094 441.382812c-.003906 35.574219-26.492188 65.585938-61.792969 70-5.859375.824219-11.800781.824219-17.65625 0-37.566406-4.730468-64.714844-38.25-61.546875-75.980468 3.171875-37.730469 35.535156-66.246094 73.367188-64.640625 37.828124 1.601562 67.660156 32.753906 67.628906 70.621093zm0 0" fill="#b49aca"/><path d="m126.148438 484.988281c-11.472657 14.617188-28.257813 24.105469-46.695313 26.394531-5.859375.824219-11.800781.824219-17.65625 0-18.4375-2.289062-35.226563-11.777343-46.699219-26.394531 10.320313-21.269531 31.882813-34.777343 55.527344-34.777343 23.640625 0 45.207031 13.507812 55.523438 34.777343zm0 0" fill="#e64c3c"/><path d="m97.105469 423.726562c0 14.625-11.855469 26.480469-26.480469 26.480469s-26.484375-11.855469-26.484375-26.480469 11.859375-26.484374 26.484375-26.484374 26.480469 11.859374 26.480469 26.484374zm0 0" fill="#fdd7ad"/><path d="m79.453125 485.519531v25.863281c-5.859375.824219-11.800781.824219-17.65625 0v-25.863281c0-4.875 3.953125-8.828125 8.828125-8.828125s8.828125 3.953125 8.828125 8.828125zm0 0" fill="#802f34"/><path d="m326.625 441.382812c0 35.574219-26.492188 65.585938-61.792969 70-5.855469.824219-11.800781.824219-17.65625 0-37.566406-4.730468-64.714843-38.25-61.542969-75.980468 3.167969-37.730469 35.53125-66.246094 73.363282-64.640625 37.828125 1.601562 67.664062 32.753906 67.628906 70.621093zm0 0" fill="#b49aca"/><path d="m282.484375 423.726562c0 14.625-11.855469 26.480469-26.480469 26.480469s-26.484375-11.855469-26.484375-26.480469 11.859375-26.484374 26.484375-26.484374 26.480469 11.859374 26.480469 26.484374zm0 0" fill="#fdd7ad"/><path d="m311.527344 484.988281c-11.472656 14.617188-28.257813 24.105469-46.695313 26.394531-5.855469.824219-11.800781.824219-17.65625 0-18.4375-2.289062-35.222656-11.777343-46.699219-26.394531 10.320313-21.269531 31.882813-34.777343 55.527344-34.777343 23.640625 0 45.207032 13.507812 55.523438 34.777343zm0 0" fill="#e64c3c"/><path d="m264.832031 485.519531v25.863281c-5.855469.824219-11.800781.824219-17.65625 0v-25.863281c0-4.875 3.953125-8.828125 8.828125-8.828125s8.828125 3.953125 8.828125 8.828125zm0 0" fill="#802f34"/><path d="m512.003906 441.382812c0 35.574219-26.492187 65.585938-61.792968 70-5.855469.824219-11.800782.824219-17.65625 0-37.566407-4.730468-64.714844-38.25-61.542969-75.980468 3.167969-37.730469 35.535156-66.246094 73.363281-64.640625 37.828125 1.601562 67.664062 32.753906 67.628906 70.621093zm0 0" fill="#b49aca"/><path d="m467.867188 423.726562c0 14.625-11.859376 26.480469-26.484376 26.480469s-26.484374-11.855469-26.484374-26.480469 11.859374-26.484374 26.484374-26.484374 26.484376 11.859374 26.484376 26.484374zm0 0" fill="#fdd7ad"/><path d="m496.910156 484.988281c-11.476562 14.617188-28.261718 24.105469-46.699218 26.394531-5.855469.824219-11.800782.824219-17.65625 0-18.4375-2.289062-35.222657-11.777343-46.699219-26.394531 10.320312-21.269531 31.886719-34.777343 55.527343-34.777343 23.640626 0 45.207032 13.507812 55.527344 34.777343zm0 0" fill="#e64c3c"/><path d="m450.210938 485.519531v25.863281c-5.855469.824219-11.800782.824219-17.65625 0v-25.863281c0-4.875 3.953124-8.828125 8.828124-8.828125s8.828126 3.953125 8.828126 8.828125zm0 0" fill="#802f34"/></svg>