<svg height="512pt" viewBox="0 0 512.24328 512" width="512pt" xmlns="http://www.w3.org/2000/svg"><path d="m512.121094 203.15625c0 44.136719-105.929688 44.136719-105.929688 44.136719s-105.933594 0-105.933594-44.136719c-.960937-15.167969 3.828126-30.140625 13.417969-41.929688 13.289063-12.105468 30.417969-19.136718 48.375-19.863281 0 0 0 26.484375 44.140625 61.792969 44.136719-35.308594 44.136719-61.792969 44.136719-61.792969 17.960937.726563 35.085937 7.757813 48.375 19.863281 9.589844 11.789063 14.382813 26.761719 13.417969 41.929688zm0 0" fill="#285680"/><path d="m450.328125 141.363281s0 26.484375-44.136719 61.792969c-44.140625-35.308594-44.140625-61.792969-44.140625-61.792969s26.484375 17.65625 44.140625 17.65625 44.136719-17.65625 44.136719-17.65625zm0 0" fill="#e6e7e8"/><path d="m450.328125 141.363281s-26.480469 17.65625-44.136719 17.65625-44.140625-17.65625-44.140625-17.65625c7.109375-9.734375 12.789063-20.4375 16.863281-31.78125h54.554688c4.074219 11.34375 9.753906 22.046875 16.859375 31.78125zm0 0" fill="#f09372"/><path d="m454.53125 49.554688c2.816406-2.394532 6.550781-3.414063 10.195312-2.777344 5.207032 1.507812 2.648438 15.21875 2.648438 15.21875-2.714844 7.226562-8.828125 12.648437-16.332031 14.484375h-89.644531c-7.507813-1.84375-13.628907-7.257813-16.375-14.484375 0 0-2.558594-13.710938 2.691406-15.21875 3.632812-.632813 7.351562.386718 10.152344 2.777344zm0 0" fill="#f09372"/><path d="m454.398438 31.019531c-1.765626-29.421875-44.757813-30.898437-44.757813-30.898437h-6.882813s-43.035156 1.476562-44.757812 30.898437c-1.71875 29.421875 3.445312 32.371094 3.445312 42.664063 0 10.292968-3.445312 19.128906 10.328126 29.421875 13.769531 10.292969 13.769531 20.601562 27.539062 20.601562h13.773438c13.769531 0 13.769531-10.300781 27.542968-20.59375 13.769532-10.292969 10.328125-19.128906 10.328125-29.421875 0-10.292968 5.164063-13.25 3.441407-42.671875zm0 0" fill="#fdd7ad"/><path d="m236.699219 56.441406-61.613281 48.730469c-1.339844 1-3.128907 1.164063-4.625.414063-1.492188-.746094-2.4375-2.273438-2.4375-3.945313v-26.660156c0-2.4375-1.976563-4.414063-4.414063-4.414063h-83.863281c-4.875 0-8.828125 3.953125-8.828125 8.828125v84.214844c0 2.4375 1.976562 4.414063 4.414062 4.414063h26.308594c1.671875 0 3.199219.945312 3.945313 2.4375.75 1.496093.585937 3.285156-.417969 4.625l-48.375 61.613281c-.832031 1.113281-2.140625 1.765625-3.527344 1.765625-1.390625 0-2.699219-.652344-3.53125-1.765625l-48.730469-61.613281c-1.003906-1.339844-1.164062-3.128907-.417968-4.625.75-1.492188 2.277343-2.4375 3.949218-2.4375h26.660156c2.4375 0 4.414063-1.976563 4.414063-4.414063v-93.042969c0-19.503906 15.808594-35.3125 35.308594-35.3125h92.691406c2.4375 0 4.414063-1.972656 4.414063-4.414062v-26.304688c0-1.671875.945312-3.199218 2.4375-3.949218 1.496093-.746094 3.285156-.585938 4.625.417968l61.613281 48.375c1.113281.835938 1.765625 2.140625 1.765625 3.53125s-.652344 2.699219-1.765625 3.53125zm0 0" fill="#955ba5"/><path d="m275.542969 455.820312 61.617187-48.730468c1.335938-1 3.125-1.164063 4.621094-.414063 1.496094.746094 2.441406 2.273438 2.441406 3.945313v26.660156c0 2.4375 1.972656 4.414062 4.410156 4.414062h83.863282c4.875 0 8.828125-3.953124 8.828125-8.828124v-84.214844c0-2.4375-1.976563-4.414063-4.414063-4.414063h-26.304687c-1.671875 0-3.203125-.945312-3.949219-2.441406-.746094-1.492187-.585938-3.28125.417969-4.621094l48.375-61.617187c.832031-1.109375 2.140625-1.765625 3.53125-1.765625 1.386719 0 2.695312.65625 3.53125 1.765625l48.726562 61.617187c1.003907 1.339844 1.164063 3.128907.417969 4.621094-.75 1.496094-2.277344 2.441406-3.949219 2.441406h-26.660156c-2.4375 0-4.414063 1.976563-4.414063 4.414063v93.042968c0 19.5-15.808593 35.308594-35.308593 35.308594h-92.691407c-2.4375 0-4.410156 1.976563-4.410156 4.414063v26.289062c0 1.671875-.945312 3.199219-2.441406 3.949219-1.496094.746094-3.285156.585938-4.621094-.417969l-61.617187-48.375c-1.105469-.832031-1.753907-2.136719-1.753907-3.523437 0-1.382813.648438-2.6875 1.753907-3.519532zm0 0" fill="#804169"/><path d="m362.050781 335.570312c0 44.136719-105.929687 44.136719-105.929687 44.136719s-105.929688 0-105.929688-44.136719c-.964844-15.167968 3.828125-30.140624 13.417969-41.929687 13.289063-12.105469 30.414063-19.136719 48.375-19.863281 0 0 0 26.480468 44.136719 61.792968 44.136718-35.3125 44.136718-61.792968 44.136718-61.792968 17.960938.726562 35.089844 7.757812 48.375 19.863281 9.59375 11.789063 14.382813 26.761719 13.417969 41.929687zm0 0" fill="#4fba6f"/><path d="m300.257812 273.777344s0 26.480468-44.136718 61.792968c-44.136719-35.3125-44.136719-61.792968-44.136719-61.792968s26.480469 17.65625 44.136719 17.65625 44.136718-17.65625 44.136718-17.65625zm0 0" fill="#e6e7e8"/><path d="m300.257812 273.777344s-26.480468 17.65625-44.136718 17.65625-44.136719-17.65625-44.136719-17.65625c7.105469-9.734375 12.785156-20.4375 16.859375-31.78125h54.554688c4.074218 11.34375 9.753906 22.046875 16.859374 31.78125zm0 0" fill="#f09372"/><path d="m304.460938 181.96875c2.816406-2.394531 6.554687-3.414062 10.195312-2.78125 5.210938 1.511719 2.648438 15.21875 2.648438 15.21875-2.714844 7.230469-8.828126 12.652344-16.332032 14.488281h-89.640625c-7.507812-1.84375-13.632812-7.261719-16.375-14.488281 0 0-2.5625-13.707031 2.691407-15.21875 3.628906-.628906 7.351562.390625 10.152343 2.78125zm0 0" fill="#f09372"/><path d="m304.328125 163.433594c-1.765625-29.425782-44.753906-30.898438-44.753906-30.898438h-6.886719s-43.035156 1.472656-44.753906 30.898438c-1.722656 29.421875 3.441406 32.371094 3.441406 42.664062 0 10.292969-3.441406 19.128906 10.328125 29.421875s13.769531 20.601563 27.542969 20.601563h13.769531c13.769531 0 13.769531-10.300782 27.542969-20.59375 13.769531-10.292969 10.328125-19.128906 10.328125-29.421875s5.164062-13.25 3.441406-42.671875zm0 0" fill="#fdd7ad"/><path d="m211.984375 467.984375c0 44.136719-105.933594 44.136719-105.933594 44.136719s-105.929687 0-105.929687-44.136719c-.964844-15.167969 3.828125-30.140625 13.417968-41.933594 13.289063-12.101562 30.417969-19.132812 48.375-19.859375 0 0 0 26.480469 44.136719 61.792969 44.140625-35.3125 44.140625-61.792969 44.140625-61.792969 17.957032.726563 35.085938 7.757813 48.375 19.859375 9.589844 11.792969 14.382813 26.765625 13.417969 41.933594zm0 0" fill="#285680"/><path d="m150.191406 406.191406s0 26.480469-44.140625 61.792969c-44.136719-35.3125-44.136719-61.792969-44.136719-61.792969s26.484376 17.65625 44.136719 17.65625c17.65625 0 44.140625-17.65625 44.140625-17.65625zm0 0" fill="#e6e7e8"/><path d="m150.191406 406.191406s-26.484375 17.65625-44.140625 17.65625c-17.652343 0-44.136719-17.65625-44.136719-17.65625 7.109376-9.734375 12.785157-20.4375 16.863282-31.78125h54.550781c4.078125 11.34375 9.753906 22.046875 16.863281 31.78125zm0 0" fill="#f09372"/><path d="m154.390625 314.382812c2.816406-2.394531 6.554687-3.414062 10.199219-2.78125 5.207031 1.511719 2.648437 15.21875 2.648437 15.21875-2.71875 7.230469-8.828125 12.652344-16.332031 14.488282h-89.644531c-7.507813-1.84375-13.628907-7.261719-16.375-14.488282 0 0-2.558594-13.707031 2.691406-15.21875 3.628906-.632812 7.351563.386719 10.152344 2.78125zm0 0" fill="#f09372"/><path d="m154.261719 295.847656c-1.765625-29.425781-44.757813-30.898437-44.757813-30.898437h-6.886718s-43.03125 1.472656-44.753907 30.898437c-1.722656 29.421875 3.441407 32.367188 3.441407 42.660156 0 10.292969-3.441407 19.132813 10.320312 29.433594 13.761719 10.300782 13.78125 20.59375 27.550781 20.59375h13.769531c13.773438 0 13.773438-10.300781 27.542969-20.59375 13.773438-10.292968 10.328125-19.128906 10.328125-29.421875s5.164063-13.25 3.445313-42.671875zm0 0" fill="#fdd7ad"/></svg>