<svg height="512pt" viewBox="0 0 512.24328 512" width="512pt" xmlns="http://www.w3.org/2000/svg"><path d="m362.050781 335.441406c0 44.136719-105.929687 44.136719-105.929687 44.136719s-105.929688 0-105.929688-44.136719c-.964844-15.167968 3.828125-30.140625 13.417969-41.929687 13.289063-12.105469 30.414063-19.136719 48.375-19.863281 0 0 0 26.480468 44.136719 61.792968 44.136718-35.3125 44.136718-61.792968 44.136718-61.792968 17.960938.726562 35.089844 7.757812 48.375 19.863281 9.59375 11.789062 14.382813 26.761719 13.417969 41.929687zm0 0" fill="#955ba5"/><path d="m300.257812 273.648438s0 26.480468-44.136718 61.792968c-44.136719-35.3125-44.136719-61.792968-44.136719-61.792968s26.480469 17.65625 44.136719 17.65625 44.136718-17.65625 44.136718-17.65625zm0 0" fill="#e6e7e8"/><path d="m300.257812 273.648438s-26.480468 17.65625-44.136718 17.65625-44.136719-17.65625-44.136719-17.65625c7.105469-9.734376 12.785156-20.4375 16.859375-31.78125h54.554688c4.074218 11.34375 9.753906 22.046874 16.859374 31.78125zm0 0" fill="#f09372"/><path d="m304.460938 181.839844c2.816406-2.394532 6.554687-3.414063 10.195312-2.78125 5.210938 1.511718 2.648438 15.21875 2.648438 15.21875-2.714844 7.230468-8.828126 12.652344-16.332032 14.488281h-89.640625c-7.507812-1.84375-13.632812-7.261719-16.375-14.488281 0 0-2.5625-13.707032 2.691407-15.21875 3.628906-.628906 7.351562.390625 10.152343 2.78125zm0 0" fill="#f09372"/><path d="m304.328125 163.304688c-1.765625-29.425782-44.753906-30.898438-44.753906-30.898438h-6.886719s-43.035156 1.472656-44.753906 30.898438c-1.722656 29.421874 3.441406 32.367187 3.441406 42.660156 0 10.292968-3.441406 19.132812 10.328125 29.425781s13.769531 20.601563 27.542969 20.601563h13.769531c13.769531 0 13.769531-10.300782 27.542969-20.59375 13.769531-10.292969 10.328125-19.128907 10.328125-29.421876 0-10.292968 5.164062-13.25 3.441406-42.671874zm0 0" fill="#fdd7ad"/><path d="m137.257812 188.496094 21.839844 21.839844c1.722656 1.722656 1.722656 4.519531 0 6.242187l-21.839844 21.839844c-1.722656 1.722656-4.515624 1.722656-6.242187 0l-21.839844-21.839844c-1.722656-1.722656-4.515625-1.722656-6.238281 0l-21.839844 21.839844c-1.722656 1.722656-4.519531 1.722656-6.242187 0l-21.847657-21.839844c-1.722656-1.722656-1.722656-4.519531 0-6.242187l21.839844-21.839844c1.722656-1.722656 1.722656-4.515625 0-6.238282l-21.839844-21.851562c-1.722656-1.722656-1.722656-4.515625 0-6.238281l21.839844-21.839844c1.722656-1.722656 4.515625-1.722656 6.242188 0l21.835937 21.839844c1.726563 1.722656 4.519531 1.722656 6.242188 0l21.839843-21.839844c1.722657-1.722656 4.519532-1.722656 6.242188 0l21.839844 21.839844c1.722656 1.722656 1.722656 4.515625 0 6.238281l-21.839844 21.839844c-.828125.832031-1.292969 1.957031-1.292969 3.128906s.46875 2.296875 1.300781 3.121094zm0 0" fill="#e64c3c"/><path d="m437.394531 188.496094 21.839844 21.839844c1.722656 1.722656 1.722656 4.519531 0 6.242187l-21.839844 21.839844c-1.722656 1.722656-4.515625 1.722656-6.238281 0l-21.839844-21.839844c-1.722656-1.722656-4.519531-1.722656-6.242187 0l-21.839844 21.839844c-1.722656 1.722656-4.515625 1.722656-6.242187 0l-21.835938-21.839844c-1.726562-1.722656-1.726562-4.519531 0-6.242187l21.835938-21.839844c1.726562-1.722656 1.726562-4.515625 0-6.238282l-21.835938-21.839843c-1.726562-1.726563-1.726562-4.519531 0-6.242188l21.835938-21.839843c1.726562-1.722657 4.519531-1.722657 6.242187 0l21.839844 21.839843c1.722656 1.722657 4.519531 1.722657 6.242187 0l21.839844-21.839843c1.722656-1.722657 4.515625-1.722657 6.238281 0l21.839844 21.839843c1.722656 1.722657 1.722656 4.515625 0 6.242188l-21.839844 21.839843c-1.722656 1.722657-1.722656 4.515626 0 6.238282zm0 0" fill="#e64c3c"/><path d="m310.5625 1.414062 18.722656 18.722657c1.722656 1.722656 1.722656 4.519531 0 6.242187l-65.546875 65.542969c-6.894531 6.894531-18.070312 6.894531-24.960937 0l-34.332032-34.328125c-1.722656-1.726562-1.722656-4.519531 0-6.242188l18.730469-18.695312c1.726563-1.722656 4.519531-1.722656 6.242188 0l18.757812 18.695312c1.726563 1.722657 4.519531 1.722657 6.242188 0l49.902343-49.9375c1.722657-1.722656 4.515626-1.722656 6.242188 0zm0 0" fill="#4fba6f"/><path d="m512.121094 467.855469c0 44.136719-105.929688 44.136719-105.929688 44.136719s-105.933594 0-105.933594-44.136719c-.960937-15.167969 3.828126-30.140625 13.417969-41.933594 13.289063-12.101563 30.417969-19.132813 48.375-19.859375 0 0 0 26.480469 44.140625 61.792969 44.136719-35.3125 44.136719-61.792969 44.136719-61.792969 17.960937.726562 35.085937 7.757812 48.375 19.859375 9.589844 11.792969 14.382813 26.765625 13.417969 41.933594zm0 0" fill="#285680"/><path d="m450.328125 406.0625s0 26.480469-44.136719 61.792969c-44.140625-35.3125-44.140625-61.792969-44.140625-61.792969s26.484375 17.65625 44.140625 17.65625 44.136719-17.65625 44.136719-17.65625zm0 0" fill="#e6e7e8"/><path d="m450.328125 406.0625s-26.480469 17.65625-44.136719 17.65625-44.140625-17.65625-44.140625-17.65625c7.109375-9.734375 12.789063-20.4375 16.863281-31.78125h54.554688c4.074219 11.34375 9.753906 22.046875 16.859375 31.78125zm0 0" fill="#f09372"/><path d="m454.53125 314.253906c2.816406-2.394531 6.550781-3.414062 10.195312-2.78125 5.207032 1.511719 2.648438 15.21875 2.648438 15.21875-2.714844 7.230469-8.828125 12.652344-16.332031 14.488282h-89.644531c-7.507813-1.84375-13.628907-7.261719-16.375-14.488282 0 0-2.558594-13.707031 2.691406-15.21875 3.632812-.632812 7.351562.386719 10.152344 2.78125zm0 0" fill="#f09372"/><path d="m454.398438 295.71875c-1.765626-29.425781-44.757813-30.898438-44.757813-30.898438h-6.882813s-43.035156 1.472657-44.757812 30.898438c-1.71875 29.421875 3.445312 32.367188 3.445312 42.660156 0 10.292969-3.445312 19.132813 10.328126 29.425782 13.769531 10.292968 13.769531 20.601562 27.539062 20.601562h13.773438c13.769531 0 13.769531-10.300781 27.542968-20.59375 13.769532-10.292969 10.328125-19.128906 10.328125-29.421875s5.164063-13.25 3.441407-42.671875zm0 0" fill="#fdd7ad"/><path d="m211.984375 467.855469c0 44.136719-105.933594 44.136719-105.933594 44.136719s-105.929687 0-105.929687-44.136719c-.964844-15.167969 3.828125-30.140625 13.417968-41.933594 13.289063-12.101563 30.417969-19.132813 48.375-19.859375 0 0 0 26.480469 44.136719 61.792969 44.140625-35.3125 44.140625-61.792969 44.140625-61.792969 17.957032.726562 35.085938 7.757812 48.375 19.859375 9.589844 11.792969 14.382813 26.765625 13.417969 41.933594zm0 0" fill="#285680"/><path d="m150.191406 406.0625s0 26.480469-44.140625 61.792969c-44.136719-35.3125-44.136719-61.792969-44.136719-61.792969s26.484376 17.65625 44.136719 17.65625c17.65625 0 44.140625-17.65625 44.140625-17.65625zm0 0" fill="#e6e7e8"/><path d="m150.191406 406.0625s-26.484375 17.65625-44.140625 17.65625c-17.652343 0-44.136719-17.65625-44.136719-17.65625 7.109376-9.734375 12.785157-20.4375 16.863282-31.78125h54.550781c4.078125 11.34375 9.753906 22.046875 16.863281 31.78125zm0 0" fill="#f09372"/><path d="m154.390625 314.253906c2.816406-2.394531 6.554687-3.414062 10.199219-2.78125 5.207031 1.511719 2.648437 15.21875 2.648437 15.21875-2.71875 7.230469-8.828125 12.652344-16.332031 14.488282h-89.644531c-7.507813-1.84375-13.628907-7.261719-16.375-14.488282 0 0-2.558594-13.707031 2.691406-15.21875 3.628906-.632812 7.351563.386719 10.152344 2.78125zm0 0" fill="#f09372"/><path d="m154.261719 295.71875c-1.765625-29.425781-44.757813-30.898438-44.757813-30.898438h-6.886718s-43.03125 1.472657-44.753907 30.898438c-1.722656 29.421875 3.441407 32.367188 3.441407 42.660156 0 10.292969-3.441407 19.132813 10.320312 29.433594s13.78125 20.59375 27.550781 20.59375h13.769531c13.773438 0 13.773438-10.300781 27.542969-20.59375 13.773438-10.292969 10.328125-19.128906 10.328125-29.421875s5.164063-13.25 3.445313-42.671875zm0 0" fill="#fdd7ad"/></svg>