<svg height="512pt" viewBox="0 0 512 512.01732" width="512pt" xmlns="http://www.w3.org/2000/svg"><path d="m414.730469 152.558594-19.335938-25.425782c-1.636719-2.203124-4.222656-3.507812-6.972656-3.507812s-5.335937 1.304688-6.972656 3.507812l-4.503907 6.003907c-11.800781-55.25-59.546874-95.472657-116-97.722657-56.449218-2.246093-107.246093 34.054688-123.402343 88.191407h30.101562c3.523438.179687 6.65625 2.308593 8.121094 5.519531 1.464844 3.207031 1.023437 6.96875-1.148437 9.75l-38.398438 50.492188-14.476562 18.980468c-1.640626 2.207032-4.226563 3.507813-6.976563 3.507813-2.746094 0-5.332031-1.300781-6.972656-3.507813l-4.589844-6.003906-48.285156-63.46875c-2.171875-2.78125-2.613281-6.542969-1.148438-9.75 1.464844-3.210938 4.597657-5.339844 8.121094-5.519531h39.28125c17.667969-77.679688 90.144531-130.25 169.464844-122.925781 79.324219 7.324218 140.949219 72.28125 144.09375 151.878906zm0 0" fill="#e64c3c"/><path d="m441.300781 211.878906h-35.488281c-23.082031 65.1875-85.671875 107.960938-154.789062 105.78125-69.117188-2.175781-128.886719-48.804687-147.820313-115.316406l4.589844 6.003906c1.640625 2.207032 4.226562 3.507813 6.972656 3.507813 2.75 0 5.335937-1.300781 6.976563-3.507813l14.476562-18.980468c12.828125 50.507812 55.957031 87.539062 107.820312 92.585937 51.863282 5.042969 101.320313-22.988281 123.636719-70.074219h-32.128906c-3.527344-.179687-6.65625-2.308594-8.121094-5.519531-1.46875-3.210937-1.023437-6.96875 1.144531-9.75l48.375-63.472656 4.503907-6.003907c1.636719-2.203124 4.222656-3.507812 6.972656-3.507812s5.335937 1.304688 6.972656 3.507812l19.335938 25.425782 33.542969 44.050781c2.171874 2.78125 2.613281 6.539063 1.148437 9.75-1.46875 3.210937-4.597656 5.339844-8.121094 5.519531zm0 0" fill="#4fba6f"/><path d="m17.664062 291.328125h44.136719c9.75 0 17.65625 7.902344 17.65625 17.65625v185.378906c0 9.75-7.90625 17.652344-17.65625 17.652344h-44.136719c-9.75 0-17.6562495-7.902344-17.6562495-17.652344v-185.378906c0-9.753906 7.9062495-17.65625 17.6562495-17.65625zm0 0" fill="#285680"/><path d="m79.457031 503.191406h223.335938c11.335937 0 22.453125-3.113281 32.132812-9.003906l165.429688-100.726562c5.839843-3.523438 9.914062-9.355469 11.210937-16.054688 1.292969-6.695312-.308594-13.628906-4.414062-19.078125v-.085937c-6.261719-8.316407-17.121094-11.722657-27.011719-8.476563l-163.398437 54.46875c-3.609376 1.226563-7.398438 1.855469-11.210938 1.851563h-20.746094c10.382813-10.351563 12.382813-26.4375 4.855469-39.019532l-.792969-1.320312c-7.960937-13.324219-22.347656-21.476563-37.871094-21.453125h-46.167968c-18.285156-.023438-36.023438-6.25-50.316406-17.65625-14.292969-11.40625-32.03125-17.628907-50.316407-17.652344h-24.71875zm0 0" fill="#fdd7ad"/><path d="m291.320312 114.777344c0 19.5-15.808593 35.308594-35.3125 35.308594-19.5 0-35.308593-15.808594-35.308593-35.308594 0-19.503906 15.808593-35.3125 35.308593-35.3125 19.503907 0 35.3125 15.808594 35.3125 35.3125zm0 0" fill="#fdd7ad"/><path d="m238.351562 150.085938h35.3125c19.5 0 35.308594 15.808593 35.308594 35.3125v35.308593c0 4.875-3.949218 8.828125-8.824218 8.828125h-88.277344c-4.875 0-8.828125-3.953125-8.828125-8.828125v-35.308593c0-19.503907 15.808593-35.3125 35.308593-35.3125zm0 0" fill="#955ba5"/></svg>