<svg height="512pt" viewBox="0 -22 512.00339 512" width="512pt" xmlns="http://www.w3.org/2000/svg"><path d="m60.65625 441.203125c-4.050781.027344-7.601562-2.710937-8.605469-6.636719-1.003906-3.925781.792969-8.03125 4.359375-9.957031l177.699219-97.367187c2.765625-1.515626 6.128906-1.441407 8.824219.195312 2.695312 1.636719 4.3125 4.589844 4.242187 7.742188-.070312 3.152343-1.816406 6.027343-4.582031 7.542968l-177.699219 97.394532c-1.300781.714843-2.757812 1.085937-4.238281 1.085937zm0 0" fill="#285680"/><path d="m300.140625 310.027344c-4.035156 0-7.554687-2.730469-8.558594-6.636719-1-3.90625.773438-7.996094 4.3125-9.933594l97.984375-53.671875c2.765625-1.515625 6.132813-1.441406 8.828125.199219 2.695313 1.636719 4.308594 4.585937 4.238281 7.742187-.070312 3.152344-1.816406 6.027344-4.582031 7.542969l-97.988281 53.699219c-1.300781.699219-2.757812 1.066406-4.234375 1.058594zm0 0" fill="#285680"/><path d="m211.75 310.625c-1.332031.011719-2.648438-.292969-3.839844-.882812l-98.871094-54.183594c-4.265624-2.3125-5.964843-7.570313-3.855468-11.941406.992187-2.050782 2.757812-3.625 4.910156-4.371094s4.515625-.605469 6.566406.390625l.535156.261719 98.550782 54c4.261718 2.316406 5.925781 7.585937 3.761718 11.925781-1.492187 2.917969-4.480468 4.765625-7.757812 4.800781zm0 0" fill="#c03a2b"/><path d="m450.207031 441.203125c-1.476562 0-2.929687-.375-4.226562-1.085937l-178.671875-97.894532c-4.273438-2.34375-5.839844-7.710937-3.5-11.984375 2.34375-4.277343 7.707031-5.84375 11.984375-3.5l178.652343 97.871094c3.566407 1.921875 5.363282 6.027344 4.359376 9.953125-1 3.921875-4.546876 6.664062-8.597657 6.640625zm0 0" fill="#c03a2b"/><path d="m300.140625 44.140625c0 24.375-19.761719 44.136719-44.140625 44.136719-24.375 0-44.136719-19.761719-44.136719-44.136719 0-24.378906 19.761719-44.140625 44.136719-44.140625 24.378906 0 44.140625 19.761719 44.140625 44.140625zm0 0" fill="#fdd7ad"/><path d="m335.449219 141.242188v52.964843c-.027344 9.738281-7.914063 17.628907-17.65625 17.65625-9.71875-.070312-17.582031-7.933593-17.652344-17.65625v35.3125h-88.277344v-35.3125c-.027343 9.738281-7.917969 17.628907-17.65625 17.65625-9.71875-.070312-17.582031-7.933593-17.652343-17.65625v-52.964843c0-14.625 11.855468-26.480469 26.480468-26.480469h105.933594c14.625 0 26.480469 11.855469 26.480469 26.480469zm0 0" fill="#955ba5"/><path d="m300.140625 203.035156c-4.875 0-8.828125-3.953125-8.828125-8.828125v-44.136719c0-4.875 3.953125-8.828124 8.828125-8.828124s8.828125 3.953124 8.828125 8.828124v44.136719c0 4.875-3.953125 8.828125-8.828125 8.828125zm0 0" fill="#894b9d"/><path d="m211.863281 203.035156c-4.875 0-8.828125-3.953125-8.828125-8.828125v-44.136719c0-4.875 3.953125-8.828124 8.828125-8.828124s8.828125 3.953124 8.828125 8.828124v44.136719c0 4.875-3.953125 8.828125-8.828125 8.828125zm0 0" fill="#894b9d"/><path d="m300.140625 229.519531v83.863281c0 12.1875-9.882813 22.066407-22.070313 22.066407s-22.070312-9.878907-22.070312-22.066407c0 12.1875-9.878906 22.066407-22.066406 22.066407s-22.070313-9.878907-22.070313-22.066407v-83.863281zm0 0" fill="#35495e"/><path d="m256 313.382812c-4.875 0-8.824219-3.953124-8.824219-8.828124v-39.726563c0-4.875 3.949219-8.828125 8.824219-8.828125 4.878906 0 8.828125 3.953125 8.828125 8.828125v39.726563c0 4.875-3.949219 8.828124-8.828125 8.828124zm0 0" fill="#2c3e50"/><path d="m82.273438 225.757812-19.121094 43.75c-1.4375 3.292969 3.402344 6.066407 6.921875 3.972657l78.230469-46.433594c3.441406-2.046875 1.589843-6.382813-2.71875-6.355469l-54.878907.300782c-3.496093-.175782-6.78125 1.679687-8.433593 4.765624zm0 0" fill="#e64c3c"/><path d="m.496094 458.496094 19.808594-45.363282c.703124-1.15625 1.84375-1.980468 3.164062-2.285156 1.320312-.304687 2.707031-.0625 3.84375.667969l80.136719 50.011719c3.328125 2.074218 1.46875 6.300781-2.769531 6.300781h-95.71875c-6.152344.035156-10.46875-4.738281-8.464844-9.332031zm0 0" fill="#4482c3"/><path d="m429.730469 225.757812 19.117187 43.75c1.441406 3.292969-3.398437 6.066407-6.917968 3.972657l-78.230469-46.433594c-3.445313-2.046875-1.589844-6.382813 2.71875-6.355469l54.878906.300782c3.496094-.175782 6.78125 1.679687 8.433594 4.765624zm0 0" fill="#4482c3"/><path d="m511.507812 458.496094-19.808593-45.363282c-.703125-1.15625-1.84375-1.980468-3.164063-2.285156-1.320312-.304687-2.707031-.0625-3.847656.667969l-80.136719 50.011719c-3.328125 2.074218-1.464843 6.300781 2.773438 6.300781h95.71875c6.152343.035156 10.46875-4.738281 8.464843-9.332031zm0 0" fill="#e64c3c"/></svg>