<svg height="512pt" viewBox="-40 0 511 512" width="512pt" xmlns="http://www.w3.org/2000/svg"><path d="m312.820312 112.992188c5.328126-5.359376 12.960938-7.738282 20.390626-6.355469 10.417968 3.441406 5.210937 34.78125 5.210937 34.78125-4.894531 15.667969-17.0625 28-32.664063 33.101562h-179.199218c-15.609375-5.117187-27.800782-17.4375-32.75-33.101562 0 0-5.121094-31.339844 5.382812-34.78125 7.40625-1.386719 15.011719.996093 20.304688 6.355469zm0 0" fill="#f09372"/><path d="m306.023438 296.34375c-23.535157 7.683594-47.695313 13.296875-72.210938 16.769531h-35.308594c-24.515625-3.472656-48.675781-9.085937-72.210937-16.769531 20.160156-6.390625 34.371093-24.453125 35.839843-45.550781h108.050782c1.46875 21.097656 15.675781 39.160156 35.839844 45.550781zm0 0" fill="#f09372"/><path d="m312.554688 70.621094c-3.441407-67.257813-89.511719-70.621094-89.511719-70.621094h-13.769531s-86.070313 3.363281-89.511719 70.621094c-3.445313 67.257812 6.882812 73.984375 6.882812 97.527344 0 23.542968-6.882812 43.714843 20.660157 67.257812 27.539062 23.542969 27.539062 47.078125 55.082031 47.078125h27.542969c27.542968 0 27.542968-23.542969 55.082031-47.078125 27.542969-23.535156 20.65625-43.714844 20.65625-67.257812 0-23.542969 10.328125-30.269532 6.886719-97.527344zm0 0" fill="#fdd7ad"/><path d="m216.15625 185.847656c-4.875 0-8.824219-3.953125-8.824219-8.828125v-13.894531c-.027343-14.160156 8.523438-26.929688 21.625-32.300781 15.386719-6.285157 24.214844-22.539063 21.109375-38.867188-3.105468-16.328125-17.289062-28.203125-33.910156-28.398437-19.234375.019531-34.820312 15.609375-34.839844 34.84375 0 4.875-3.953125 8.828125-8.828125 8.828125s-8.828125-3.953125-8.828125-8.828125c.035156-28.980469 23.519532-52.464844 52.496094-52.5 25.207031.007812 46.851562 17.925781 51.566406 42.683594 4.714844 24.761718-8.828125 49.378906-32.269531 58.648437-6.394531 2.675781-10.53125 8.957031-10.46875 15.890625v13.894531c0 4.875-3.949219 8.828125-8.828125 8.828125zm0 0" fill="#955ba5"/><path d="m224.984375 211.960938c0 4.875-3.949219 8.824218-8.828125 8.824218-4.875 0-8.824219-3.949218-8.824219-8.824218 0-4.878907 3.949219-8.828126 8.824219-8.828126 4.878906 0 8.828125 3.949219 8.828125 8.828126zm0 0" fill="#955ba5"/><path d="m431.816406 422.136719c0 89.863281-215.660156 89.863281-215.660156 89.863281s-215.65625 0-215.65625-89.863281c0-29.75 6.003906-62.675781 27.367188-85.363281 23.039062-24.542969 65.585937-38.753907 98.425781-40.429688 0 0 0 41.046875 59.761719 99.308594 8.652343 8.472656 18.6875 17.300781 30.101562 26.484375 11.390625-9.183594 21.421875-18.011719 30.105469-26.484375 59.761719-58.261719 59.761719-99.308594 59.761719-99.308594 32.839843 1.675781 75.386718 15.886719 98.425781 40.429688 21.363281 22.6875 27.367187 55.613281 27.367187 85.363281zm0 0" fill="#285680"/><path d="m306.023438 296.34375s0 41.046875-59.761719 99.308594l-21.277344-42.550782h-8.828125c-2.925781-.007812-5.804688-.734374-8.382812-2.117187l-.441407 2.117187-21.277343 42.550782c-59.761719-58.261719-59.761719-99.308594-59.761719-99.308594 23.535156 7.683594 47.695312 13.296875 72.210937 16.769531h35.308594c24.515625-3.472656 48.675781-9.085937 72.210938-16.769531zm0 0" fill="#e6e7e8"/><path d="m246.261719 395.652344c-8.652344 8.472656-18.6875 17.300781-30.105469 26.484375-11.386719-9.183594-21.421875-18.011719-30.101562-26.484375l21.277343-42.550782.441407-2.117187c2.578124 1.382813 5.457031 2.109375 8.382812 2.117187v-17.652343zm0 0" fill="#c03a2b"/><path d="m233.8125 313.113281v22.335938c-.027344 9.738281-7.914062 17.625-17.65625 17.652343-9.75 0-17.652344-7.902343-17.652344-17.652343v-22.335938c.140625-2.332031 2.074219-4.152343 4.414063-4.148437h26.480469c2.339843-.003906 4.273437 1.816406 4.414062 4.148437zm0 0" fill="#e64c3c"/></svg>