<svg height="512pt" viewBox="-4 0 512 512" width="512pt" xmlns="http://www.w3.org/2000/svg"><path d="m92.070312 308.964844 114.761719 158.898437 114.757813-132.414062-16.066406-39.105469c-23.535157 7.683594-47.695313 13.296875-72.210938 16.769531h-35.308594c-23.96875-3.359375-47.597656-8.796875-70.621094-16.25zm0 0" fill="#e6e7e8"/><path d="m312.320312 112.992188c5.328126-5.359376 12.960938-7.738282 20.390626-6.355469 10.417968 3.441406 5.210937 34.78125 5.210937 34.78125-4.894531 15.667969-17.0625 28-32.664063 33.101562h-179.199218c-15.609375-5.117187-27.800782-17.4375-32.75-33.101562 0 0-5.121094-31.339844 5.382812-34.78125 7.40625-1.386719 15.011719.996093 20.304688 6.355469zm0 0" fill="#f09372"/><path d="m359.636719 308.523438-15.007813 187.234374c-42.234375 10.285157-85.503906 15.734376-128.972656 16.242188 0 0-215.65625 0-215.65625-89.863281 0-29.75 6.003906-62.675781 27.367188-85.363281 23.039062-24.542969 65.585937-38.753907 98.425781-40.429688 0 0 0 41.046875 59.761719 99.308594 8.652343 8.472656 18.6875 17.300781 30.101562 26.484375 11.390625-9.183594 21.421875-18.011719 30.105469-26.484375 59.761719-58.261719 59.761719-99.308594 59.761719-99.308594 18.566406 1.171875 36.832031 5.28125 54.113281 12.179688zm0 0" fill="#285680"/><path d="m269.683594 250.792969c1.46875 21.097656 15.675781 39.160156 35.839844 45.550781-23.535157 7.683594-47.695313 13.296875-72.210938 16.769531h-35.308594c-24.515625-3.472656-48.675781-9.085937-72.210937-16.769531 20.160156-6.390625 34.371093-24.453125 35.839843-45.550781zm0 0" fill="#f09372"/><path d="m245.761719 395.652344c-8.652344 8.472656-18.6875 17.300781-30.105469 26.484375-11.386719-9.183594-21.421875-18.011719-30.101562-26.484375l21.277343-51.375h17.652344zm0 0" fill="#c03a2b"/><path d="m312.054688 70.621094c-3.441407-67.257813-89.511719-70.621094-89.511719-70.621094h-13.769531s-86.070313 3.363281-89.511719 70.621094c-3.445313 67.257812 6.882812 73.984375 6.882812 97.527344 0 23.542968-6.882812 43.714843 20.660157 67.257812 27.539062 23.542969 27.539062 47.078125 55.082031 47.078125h27.542969c27.542968 0 27.542968-23.542969 55.082031-47.078125 27.542969-23.535156 20.65625-43.714844 20.65625-67.257812 0-23.542969 10.328125-30.269532 6.886719-97.527344zm0 0" fill="#fdd7ad"/><path d="m202.417969 308.964844h26.480469c2.4375 0 4.414062 1.976562 4.414062 4.414062v22.070313c0 9.75-7.902344 17.652343-17.65625 17.652343-9.75 0-17.652344-7.902343-17.652344-17.652343v-22.070313c0-2.4375 1.976563-4.414062 4.414063-4.414062zm0 0" fill="#e64c3c"/><path d="m503.171875 406.070312c0 58.503907-47.425781 105.929688-105.929687 105.929688-58.503907 0-105.933594-47.425781-105.933594-105.929688 0-58.503906 47.429687-105.933593 105.933594-105.933593 58.503906 0 105.929687 47.429687 105.929687 105.933593zm0 0" fill="#24ae5f"/><g fill="#527f72"><path d="m397.242188 414.898438c-17.34375 0-32.976563-10.449219-39.613282-26.46875-6.636718-16.023438-2.96875-34.464844 9.292969-46.726563 12.265625-12.261719 30.707031-15.929687 46.726563-9.292969 16.023437 6.636719 26.46875 22.269532 26.46875 39.609375 0 4.875-3.953126 8.828125-8.828126 8.828125s-8.828124-3.953125-8.828124-8.828125c0-10.199219-6.144532-19.394531-15.566407-23.300781-9.425781-3.902344-20.273437-1.746094-27.488281 5.46875-7.210938 7.214844-9.367188 18.0625-5.464844 27.484375 3.902344 9.425781 13.097656 15.570313 23.300782 15.570313 4.875 0 8.828124 3.953124 8.828124 8.828124s-3.953124 8.828126-8.828124 8.828126zm0 0"/><path d="m397.242188 482.992188c-23.667969-.027344-42.847657-19.207032-42.875-42.875 0-4.875 3.949218-8.828126 8.828124-8.828126 4.875 0 8.824219 3.953126 8.824219 8.828126 0 13.929687 11.292969 25.21875 25.222657 25.21875 13.929687 0 25.21875-11.289063 25.21875-25.21875 0-13.929688-11.289063-25.21875-25.21875-25.21875-4.875 0-8.828126-3.953126-8.828126-8.828126s3.953126-8.828124 8.828126-8.828124c23.679687 0 42.875 19.195312 42.875 42.875 0 23.679687-19.195313 42.875-42.875 42.875zm0 0"/><path d="m397.242188 494.34375c-4.875 0-8.828126-3.949219-8.828126-8.828125v-158.894531c0-4.875 3.953126-8.828125 8.828126-8.828125s8.828124 3.953125 8.828124 8.828125v158.894531c0 4.878906-3.953124 8.828125-8.828124 8.828125zm0 0"/></g></svg>