<svg height="511pt" viewBox="0 -4 511.95253 511" width="511pt" xmlns="http://www.w3.org/2000/svg"><path d="m67.914062 306.503906 77.074219 77.089844 100.730469 87.039062 5.953125 5.949219c4.722656 5.609375 12.207031 8.078125 19.339844 6.378907 7.136719-1.695313 12.707031-7.265626 14.402343-14.402344 1.695313-7.132813-.769531-14.613282-6.378906-19.339844l-53.847656-53.847656 39.203125 39.203125 14.59375 14.589843c4.722656 5.609376 12.207031 8.074219 19.339844 6.378907 7.136719-1.695313 12.707031-7.265625 14.402343-14.402344 1.699219-7.132813-.769531-14.617187-6.378906-19.339844l-53.792968-53.796875 53.792968 53.796875c4.726563 5.605469 12.207032 8.074219 19.34375 6.378907 7.132813-1.699219 12.707032-7.269532 14.402344-14.402344 1.695312-7.136719-.773438-14.617188-6.378906-19.34375l-53.796875-53.796875 54.730469 54.734375c3.628906 3.628906 8.550781 5.667968 13.683593 5.667968 5.132813 0 10.054688-2.039062 13.683594-5.667968s5.671875-8.550782 5.671875-13.683594-2.042969-10.054688-5.671875-13.683594l-95.78125-95.691406-13.742187-40.554688c-.960938-1.34375-2.035157-2.601562-3.214844-3.757812-1.175782-1.207031-2.460938-2.304688-3.832032-3.285156-12.019531-8.816406-28.386718-8.765625-40.347656.132812-1.324218.933594-2.558594 1.984375-3.691406 3.140625-1.109375 1.082031-2.117188 2.265625-3.011719 3.53125l-55.117187-55.117187-.132813.132812zm0 0" fill="#fdd7ad"/><path d="m334.613281 404.230469c-2.339843 0-4.585937-.929688-6.238281-2.585938l-.753906-.738281-.164063-.167969-53.796875-53.796875c-3.34375-3.464844-3.296875-8.96875.105469-12.375 3.40625-3.40625 8.914063-3.453125 12.375-.105468l54.734375 54.730468c2.523438 2.523438 3.277344 6.320313 1.910156 9.617188-1.367187 3.296875-4.582031 5.449218-8.152344 5.449218zm0 0" fill="#f09372"/><path d="m306.347656 430.671875c-2.339844 0-4.585937-.933594-6.242187-2.585937l-53.792969-53.796876c-3.347656-3.464843-3.296875-8.96875.105469-12.375 3.40625-3.40625 8.914062-3.453124 12.375-.105468l53.796875 53.792968c2.523437 2.527344 3.277344 6.320313 1.914062 9.621094-1.367187 3.296875-4.585937 5.449219-8.15625 5.449219zm0 0" fill="#f09372"/><path d="m279.027344 458.054688c-2.339844 0-4.585938-.929688-6.242188-2.585938l-53.792968-53.796875c-3.347657-3.464844-3.300782-8.96875.105468-12.375 3.40625-3.402344 8.910156-3.453125 12.375-.105469l53.847656 53.847656c2.523438 2.523438 3.28125 6.320313 1.914063 9.617188-1.367187 3.300781-4.585937 5.449219-8.15625 5.449219zm0 0" fill="#f09372"/><path d="m262.8125 221.023438c13.226562-13.195313 34.640625-13.195313 47.871094 0 1.15625 1.132812 2.210937 2.367187 3.140625 3.691406l7.117187-7.117188 20.515625-20.511718 102.574219 102.574218-75.21875 75.21875-102.578125-102.574218.273437-.273438-34.480468 34.480469c-7.570313 7.515625-19.792969 7.515625-27.363282 0-7.484374-7.585938-7.484374-19.78125 0-27.367188zm0 0" fill="#af8066"/><path d="m286.714844 287.558594c-9.195313.019531-18.152344-2.949219-25.511719-8.464844-3.898437-2.925781-4.691406-8.460938-1.765625-12.359375 2.925781-3.902344 8.460938-4.691406 12.359375-1.765625 9.960937 7.417969 23.855469 6.425781 32.664063-2.332031.765624-.746094 1.46875-1.5625 2.089843-2.433594 2.78125-3.957031 8.222657-4.9375 12.210938-2.207031 3.988281 2.730468 5.039062 8.160156 2.355469 12.179687-1.234376 1.773438-2.632813 3.421875-4.175782 4.933594-8.023437 7.996094-18.898437 12.476563-30.226562 12.449219zm0 0" fill="#7f5b53"/><path d="m163.652344 388.574219c7.550781 7.554687 7.550781 19.800781 0 27.351562-7.554688 7.554688-19.800782 7.554688-27.351563 0-7.554687-7.550781-7.554687-19.796875 0-27.351562 7.550781-7.554688 19.796875-7.554688 27.351563 0zm0 0" fill="#af8066"/><path d="m191.007812 415.914062c7.554688 7.554688 7.554688 19.800782 0 27.355469-7.554687 7.550781-19.800781 7.550781-27.351562 0-7.554688-7.554687-7.554688-19.800781 0-27.355469 7.550781-7.550781 19.796875-7.550781 27.351562 0zm0 0" fill="#af8066"/><path d="m218.359375 443.273438c7.554687 7.550781 7.554687 19.796874 0 27.351562-7.550781 7.554688-19.796875 7.554688-27.351563 0-7.550781-7.554688-7.550781-19.800781 0-27.351562 7.554688-7.554688 19.800782-7.554688 27.351563 0zm0 0" fill="#af8066"/><path d="m245.71875 470.636719c7.550781 7.550781 7.550781 19.796875 0 27.351562-7.554688 7.554688-19.800781 7.554688-27.355469 0-7.550781-7.554687-7.550781-19.800781 0-27.351562 7.554688-7.554688 19.800781-7.554688 27.355469 0zm0 0" fill="#af8066"/><path d="m408.65625 154.855469 98.125 98.125c6.894531 6.894531 6.894531 18.074219 0 24.96875l-29.742188 29.742187c-6.894531 6.894532-18.074218 6.894532-24.96875 0l-110.609374-110.609375 42.226562-42.226562c6.894531-6.894531 18.074219-6.894531 24.96875 0zm0 0" fill="#285680"/><path d="m471.386719 258.636719c3.777343 3.777343 3.777343 9.90625 0 13.683593-3.777344 3.777344-9.90625 3.777344-13.683594 0-3.777344-3.777343-3.777344-9.90625 0-13.683593 3.777344-3.777344 9.90625-3.777344 13.683594 0zm0 0" fill="#2c3e50"/><g fill="#24ae5f"><path d="m70.324219 124.0625c-4.875 0-8.828125-3.953125-8.828125-8.828125v-105.929687c0-4.875 3.953125-8.828126 8.828125-8.828126s8.828125 3.953126 8.828125 8.828126v105.929687c0 4.875-3.953125 8.828125-8.828125 8.828125zm0 0"/><path d="m132.117188 124.0625c-4.875 0-8.828126-3.953125-8.828126-8.828125v-105.929687c0-4.875 3.953126-8.828126 8.828126-8.828126s8.828124 3.953126 8.828124 8.828126v105.929687c0 4.875-3.953124 8.828125-8.828124 8.828125zm0 0"/><path d="m132.117188 71.097656h-61.792969c-4.875 0-8.828125-3.953125-8.828125-8.828125s3.953125-8.828125 8.828125-8.828125h61.792969c4.875 0 8.828124 3.953125 8.828124 8.828125s-3.953124 8.828125-8.828124 8.828125zm0 0"/><path d="m352.808594 71.097656h-61.792969c-4.875 0-8.828125-3.953125-8.828125-8.828125s3.953125-8.828125 8.828125-8.828125h61.792969c4.875 0 8.828125 3.953125 8.828125 8.828125s-3.953125 8.828125-8.828125 8.828125zm0 0"/><path d="m352.808594 124.0625h-61.792969c-4.875 0-8.828125-3.953125-8.828125-8.828125s3.953125-8.828125 8.828125-8.828125h61.792969c4.875 0 8.828125 3.953125 8.828125 8.828125s-3.953125 8.828125-8.828125 8.828125zm0 0"/><path d="m352.808594 18.132812h-61.792969c-4.875 0-8.828125-3.953124-8.828125-8.828124s3.953125-8.828126 8.828125-8.828126h61.792969c4.875 0 8.828125 3.953126 8.828125 8.828126s-3.953125 8.828124-8.828125 8.828124zm0 0"/><path d="m238.050781 71.097656h-35.3125c-4.875 0-8.828125-3.953125-8.828125-8.828125v-52.964843c0-4.875 3.953125-8.828126 8.828125-8.828126h35.3125c19.5 0 35.308594 15.808594 35.308594 35.308594 0 19.503906-15.808594 35.3125-35.308594 35.3125zm-26.484375-17.65625h26.484375c9.75 0 17.652344-7.902344 17.652344-17.65625 0-9.75-7.902344-17.652344-17.652344-17.652344h-26.484375zm0 0"/><path d="m202.738281 124.0625c-4.875 0-8.828125-3.953125-8.828125-8.828125v-52.964844c0-4.875 3.953125-8.828125 8.828125-8.828125s8.828125 3.953125 8.828125 8.828125v52.964844c0 4.875-3.953125 8.828125-8.828125 8.828125zm0 0"/><path d="m264.53125 124.0625c-3.359375.019531-6.441406-1.875-7.945312-4.882812l-26.480469-52.964844c-2.183594-4.359375-.414063-9.664063 3.945312-11.847656 4.359375-2.179688 9.664063-.414063 11.847657 3.949218l26.480468 52.964844c1.367188 2.726562 1.230469 5.96875-.367187 8.574219-1.597657 2.601562-4.425781 4.191406-7.480469 4.207031zm0 0"/><path d="m167.429688 124.0625c-4.875 0-8.828126-3.953125-8.828126-8.828125v-105.929687c0-4.875 3.953126-8.828126 8.828126-8.828126s8.828124 3.953126 8.828124 8.828126v105.929687c0 4.875-3.953124 8.828125-8.828124 8.828125zm0 0"/><path d="m291.015625 124.0625c-4.875 0-8.828125-3.953125-8.828125-8.828125v-105.929687c0-4.875 3.953125-8.828126 8.828125-8.828126s8.828125 3.953126 8.828125 8.828126v105.929687c0 4.875-3.953125 8.828125-8.828125 8.828125zm0 0"/><path d="m405.773438 124.0625h-26.484376c-4.875 0-8.824218-3.953125-8.824218-8.828125v-105.929687c0-4.875 3.949218-8.828126 8.824218-8.828126h26.484376c24.363281.027344 44.109374 19.773438 44.136718 44.136719v35.3125c-.027344 24.363281-19.773437 44.109375-44.136718 44.136719zm-17.65625-17.65625h17.65625c14.625 0 26.484374-11.855469 26.484374-26.480469v-35.3125c0-14.625-11.859374-26.480469-26.484374-26.480469h-17.65625zm0 0"/></g><path d="m5.171875 259.828125 98.125-98.125c6.894531-6.894531 18.074219-6.894531 24.96875 0l42.207031 42.207031-110.609375 110.609375c-6.894531 6.894531-18.074219 6.894531-24.96875 0l-29.722656-29.726562c-6.894531-6.894531-6.894531-18.070313 0-24.964844zm0 0" fill="#e64c3c"/><path d="m54.246094 265.472656c3.777344 3.777344 3.777344 9.90625 0 13.683594-3.78125 3.777344-9.90625 3.777344-13.683594 0s-3.777344-9.90625 0-13.683594 9.902344-3.777344 13.683594 0zm0 0" fill="#c03a2b"/></svg>