<svg height="512pt" viewBox="-4 0 511 512" width="512pt" xmlns="http://www.w3.org/2000/svg"><path d="m113.3125 364.472656v34.714844h-78.101562v-34.714844c-.027344 9.574219-7.78125 17.328125-17.355469 17.359375-4.605469.023438-9.019531-1.824219-12.234375-5.121093-3.296875-3.214844-5.144532-7.632813-5.121094-12.238282v-52.066406c0-14.378906 11.65625-26.035156 26.035156-26.035156h78.101563c-14.378907 0-26.035157 11.65625-26.035157 26.035156v52.066406c.070313 9.558594 7.800782 17.285156 17.355469 17.359375 9.574219-.03125 17.328125-7.785156 17.355469-17.359375zm0 0" fill="#4482c3"/><path d="m312.90625 373.152344v121.492187c0 4.792969-3.882812 8.675781-8.675781 8.675781h-17.355469c-4.792969 0-8.679688-3.882812-8.679688-8.675781v-121.492187zm0 0" fill="#a5a5a4"/><path d="m412.703125 121.492188c-2.394531 0-4.339844 1.941406-4.339844 4.339843v21.695313c0 3.652344-2.289062 6.910156-5.722656 8.152344-3.433594 1.246093-7.28125.203124-9.617187-2.601563l-26.753907-30.113281c-.820312-.933594-2.003906-1.46875-3.246093-1.472656h-180.285157c-14.378906 0-26.035156-11.65625-26.035156-26.035157v-69.421875c0-14.378906 11.65625-26.035156 26.035156-26.035156h277.695313c14.378906 0 26.03125 11.65625 26.03125 26.035156v69.421875c0 14.378907-11.652344 26.035157-26.03125 26.035157zm0 0" fill="#894b9d"/><path d="m486.464844 26.035156v69.421875c0 14.378907-11.652344 26.035157-26.03125 26.035157h-47.730469c-2.394531 0-4.339844 1.941406-4.339844 4.339843v21.695313c.007813 3.660156-2.28125 6.929687-5.726562 8.175781-3.441407 1.246094-7.296875.195313-9.632813-2.625l-26.726562-30.113281c-.8125-.921875-1.980469-1.460938-3.210938-1.472656h-41.480468v-121.492188h138.847656c14.378906 0 26.03125 11.65625 26.03125 26.035156zm0 0" fill="#955ba5"/><path d="m117.652344 235.867188c-8.816406 18.199218-29.039063 27.894531-48.753906 23.371093-19.710938-4.523437-33.683594-22.066406-33.683594-42.289062 0-20.226563 13.972656-37.765625 33.683594-42.289063 19.714843-4.523437 39.9375 5.171875 48.753906 23.371094zm0 0" fill="#f09372"/><path d="m35.210938 373.152344c-4.792969 0-8.675782-3.886719-8.675782-8.679688v-43.386718c0-4.792969 3.882813-8.679688 8.675782-8.679688 4.792968 0 8.679687 3.886719 8.679687 8.679688v43.386718c0 4.792969-3.886719 8.679688-8.679687 8.679688zm0 0" fill="#285680"/><path d="m117.652344 494.644531c-.59375.835938-1.261719 1.621094-1.996094 2.34375-6.203125 6.21875-15.550781 8.082031-23.667969 4.71875-8.117187-3.363281-13.402343-11.292969-13.386719-20.078125 0 11.980469-9.710937 21.691406-21.695312 21.691406-11.980469 0-21.695312-9.710937-21.695312-21.691406v-82.441406h78.101562v82.441406c.015625 4.691406 1.539062 9.253906 4.339844 13.015625zm0 0" fill="#2c3e50"/><path d="m78.601562 490.304688c-4.792968 0-8.675781-3.886719-8.675781-8.675782v-39.050781c0-4.792969 3.882813-8.679687 8.675781-8.679687 4.792969 0 8.679688 3.886718 8.679688 8.679687v39.050781c0 4.789063-3.886719 8.675782-8.679688 8.675782zm0 0" fill="#2c2f38"/><path d="m234.804688 312.40625v52.066406c-.027344 9.574219-7.78125 17.328125-17.355469 17.359375-9.554688-.074219-17.285157-7.800781-17.355469-17.359375v34.714844h-86.78125v-34.714844c-.027344 9.574219-7.78125 17.328125-17.355469 17.359375-9.554687-.074219-17.285156-7.800781-17.355469-17.359375v-52.066406c0-14.378906 11.65625-26.035156 26.035157-26.035156h104.132812c14.378907 0 26.035157 11.65625 26.035157 26.035156zm0 0" fill="#e64c3c"/><path d="m200.09375 373.152344c-4.792969 0-8.679688-3.886719-8.679688-8.679688v-43.386718c0-4.792969 3.886719-8.679688 8.679688-8.679688s8.675781 3.886719 8.675781 8.679688v43.386718c0 4.792969-3.882812 8.679688-8.675781 8.679688zm0 0" fill="#c03a2b"/><path d="m113.3125 373.152344c-4.792969 0-8.675781-3.886719-8.675781-8.679688v-43.386718c0-4.792969 3.882812-8.679688 8.675781-8.679688s8.679688 3.886719 8.679688 8.679688v43.386718c0 4.792969-3.886719 8.679688-8.679688 8.679688zm0 0" fill="#c03a2b"/><path d="m200.09375 399.1875v82.441406c0 11.980469-9.714844 21.691406-21.695312 21.691406-11.980469 0-21.695313-9.710937-21.695313-21.691406 0 11.980469-9.710937 21.691406-21.695313 21.691406-11.980468 0-21.695312-9.710937-21.695312-21.691406v-82.441406zm0 0" fill="#35495e"/><path d="m156.703125 490.304688c-4.792969 0-8.675781-3.886719-8.675781-8.675782v-39.050781c0-4.792969 3.882812-8.679687 8.675781-8.679687s8.679687 3.886718 8.679687 8.679687v39.050781c0 4.789063-3.886718 8.675782-8.679687 8.675782zm0 0" fill="#2c3e50"/><path d="m200.09375 216.949219c0 23.964843-19.425781 43.390625-43.390625 43.390625s-43.390625-19.425782-43.390625-43.390625c0-23.964844 19.425781-43.390625 43.390625-43.390625s43.390625 19.425781 43.390625 43.390625zm0 0" fill="#fdd7ad"/><path d="m477.789062 234.304688c0 23.964843-19.425781 43.390624-43.390624 43.390624-23.964844 0-43.390626-19.425781-43.390626-43.390624 0-23.964844 19.425782-43.390626 43.390626-43.390626 23.964843 0 43.390624 19.425782 43.390624 43.390626zm0 0" fill="#fdd7ad"/><path d="m278.195312 338.441406h86.78125c9.582032 0 17.355469 7.769532 17.355469 17.355469s-7.773437 17.355469-17.355469 17.355469h-86.78125c-9.585937 0-17.355468-7.769532-17.355468-17.355469s7.769531-17.355469 17.355468-17.355469zm0 0" fill="#35495e"/><path d="m460.433594 321.085938v78.101562c0 19.167969-15.542969 34.710938-34.714844 34.710938h-43.386719c-4.792969 0-8.679687 3.886718-8.679687 8.679687v42.417969c.175781 9.230468-6.65625 17.097656-15.820313 18.222656-4.835937.394531-9.621093-1.238281-13.203125-4.511719-3.582031-3.273437-5.644531-7.886719-5.6875-12.742187v-52.066406c0-19.171876 15.539063-34.710938 34.710938-34.710938h26.035156c4.792969 0 8.675781-3.886719 8.675781-8.679688v-69.421874c.03125-9.574219 7.785157-17.328126 17.355469-17.355469h17.359375c9.570313.027343 17.324219 7.78125 17.355469 17.355469zm0 0" fill="#3b97d3"/><path d="m408.363281 512c-4.792969 0-8.675781-3.886719-8.675781-8.679688v-69.421874c0-4.792969 3.882812-8.679688 8.675781-8.679688s8.679688 3.886719 8.679688 8.679688v69.421874c0 4.792969-3.886719 8.679688-8.679688 8.679688zm0 0" fill="#a5a5a4"/><path d="m469.109375 512c-4.792969 0-8.675781-3.886719-8.675781-8.679688v-69.421874c0-4.792969 3.882812-8.679688 8.675781-8.679688s8.679687 3.886719 8.679687 8.679688v69.421874c0 4.792969-3.886718 8.679688-8.679687 8.679688zm0 0" fill="#a5a5a4"/><path d="m477.789062 442.578125h-78.101562c-4.792969 0-8.679688-3.886719-8.679688-8.679687 0-4.792969 3.886719-8.679688 8.679688-8.679688h78.101562c4.792969 0 8.675782-3.882812 8.675782-8.675781v-112.8125c0-4.792969 3.886718-8.679688 8.679687-8.679688s8.679688 3.886719 8.679688 8.679688v112.8125c0 14.378906-11.65625 26.035156-26.035157 26.035156zm0 0" fill="#35495e"/><g fill="#3d324c"><path d="m234.804688 95.457031c-2.574219 0-5.015626-1.140625-6.664063-3.113281l-28.046875-33.664062v28.101562c0 4.792969-3.886719 8.675781-8.679688 8.675781-4.792968 0-8.675781-3.882812-8.675781-8.675781v-52.070312c-.003906-3.652344 2.285157-6.917969 5.71875-8.164063 3.4375-1.242187 7.28125-.203125 9.625 2.601563l28.046875 33.664062v-28.101562c0-4.792969 3.882813-8.675782 8.675782-8.675782 4.792968 0 8.679687 3.882813 8.679687 8.675782v52.070312c0 4.792969-3.886719 8.675781-8.679687 8.675781zm0 0"/><path d="m304.230469 95.457031h-34.714844c-4.792969 0-8.675781-3.882812-8.675781-8.675781v-52.070312c0-4.792969 3.882812-8.675782 8.675781-8.675782s8.679687 3.882813 8.679687 8.675782v43.390624h26.035157c4.792969 0 8.675781 3.886719 8.675781 8.679688s-3.882812 8.675781-8.675781 8.675781zm0 0"/><path d="m304.230469 69.421875h-34.714844c-4.792969 0-8.675781-3.882813-8.675781-8.675781 0-4.792969 3.882812-8.679688 8.675781-8.679688h34.714844c4.792969 0 8.675781 3.886719 8.675781 8.679688 0 4.792968-3.882812 8.675781-8.675781 8.675781zm0 0"/><path d="m304.230469 43.390625h-34.714844c-4.792969 0-8.675781-3.886719-8.675781-8.679687 0-4.792969 3.882812-8.675782 8.675781-8.675782h34.714844c4.792969 0 8.675781 3.882813 8.675781 8.675782 0 4.792968-3.882812 8.679687-8.675781 8.679687zm0 0"/><path d="m373.652344 95.457031c-2.902344.003907-5.617188-1.445312-7.226563-3.859375l-34.714843-52.070312c-2.554688-3.984375-1.445313-9.28125 2.492187-11.90625 3.941406-2.625 9.253906-1.609375 11.949219 2.28125l34.710937 52.070312c1.773438 2.660156 1.9375 6.082032.429688 8.898438-1.507813 2.820312-4.445313 4.582031-7.640625 4.585937zm0 0"/><path d="m338.941406 95.457031c-3.199218-.003906-6.136718-1.765625-7.648437-4.585937-1.507813-2.824219-1.339844-6.246094.4375-8.90625l34.710937-52.070313c2.695313-3.890625 8.007813-4.90625 11.949219-2.28125 3.9375 2.625 5.046875 7.921875 2.492187 11.90625l-34.714843 52.066407c-1.609375 2.421874-4.320313 3.875-7.226563 3.871093zm0 0"/><path d="m425.71875 95.457031c-4.789062 0-8.675781-3.882812-8.675781-8.675781v-52.070312c0-4.792969 3.886719-8.675782 8.675781-8.675782 4.792969 0 8.679688 3.882813 8.679688 8.675782v52.070312c0 4.792969-3.886719 8.675781-8.679688 8.675781zm0 0"/><path d="m451.753906 43.390625h-52.066406c-4.792969 0-8.679688-3.886719-8.679688-8.679687 0-4.792969 3.886719-8.675782 8.679688-8.675782h52.066406c4.792969 0 8.679688 3.882813 8.679688 8.675782 0 4.792968-3.886719 8.679687-8.679688 8.679687zm0 0"/></g></svg>