<svg height="512pt" viewBox="0 0 512 512" width="512pt" xmlns="http://www.w3.org/2000/svg"><path d="m370.757812 427.960938v48.730468c0 19.5-15.808593 35.308594-35.308593 35.308594h-300.140625c-19.5 0-35.308594-15.808594-35.308594-35.308594v-441.382812c0-19.5 15.808594-35.308594 35.308594-35.308594h300.140625c19.5 0 35.308593 15.808594 35.308593 35.308594zm0 0" fill="#7f8c8d"/><path d="m335.449219 52.964844v34.164062l-27.894531 90.21875-81.746094 264.03125h-172.84375c-9.738282-.027344-17.625-7.917968-17.65625-17.65625v-370.757812c.03125-9.738282 7.917968-17.625 17.65625-17.65625h264.828125c9.738281.03125 17.625 7.917968 17.65625 17.65625zm0 0" fill="#90bae1"/><path d="m335.449219 52.964844v34.164062l-27.894531 90.21875c-140.800782 24.007813-223.78125 87.832032-272.246094 140.535156v-264.917968c.03125-9.738282 7.917968-17.625 17.65625-17.65625h264.828125c9.738281.03125 17.625 7.917968 17.65625 17.65625zm0 0" fill="#b0d3f0"/><g fill="#3d324c"><path d="m203.300781 105.929688h-123.851562c-4.875 0-8.828125-3.949219-8.828125-8.828126 0-4.875 3.953125-8.824218 8.828125-8.824218h123.851562c4.875 0 8.824219 3.949218 8.824219 8.824218 0 4.878907-3.949219 8.828126-8.824219 8.828126zm0 0"/><path d="m152.804688 141.242188h-73.355469c-4.875 0-8.828125-3.953126-8.828125-8.828126s3.953125-8.828124 8.828125-8.828124h73.355469c4.875 0 8.828124 3.953124 8.828124 8.828124s-3.953124 8.828126-8.828124 8.828126zm0 0"/><path d="m124.558594 176.550781h-45.109375c-4.875 0-8.828125-3.953125-8.828125-8.828125s3.953125-8.824218 8.828125-8.824218h45.109375c4.875 0 8.828125 3.949218 8.828125 8.824218s-3.953125 8.828125-8.828125 8.828125zm0 0"/><path d="m107.609375 211.863281h-28.160156c-4.875 0-8.828125-3.953125-8.828125-8.828125s3.953125-8.828125 8.828125-8.828125h28.160156c4.875 0 8.828125 3.953125 8.828125 8.828125s-3.953125 8.828125-8.828125 8.828125zm0 0"/><path d="m99.046875 247.171875h-19.597656c-4.875 0-8.828125-3.953125-8.828125-8.828125s3.953125-8.828125 8.828125-8.828125h19.597656c4.875 0 8.828125 3.953125 8.828125 8.828125s-3.953125 8.828125-8.828125 8.828125zm0 0"/><path d="m97.367188 282.484375h-17.917969c-4.875 0-8.828125-3.953125-8.828125-8.828125s3.953125-8.828125 8.828125-8.828125h17.917969c4.875 0 8.828124 3.953125 8.828124 8.828125s-3.953124 8.828125-8.828124 8.828125zm0 0"/><path d="m102.398438 317.792969h-22.949219c-4.875 0-8.828125-3.953125-8.828125-8.828125s3.953125-8.828125 8.828125-8.828125h22.949219c4.875 0 8.828124 3.953125 8.828124 8.828125s-3.953124 8.828125-8.828124 8.828125zm0 0"/><path d="m114.933594 353.101562h-35.484375c-4.875 0-8.828125-3.949218-8.828125-8.824218s3.953125-8.828125 8.828125-8.828125h35.484375c4.875 0 8.828125 3.953125 8.828125 8.828125s-3.953125 8.824218-8.828125 8.824218zm0 0"/><path d="m136.914062 388.414062h-57.464843c-4.875 0-8.828125-3.953124-8.828125-8.828124s3.953125-8.828126 8.828125-8.828126h57.464843c4.878907 0 8.828126 3.953126 8.828126 8.828126s-3.949219 8.828124-8.828126 8.828124zm0 0"/></g><path d="m282.484375 450.207031c88.4375-.003906 164.5625-62.476562 181.8125-149.21875 17.25-86.742187-29.175781-173.589843-110.882813-207.429687-81.710937-33.84375-175.945312-5.253906-225.078124 68.285156-49.132813 73.535156-39.472657 171.539062 23.066406 234.074219 34.6875 34.878906 81.890625 54.425781 131.082031 54.289062zm0 0" fill="#894b9d"/><path d="m388.589844 370.933594c-58.601563 58.597656-153.609375 58.597656-212.214844 0-10.515625-10.457032-19.386719-22.453125-26.304688-35.574219-36.289062-68.101563-15.019531-152.621094 49.183594-195.429687 64.203125-42.808594 150.402344-29.953126 199.320313 29.730468 48.914062 59.679688 44.597656 146.726563-9.984375 201.273438zm0 0" fill="#90bae1"/><path d="m428.933594 232.078125c-139.917969-35.753906-230.136719 42.636719-278.863282 103.28125-27.558593-51.601563-22.617187-114.511719 12.65625-161.179687 35.273438-46.667969 94.449219-68.582032 151.613282-56.152344 57.160156 12.433594 101.886718 56.949218 114.59375 114.050781zm0 0" fill="#b0d3f0"/><path d="m393.535156 413.308594 73.269532 73.269531c10.234374 9.640625 26.222656 9.601563 36.414062-.09375 10.1875-9.695313 11.019531-25.664063 1.894531-36.367187-.269531-.339844-.566406-.667969-.882812-.96875l-69.558594-69.5625-3.710937-3.707032zm0 0" fill="#955ba5"/><path d="m211.863281 485.515625h-52.964843c-4.878907 0-8.828126-3.949219-8.828126-8.824219 0-4.878906 3.949219-8.828125 8.828126-8.828125h52.964843c4.875 0 8.828125 3.949219 8.828125 8.828125 0 4.875-3.953125 8.824219-8.828125 8.824219zm0 0" fill="#35495e"/><path d="m189.792969 317.792969c-17.0625 0-30.894531-13.832031-30.894531-30.894531 0-4.878907 3.949218-8.828126 8.824218-8.828126s8.828125 3.949219 8.828125 8.828126c0 7.3125 5.929688 13.238281 13.242188 13.238281s13.242187-5.925781 13.242187-13.238281v-66.207032c0-4.878906 3.953125-8.828125 8.828125-8.828125s8.828125 3.949219 8.828125 8.828125v66.207032c0 17.0625-13.835937 30.894531-30.898437 30.894531zm0 0" fill="#3d324c"/><path d="m238.34375 229.515625h-52.964844c-4.875 0-8.828125-3.949219-8.828125-8.824219 0-4.878906 3.953125-8.828125 8.828125-8.828125h52.964844c4.875 0 8.828125 3.949219 8.828125 8.828125 0 4.875-3.953125 8.824219-8.828125 8.824219zm0 0" fill="#3d324c"/><path d="m282.484375 317.792969c-19.503906 0-35.3125-15.808594-35.3125-35.308594v-35.3125c0-19.5 15.808594-35.308594 35.3125-35.308594 19.5 0 35.308594 15.808594 35.308594 35.308594v35.3125c0 19.5-15.808594 35.308594-35.308594 35.308594zm0-88.277344c-9.753906 0-17.65625 7.90625-17.65625 17.65625v35.3125c0 9.75 7.902344 17.652344 17.65625 17.652344 9.75 0 17.652344-7.902344 17.652344-17.652344v-35.3125c0-9.75-7.902344-17.65625-17.652344-17.65625zm0 0" fill="#3d324c"/><path d="m366.34375 317.792969h-22.066406c-9.753906 0-17.65625-7.90625-17.65625-17.65625v-35.308594c0-4.875 3.953125-8.828125 8.828125-8.828125h30.894531c17.066406 0 30.898438 13.832031 30.898438 30.898438 0 17.0625-13.832032 30.894531-30.898438 30.894531zm-22.066406-44.136719v26.480469h22.066406c7.3125 0 13.242188-5.925781 13.242188-13.238281 0-7.316407-5.929688-13.242188-13.242188-13.242188zm0 0" fill="#3d324c"/><path d="m366.34375 273.65625h-30.894531c-4.875 0-8.828125-3.953125-8.828125-8.828125v-35.3125c0-9.75 7.902344-17.652344 17.65625-17.652344h22.066406c17.066406 0 30.898438 13.832031 30.898438 30.894531 0 17.066407-13.832032 30.898438-30.898438 30.898438zm-22.066406-17.65625h22.066406c7.3125 0 13.242188-5.929688 13.242188-13.242188s-5.929688-13.242187-13.242188-13.242187h-22.066406zm0 0" fill="#3d324c"/></svg>