<svg height="512pt" viewBox="-4 0 512 512.00456" width="512pt" xmlns="http://www.w3.org/2000/svg"><g fill="#a5a5a4"><path d="m251.664062 512.003906c-4.792968 0-8.679687-3.882812-8.679687-8.675781v-43.390625c0-4.792969 3.886719-8.679688 8.679687-8.679688 4.792969 0 8.675782 3.886719 8.675782 8.679688v43.390625c0 4.792969-3.882813 8.675781-8.675782 8.675781zm0 0"/><path d="m208.273438 512.003906c-4.164063.007813-7.75-2.945312-8.539063-7.035156-.785156-4.089844 1.441406-8.164062 5.3125-9.703125l43.386719-17.355469c4.453125-1.78125 9.503906.382813 11.28125 4.832032 1.78125 4.449218-.382813 9.5-4.832032 11.28125l-43.390624 17.355468c-1.023438.410156-2.117188.625-3.21875.625zm0 0"/><path d="m295.054688 512.003906c-1.105469 0-2.195313-.207031-3.222657-.617187l-43.386719-17.355469c-4.453124-1.777344-6.617187-6.832031-4.835937-11.28125s6.832031-6.613281 11.28125-4.832031l43.390625 17.355469c3.859375 1.546874 6.074219 5.617187 5.289062 9.695312-.789062 4.082031-4.359374 7.035156-8.515624 7.035156zm0 0"/></g><path d="m156.207031 312.410156v52.070313c-.03125 9.570312-7.785156 17.324219-17.355469 17.355469-9.558593-.070313-17.285156-7.800782-17.359374-17.355469v34.710937h-86.777344v-34.710937c-.027344 9.570312-7.78125 17.324219-17.355469 17.355469-4.605469.023437-9.023437-1.824219-12.238281-5.121094-3.296875-3.214844-5.1445315-7.632813-5.11718775-12.234375v-52.070313c0-14.378906 11.65624975-26.03125 26.03124975-26.03125h104.136719c14.378906 0 26.035156 11.652344 26.035156 26.03125zm0 0" fill="#e64c3c"/><path d="m121.492188 373.15625c-4.789063 0-8.675782-3.882812-8.675782-8.675781v-43.390625c0-4.792969 3.886719-8.679688 8.675782-8.679688 4.792968 0 8.679687 3.886719 8.679687 8.679688v43.390625c0 4.792969-3.886719 8.675781-8.679687 8.675781zm0 0" fill="#c03a2b"/><path d="m34.714844 373.15625c-4.792969 0-8.679688-3.882812-8.679688-8.675781v-43.390625c0-4.792969 3.886719-8.679688 8.679688-8.679688 4.792968 0 8.675781 3.886719 8.675781 8.679688v43.390625c0 4.792969-3.882813 8.675781-8.675781 8.675781zm0 0" fill="#c03a2b"/><path d="m121.492188 399.191406v82.441406c0 11.980469-9.710938 21.695313-21.691407 21.695313-11.984375 0-21.695312-9.714844-21.695312-21.695313 0 11.980469-9.714844 21.695313-21.695313 21.695313-11.984375 0-21.695312-9.714844-21.695312-21.695313v-82.441406zm0 0" fill="#35495e"/><path d="m78.105469 490.308594c-5.152344-.390625-9.023438-4.859375-8.679688-10.011719v-45.058594c-.34375-5.152343 3.527344-9.621093 8.679688-10.011719 5.148437.390626 9.019531 4.859376 8.675781 10.011719v45.058594c.34375 5.152344-3.527344 9.621094-8.675781 10.011719zm0 0" fill="#2c3e50"/><path d="m121.492188 216.953125c0 23.964844-19.425782 43.390625-43.386719 43.390625-23.964844 0-43.390625-19.425781-43.390625-43.390625s19.425781-43.390625 43.390625-43.390625c23.960937 0 43.386719 19.425781 43.386719 43.390625zm0 0" fill="#fdd7ad"/><path d="m503.324219 312.410156v52.070313c-.027344 9.570312-7.78125 17.324219-17.355469 17.355469-9.554688-.070313-17.285156-7.800782-17.355469-17.355469v34.710937h-86.78125v-34.710937c-.027343 9.570312-7.78125 17.324219-17.355469 17.355469-9.554687-.070313-17.285156-7.800782-17.355468-17.355469v-52.070313c0-14.378906 11.65625-26.03125 26.035156-26.03125h104.132812c14.378907 0 26.035157 11.652344 26.035157 26.03125zm0 0" fill="#e64c3c"/><path d="m468.613281 373.15625c-4.792969 0-8.679687-3.882812-8.679687-8.675781v-43.390625c0-4.792969 3.886718-8.679688 8.679687-8.679688s8.675781 3.886719 8.675781 8.679688v43.390625c0 4.792969-3.882812 8.675781-8.675781 8.675781zm0 0" fill="#c03a2b"/><path d="m381.832031 373.15625c-4.792969 0-8.675781-3.882812-8.675781-8.675781v-43.390625c0-4.792969 3.882812-8.679688 8.675781-8.679688s8.679688 3.886719 8.679688 8.679688v43.390625c0 4.792969-3.886719 8.675781-8.679688 8.675781zm0 0" fill="#c03a2b"/><path d="m468.613281 399.191406v82.441406c0 11.980469-9.714843 21.695313-21.695312 21.695313s-21.695313-9.714844-21.695313-21.695313c0 11.980469-9.714844 21.695313-21.695312 21.695313-11.980469 0-21.695313-9.714844-21.695313-21.695313v-82.441406zm0 0" fill="#35495e"/><path d="m425.222656 490.308594c-5.148437-.390625-9.019531-4.859375-8.679687-10.011719v-45.058594c-.480469-3.390625 1.0625-6.753906 3.945312-8.605469 2.886719-1.851562 6.582031-1.851562 9.46875 0 2.882813 1.851563 4.425781 5.214844 3.945313 8.605469v45.058594c.34375 5.152344-3.53125 9.621094-8.679688 10.011719zm0 0" fill="#2c3e50"/><path d="m468.613281 216.953125c0 23.964844-19.425781 43.390625-43.390625 43.390625s-43.390625-19.425781-43.390625-43.390625 19.425781-43.390625 43.390625-43.390625 43.390625 19.425781 43.390625 43.390625zm0 0" fill="#fdd7ad"/><path d="m208.273438 390.511719h86.78125c9.585937 0 17.355468 7.773437 17.355468 17.355469 0 9.585937-7.769531 17.359374-17.355468 17.359374h-86.78125c-9.585938 0-17.355469-7.773437-17.355469-17.359374 0-9.582032 7.769531-17.355469 17.355469-17.355469zm0 0" fill="#35495e"/><path d="m284.726562 347.125h-66.125c-4.875-.007812-9.523437-2.058594-12.804687-5.660156-3.285156-3.597656-4.90625-8.414063-4.464844-13.269532l5.519531-60.746093c.8125-8.933594 8.296876-15.777344 17.269532-15.785157h55.078125c8.976562 0 16.472656 6.847657 17.285156 15.785157l5.519531 60.746093c.441406 4.855469-1.179687 9.671876-4.464844 13.273438-3.289062 3.601562-7.9375 5.652344-12.8125 5.65625zm0 0" fill="#35495e"/><path d="m234.308594 347.125h34.710937v43.386719h-34.710937zm0 0" fill="#d1d4d1"/><path d="m234.308594 425.226562h34.710937v26.03125c0 4.792969-3.886719 8.679688-8.679687 8.679688h-17.355469c-4.792969 0-8.675781-3.886719-8.675781-8.679688zm0 0" fill="#d1d4d1"/><path d="m86.78125 286.378906v69.421875c0 4.792969-3.882812 8.679688-8.675781 8.679688s-8.679688-3.886719-8.679688-8.679688v-69.421875zm0 0" fill="#c03a2b"/><path d="m433.902344 286.378906v69.421875c0 4.792969-3.886719 8.679688-8.679688 8.679688-4.792968 0-8.679687-3.886719-8.679687-8.679688v-69.421875zm0 0" fill="#c03a2b"/><path d="m140.847656.0898438c-.578125-.0742188-1.15625-.1015626-1.738281-.08593755h-.519531c-48.3125.23437475-92.5625 27.08593775-115.078125 69.83203175-2.894531 5.386718-2.757813 11.894531.363281 17.152343 3.121094 5.257813 8.769531 8.496094 14.882812 8.535157 6.453126.011718 12.371094-3.578126 15.34375-9.304688 20.253907-39.078125 64.605469-59.238281 107.367188-48.808594 42.761719 10.429688 72.851562 48.746094 72.839844 92.765625h-33.757813c-1.179687-.03125-2.3125.445313-3.125 1.300781-1.574219 1.625-1.648437 4.183594-.171875 5.898438l51.199219 58.492188c.796875.949218 1.972656 1.496093 3.210937 1.496093 1.238282 0 2.414063-.546875 3.210938-1.496093l51.199219-58.492188c1.476562-1.714844 1.398437-4.273438-.171875-5.898438-.796875-.824218-1.890625-1.292968-3.039063-1.300781h-33.84375c.042969-44.074219 30.25-82.386719 73.097657-92.710937 42.84375-10.324219 87.1875 10.023437 107.300781 49.242187 2.9375 5.753907 8.847656 9.378907 15.308593 9.398438h.085938c6.113281-.019531 11.773438-3.234375 14.914062-8.480469 3.144532-5.25 3.308594-11.757812.4375-17.15625-22.417968-43.085938-66.855468-70.214844-115.425781-70.46484375h-.523437c-.578125-.01562505-1.160156.01171875-1.734375.08593755l2.257812-.08593755h-.523437c-.578125-.01562505-1.160156.01171875-1.734375.08593755-45.847657.7343752-87.9375 25.5195312-110.816407 65.2617182-22.882812-39.742187-64.96875-64.527343-110.816406-65.2617182-.578125-.0742188-1.15625-.1015626-1.738281-.08593755h-.519531zm0 0" fill="#894b9d"/></svg>