<svg height="512pt" viewBox="0 0 512.16759 512" width="512pt" xmlns="http://www.w3.org/2000/svg"><path d="m503.460938 225.714844c0 119.816406-97.132813 216.949218-216.949219 216.949218-119.816407 0-216.949219-97.132812-216.949219-216.949218s97.132812-216.949219 216.949219-216.949219c119.816406 0 216.949219 97.132813 216.949219 216.949219zm0 0" fill="#b49aca"/><path d="m260.476562 457.851562c0 54.238282-130.167968 54.238282-130.167968 54.238282s-130.167969 0-130.167969-54.238282c-1.140625-18.640624 4.742187-37.03125 16.488281-51.546874 16.335938-14.855469 37.378906-23.488282 59.441406-24.386719 0 0 0 32.542969 54.238282 75.933593 54.238281-43.390624 54.238281-75.933593 54.238281-75.933593 22.0625.898437 43.105469 9.53125 59.445313 24.386719 11.742187 14.515624 17.625 32.90625 16.484374 51.546874zm0 0" fill="#285680"/><path d="m184.546875 381.917969s0 32.542969-54.238281 75.933593c-54.238282-43.390624-54.238282-75.933593-54.238282-75.933593 17.554688 5.875 35.777344 9.519531 54.238282 10.847656 18.460937-1.328125 36.683594-4.972656 54.238281-10.847656zm0 0" fill="#e6e7e8"/><path d="m184.546875 381.917969c-17.554687 5.875-35.777344 9.519531-54.238281 10.847656-18.460938-1.328125-36.683594-4.972656-54.238282-10.847656 21.695313-32.542969 21.695313-52.066407 21.695313-52.066407h65.085937s0 19.523438 21.695313 52.066407zm0 0" fill="#f09372"/><g fill="#3d324c"><path d="m294.402344 451.167969c-3.101563.054687-5.996094-1.550781-7.589844-4.210938-1.597656-2.65625-1.652344-5.964843-.148438-8.675781 1.503907-2.710938 4.339844-4.414062 7.441407-4.46875 112.191406-3.609375 201.140625-95.847656 200.679687-208.097656 0-3.984375-.078125-7.878906-.332031-11.855469-.355469-5.734375-.867187-10.871094-1.585937-15.800781-13.09375-100.476563-96.910157-176.761719-198.171876-180.363282-5.378906-.347656-10.773437-.347656-16.148437 0-101.300781 3.511719-185.207031 79.75-198.378906 180.25-.726563 4.660157-5.042969 7.886719-9.71875 7.265626-4.679688-.621094-8-4.867188-7.480469-9.554688 14.226562-108.824219 105.03125-191.414062 214.710938-195.300781 5.953124-.3632815 11.921874-.3632815 17.875 0 109.617187 3.957031 200.328124 86.546875 214.511718 195.316406.761719 5.300781 1.328125 10.890625 1.734375 17 .269531 4.433594.363281 8.679687.363281 13.015625.519532 121.636719-95.875 221.585938-217.449218 225.472656zm0 0"/><path d="m286.511719 303.816406c-22.507813.03125-44.996094-1.386718-67.324219-4.234375-4.753906-.613281-8.109375-4.964843-7.496094-9.71875.613282-4.753906 4.964844-8.113281 9.71875-7.5 43.21875 5.441407 86.949219 5.441407 130.167969 0 32.105469-3.542969 63.53125-11.699219 93.308594-24.210937 29.503906-13.222656 47.109375-29.503906 49.59375-45.773438 0-.210937 0-.417968.078125-.601562.167968-1.128906.246094-2.273438.226562-3.417969-.011718-2.957031-.527344-5.890625-1.519531-8.679687-5.371094-16.339844-25.347656-32.105469-56.304687-44.535157-28.839844-10.945312-58.972657-18.121093-89.652344-21.355469h-.390625c-20.046875-2.375-40.21875-3.554687-60.40625-3.53125-12.21875 0-23.429688.363282-34.285157 1.109376-4.792968.328124-8.945312-3.289063-9.273437-8.082032-.328125-4.792968 3.289063-8.945312 8.082031-9.273437 11.257813-.738281 22.859375-1.109375 35.476563-1.109375 20.777343-.035156 41.542969 1.160156 62.179687 3.582031h.363282c32.300781 3.417969 64.027343 11 94.382812 22.5625 36.308594 14.582031 59.21875 33.621094 66.273438 55.0625 1.601562 4.582031 2.421874 9.398437 2.429687 14.25.011719 1.953125-.121094 3.90625-.398437 5.839844v.332031c-3.238282 22.847656-23.890626 43.386719-59.714844 59.460938-31.320313 13.203124-64.382813 21.820312-98.164063 25.589843-22.335937 2.851563-44.832031 4.265625-67.351562 4.234375zm0 0"/><path d="m71.558594 205.496094c-2.78125 0-5.394532-1.335938-7.027344-3.589844s-2.085938-5.152344-1.214844-7.796875c7.054688-21.441406 29.964844-40.480469 66.273438-55.0625 22.246094-8.695313 45.355468-15 68.9375-18.8125 4.683594-.730469 9.089844 2.433594 9.890625 7.109375.800781 4.671875-2.296875 9.125-6.957031 9.996094-22.363282 3.601562-44.28125 9.574218-65.382813 17.804687-30.96875 12.445313-50.945313 28.203125-56.265625 44.390625-1.175781 3.558594-4.503906 5.964844-8.253906 5.960938zm0 0"/><path d="m294.402344 451.082031c-4.792969.144531-8.796875-3.621093-8.945313-8.414062-.144531-4.792969 3.621094-8.796875 8.414063-8.941407 72.390625-4.496093 132.417968-73.945312 145.972656-168.898437 1.9375-12.949219 2.898438-26.023437 2.871094-39.113281.0625-25.773438-3.589844-51.421875-10.835938-76.15625-22.425781-76.039063-76.375-127.777344-137.433594-131.871094-5.296874-.339844-10.609374-.339844-15.90625 0-61.015624 4.078125-114.96875 55.832031-137.390624 131.90625-2.566407 8.472656-4.636719 17.085938-6.207032 25.796875-.847656 4.71875-5.359375 7.855469-10.078125 7.007813-4.71875-.847657-7.855469-5.359376-7.007812-10.078126 1.6875-9.355468 3.910156-18.601562 6.664062-27.699218 24.480469-83.058594 84.507813-139.683594 152.90625-144.253906 6.039063-.3750005 12.097657-.3750005 18.136719 0 68.433594 4.5625 128.433594 61.195312 152.957031 144.269531 7.71875 26.332031 11.609375 53.636719 11.550781 81.078125.027344 13.941406-.992187 27.867187-3.054687 41.65625-14.75 103.117187-81.371094 178.6875-162.078125 183.683594zm0 0"/><path d="m354.710938 194.820312c-4.605469.007813-8.414063-3.582031-8.675782-8.183593-1.097656-19.738281-3.230468-39.40625-6.394531-58.921875-.113281-.375-.203125-.757813-.269531-1.144532-12.496094-74.976562-36.164063-109.125-52.859375-109.125-.375-.03125-.753907-.03125-1.128907 0-17.355468 1.671876-35.640624 34.710938-46.902343 84.078126-.613281 3.101562-2.863281 5.625-5.875 6.582031-3.011719.960937-6.308594.210937-8.601563-1.960938-2.296875-2.171875-3.230468-5.421875-2.4375-8.480469 7.957032-34.902343 26.589844-94.027343 61.933594-97.445312 1-.097656 2.007812-.1445312 3.011719-.1289062 30.753906 0 56.816406 45.7500002 69.804687 122.4453122.121094.386719.210938.78125.277344 1.179688 3.375 20.511718 5.640625 41.1875 6.789062 61.941406.269532 4.785156-3.382812 8.882812-8.167968 9.15625zm0 0"/><path d="m294.324219 449.953125c-4.238281 0-7.855469-3.058594-8.558594-7.238281-.703125-4.179688 1.714844-8.253906 5.71875-9.640625 11.992187-4.15625 24.488281-23.046875 34.269531-51.859375.996094-2.9375 3.484375-5.121094 6.527344-5.726563s6.175781.460938 8.222656 2.792969 2.691406 5.578125 1.695313 8.515625c-8.277344 24.347656-22.804688 54.984375-45.03125 62.6875-.914063.3125-1.878907.472656-2.84375.46875zm0 0"/><path d="m346.660156 342.609375c-.539062-.003906-1.078125-.054687-1.605468-.148437-2.265626-.421876-4.269532-1.726563-5.570313-3.625-1.300781-1.898438-1.796875-4.238282-1.371094-6.503907 2.382813-12.746093 4.398438-26.960937 5.96875-42.253906 1.734375-16.488281 2.742188-34.023437 3.082031-52.117187.054688-3.101563 1.761719-5.9375 4.476563-7.4375s6.023437-1.4375 8.679687.160156c2.65625 1.601562 4.253907 4.496094 4.199219 7.597656-.355469 18.578125-1.425781 36.601562-3.167969 53.578125-1.632812 15.757813-3.714843 30.460937-6.179687 43.660156-.761719 4.101563-4.339844 7.078125-8.511719 7.089844zm0 0"/><path d="m231.398438 366.125c-3.988282-.003906-7.460938-2.722656-8.417969-6.59375-5.351563-22.269531-9.121094-44.890625-11.28125-67.691406l-1.050781-11.070313c0-.269531 0-.703125 0-.972656-.492188-5.40625-.867188-11.394531-1.195313-17.546875-.722656-12.503906-1.042969-24.75-1.042969-36.535156-.046875-25.339844 1.402344-50.660156 4.339844-75.828125.351562-3.089844 2.328125-5.757813 5.1875-6.988281 2.855469-1.234376 6.152344-.839844 8.640625 1.027343 2.492187 1.867188 3.789063 4.921875 3.40625 8.007813-2.859375 24.492187-4.265625 49.125-4.21875 73.78125 0 11.488281.320313 23.429687.945313 35.476562.339843 6.023438.679687 11.84375 1.191406 17.660156v.925782l.996094 10.363281c2.09375 21.96875 5.738281 43.761719 10.902343 65.214844 1.148438 4.652343-1.6875 9.355469-6.335937 10.507812-.675782.167969-1.371094.253907-2.066406.261719zm0 0"/><path d="m160.585938 215.5625c-3.269532-.015625-6.25-1.863281-7.71875-4.785156-1.464844-2.921875-1.164063-6.417969.777343-9.046875l46.6875-63.261719c1.839844-2.496094 4.875-3.816406 7.953125-3.46875 3.082032.347656 5.742188 2.3125 6.984375 5.152344 1.238281 2.84375.867188 6.128906-.976562 8.625l-46.6875 63.261718c-1.644531 2.226563-4.25 3.535157-7.019531 3.523438zm0 0"/><path d="m171.304688 269.105469c-4.320313-.011719-7.976563-3.199219-8.574219-7.476563-.597657-4.28125 2.042969-8.347656 6.195312-9.542968l158.574219-45.382813c4.605469-1.332031 9.417969 1.324219 10.746094 5.929687 1.328125 4.605469-1.324219 9.417969-5.929688 10.75l-158.617187 45.394532c-.78125.214844-1.585938.328125-2.394531.328125zm0 0"/><path d="m316.886719 368.292969c-.996094 0-1.984375-.171875-2.917969-.511719l-138.074219-49.367188c-2.929687-1.039062-5.078125-3.5625-5.636719-6.617187-.558593-3.058594.558594-6.179687 2.929688-8.1875 2.371094-2.003906 5.632812-2.59375 8.554688-1.535156l138.058593 49.367187c3.976563 1.417969 6.359375 5.492188 5.640625 9.65625-.722656 4.160156-4.332031 7.199219-8.554687 7.195313zm0 0"/></g><path d="m178.90625 256.332031c4.441406-3.566406 10.195312-5.0625 15.8125-4.113281 8.078125 2.230469 4.035156 22.5625 4.035156 22.5625s-3.628906 14.351562-25.332031 21.441406h-88.109375c-10.902344-2.859375-19.707031-10.882812-23.558594-21.476562 0 0-3.679687-20.296875 3.871094-22.5625 5.234375-.9375 10.609375.578125 14.585938 4.113281zm0 0" fill="#f09372"/><path d="m182.53125 238.730469c-1.898438-37.191407-49.460938-39.050781-49.460938-39.050781h-7.621093s-47.597657 1.859374-49.464844 39.050781c-1.863281 37.195312 3.808594 40.910156 3.808594 53.925781 0 13.019531-3.867188 24.175781 11.359375 37.195312 15.230468 13.015626 15.230468 26.035157 30.460937 26.035157h15.230469c15.230469 0 15.230469-13.019531 30.460938-26.035157 15.226562-13.019531 11.417968-24.175781 11.417968-37.195312 0-13.015625 5.71875-16.730469 3.808594-53.925781zm0 0" fill="#fdd7ad"/><path d="m251.800781 125.269531c0 14.375-11.65625 26.03125-26.035156 26.03125s-26.03125-11.65625-26.03125-26.03125c0-14.378906 11.652344-26.035156 26.03125-26.035156s26.035156 11.65625 26.035156 26.035156zm0 0" fill="#894b9d"/><path d="m381.96875 212.046875c0 14.378906-11.65625 26.035156-26.03125 26.035156-14.378906 0-26.035156-11.65625-26.035156-26.035156s11.65625-26.035156 26.035156-26.035156c14.375 0 26.03125 11.65625 26.03125 26.035156zm0 0" fill="#894b9d"/><path d="m368.953125 359.574219c0 14.375-11.65625 26.03125-26.035156 26.03125-14.375 0-26.03125-11.65625-26.03125-26.03125 0-14.378907 11.65625-26.035157 26.03125-26.035157 14.378906 0 26.035156 11.65625 26.035156 26.035157zm0 0" fill="#894b9d"/></svg>