<svg height="512pt" viewBox="-3 0 512 512" width="512pt" xmlns="http://www.w3.org/2000/svg"><path d="m312.3125 112.992188c5.328125-5.359376 12.960938-7.738282 20.390625-6.355469 10.417969 3.441406 5.207031 34.78125 5.207031 34.78125-4.890625 15.667969-17.058594 28-32.660156 33.101562h-179.199219c-15.613281-5.117187-27.800781-17.4375-32.753906-33.101562 0 0-5.117187-31.339844 5.386719-34.78125 7.402344-1.386719 15.011718.996093 20.304687 6.355469zm0 0" fill="#f09372"/><path d="m344.621094 495.757812c-42.238282 10.285157-85.503906 15.734376-128.972656 16.242188 0 0-215.648438 0-215.648438-89.863281 0-29.75 6.003906-62.675781 27.367188-85.363281 23.039062-24.542969 65.585937-38.753907 98.425781-40.429688h179.730469c18.449218 1.140625 36.597656 5.222656 53.757812 12.09375.125-.015625.25.015625.355469.085938zm0 0" fill="#285680"/><path d="m506.4375 406.070312c0 58.503907-47.425781 105.929688-105.929688 105.929688-58.503906 0-105.929687-47.425781-105.929687-105.929688 0-58.503906 47.425781-105.933593 105.929687-105.933593 58.503907 0 105.929688 47.429687 105.929688 105.933593zm0 0" fill="#b0d3f0"/><path d="m305.167969 168.164062c0 23.484376 6.886719 43.699219-20.65625 67.269532-5.414063 4.640625-10.378907 9.78125-14.828125 15.359375-14.035156 17.390625-18.804688 31.691406-40.253906 31.691406h-27.542969c-21.449219 0-26.21875-14.300781-40.253907-31.691406-4.449218-5.578125-9.414062-10.71875-14.828124-15.359375-27.542969-23.570313-20.660157-43.785156-20.660157-67.269532 0-23.480468-10.328125-30.277343-6.882812-97.542968 3.441406-67.265625 89.511719-70.621094 89.511719-70.621094h13.769531s86.070312 3.355469 89.511719 70.621094c3.441406 67.265625-6.886719 73.976562-6.886719 97.542968zm0 0" fill="#fdd7ad"/><path d="m305.523438 296.34375s0 41.046875-59.761719 99.308594l-21.804688-33.722656-8.300781-8.828126c9.742188-.027343 17.628906-7.914062 17.65625-17.652343v-22.335938c24.515625-3.472656 48.675781-9.085937 72.210938-16.769531zm0 0" fill="#e6e7e8"/><path d="m207.183594 350.984375-.351563 2.117187-21.277343 42.550782c-59.761719-58.261719-59.761719-99.308594-59.761719-99.308594 23.535156 7.683594 47.695312 13.296875 72.210937 16.769531v22.335938c-.019531 6.46875 3.503906 12.429687 9.179688 15.535156zm0 0" fill="#e6e7e8"/><path d="m245.761719 395.652344c-8.652344 8.472656-18.6875 17.300781-30.105469 26.484375-11.386719-9.183594-21.421875-18.011719-30.101562-26.484375l21.277343-42.550782.351563-2.117187c2.609375 1.390625 5.519531 2.121094 8.472656 2.117187l-.527344-17.652343zm0 0" fill="#c03a2b"/><path d="m305.523438 296.34375c-23.535157 7.683594-47.695313 13.296875-72.210938 16.769531-.140625-2.332031-2.074219-4.152343-4.414062-4.148437h-26.480469c-2.339844-.003906-4.273438 1.816406-4.414063 4.148437-24.515625-3.472656-48.675781-9.085937-72.210937-16.769531 20.160156-6.390625 34.371093-24.453125 35.839843-45.550781 14.035157 17.390625 18.804688 31.691406 40.253907 31.691406h27.542969c21.449218 0 26.21875-14.300781 40.253906-31.691406 1.46875 21.097656 15.675781 39.160156 35.839844 45.550781zm0 0" fill="#f09372"/><path d="m233.3125 313.113281v22.335938c-.027344 9.738281-7.914062 17.625-17.65625 17.652343-2.953125.003907-5.863281-.726562-8.472656-2.117187-5.675782-3.105469-9.199219-9.066406-9.179688-15.535156v-22.335938c.140625-2.332031 2.074219-4.152343 4.414063-4.148437h26.480469c2.339843-.003906 4.273437 1.816406 4.414062 4.148437zm0 0" fill="#e64c3c"/><path d="m361.542969 462.6875-22.828125-22.828125c-6.894532-6.894531-6.894532-18.070313 0-24.960937 6.894531-6.894532 18.070312-6.894532 24.964844 0l7.21875 7.21875c1.726562 1.722656 4.519531 1.722656 6.242187 0l60.195313-60.1875c6.894531-6.890626 18.070312-6.890626 24.964843 0 6.890625 6.894531 6.890625 18.070312 0 24.964843l-75.792969 75.792969c-6.894531 6.894531-18.070312 6.894531-24.964843 0zm0 0" fill="#24ae5f"/></svg>