<svg height="512pt" viewBox="0 0 512 512" width="512pt" xmlns="http://www.w3.org/2000/svg"><path d="m194.207031 97.101562c0 9.753907-7.90625 17.65625-17.65625 17.65625h-7.792969c-1.929687.019532-3.617187 1.300782-4.148437 3.152344-1.304687 4.242188-3.007813 8.347656-5.09375 12.261719-.9375 1.6875-.644531 3.792969.714844 5.164063l5.488281 5.457031c3.316406 3.308593 5.179688 7.804687 5.179688 12.488281 0 4.6875-1.863282 9.179688-5.179688 12.492188-3.308594 3.316406-7.804688 5.179687-12.488281 5.179687-4.6875 0-9.179688-1.863281-12.492188-5.179687l-5.457031-5.492188c-1.371094-1.359375-3.472656-1.648438-5.164062-.714844-3.917969 2.085938-8.023438 3.792969-12.269532 5.09375-1.851562.535156-3.132812 2.222656-3.152344 4.148438v7.742187c0 9.75-7.902343 17.65625-17.652343 17.65625-9.753907 0-17.65625-7.90625-17.65625-17.65625v-7.792969c-.019531-1.929687-1.300781-3.617187-3.152344-4.148437-4.242187-1.300781-8.351563-3.007813-12.269531-5.09375-1.6875-.9375-3.792969-.644531-5.164063.714844l-5.457031 5.488281c-3.308594 3.316406-7.804688 5.179688-12.488281 5.179688-4.6875 0-9.179688-1.863282-12.492188-5.179688-3.316406-3.308594-5.179687-7.804688-5.179687-12.488281 0-4.6875 1.863281-9.179688 5.179687-12.492188l5.492188-5.457031c1.359375-1.371094 1.648437-3.472656.714843-5.164062-2.085937-3.914063-3.792968-8.019532-5.09375-12.261719-.542968-1.792969-2.171874-3.039063-4.042968-3.097657h-7.777344c-9.75 0-17.65625-7.902343-17.65625-17.65625 0-9.75 7.90625-17.652343 17.65625-17.652343h7.792969c1.929687-.019531 3.613281-1.300781 4.148437-3.152344 1.304688-4.242187 3.007813-8.347656 5.09375-12.261719.9375-1.6875.644532-3.792968-.714844-5.164062l-5.515624-5.464844c-3.316407-3.3125-5.179688-7.804688-5.179688-12.492188 0-4.683593 1.863281-9.175781 5.179688-12.488281 3.3125-3.316406 7.804687-5.179687 12.492187-5.179687 4.683594 0 9.175781 1.863281 12.488281 5.179687l5.457032 5.488281c1.371093 1.363282 3.472656 1.652344 5.164062.714844 3.914062-2.085937 8.019531-3.789062 12.261719-5.09375 1.824219-.539062 3.089843-2.199218 3.125-4.101562v-7.777344c0-9.75 7.902343-17.65625 17.652343-17.65625 9.753907 0 17.65625 7.90625 17.65625 17.65625v7.792969c.019532 1.929687 1.300782 3.613281 3.152344 4.148437 4.242188 1.304688 8.347656 3.007813 12.261719 5.09375 1.6875.9375 3.792969.644532 5.164063-.714844l5.457031-5.488281c3.308593-3.316406 7.804687-5.179687 12.488281-5.179687 4.6875 0 9.179688 1.863281 12.492188 5.179687 3.316406 3.308594 5.179687 7.804688 5.179687 12.488281 0 4.6875-1.863281 9.179688-5.179687 12.492188l-5.492188 5.457031c-1.359375 1.371094-1.648438 3.472657-.714844 5.164063 2.085938 3.914062 3.792969 8.019531 5.09375 12.261718.535156 1.851563 2.222656 3.132813 4.148438 3.148438h7.742187c9.730469 0 17.625 7.875 17.65625 17.601562zm0 0" fill="#35495e"/><path d="m132.414062 97.101562c0 19.503907-15.808593 35.3125-35.3125 35.3125-19.5 0-35.308593-15.808593-35.308593-35.3125 0-19.5 15.808593-35.308593 35.308593-35.308593 19.503907 0 35.3125 15.808593 35.3125 35.308593zm0 0" fill="#2c3e50"/><path d="m512 97.101562c0 9.753907-7.90625 17.65625-17.65625 17.65625h-7.792969c-1.929687.019532-3.613281 1.300782-4.148437 3.152344-1.304688 4.242188-3.007813 8.347656-5.09375 12.261719-.9375 1.6875-.644532 3.792969.714844 5.164063l5.488281 5.457031c3.316406 3.308593 5.179687 7.804687 5.179687 12.488281 0 4.6875-1.863281 9.179688-5.179687 12.492188-3.308594 3.316406-7.804688 5.179687-12.488281 5.179687-4.6875 0-9.179688-1.863281-12.492188-5.179687l-5.457031-5.492188c-1.371094-1.359375-3.472657-1.648438-5.164063-.714844-3.917968 2.085938-8.023437 3.792969-12.269531 5.09375-1.851563.535156-3.132813 2.222656-3.152344 4.148438v7.742187c0 9.75-7.902343 17.65625-17.652343 17.65625s-17.65625-7.90625-17.65625-17.65625v-7.792969c-.019532-1.929687-1.300782-3.617187-3.152344-4.148437-4.242188-1.300781-8.351563-3.007813-12.269532-5.09375-1.6875-.9375-3.792968-.644531-5.164062.714844l-5.457031 5.488281c-3.308594 3.316406-7.804688 5.179688-12.488281 5.179688-4.6875 0-9.179688-1.863282-12.492188-5.179688-3.316406-3.308594-5.179688-7.804688-5.179688-12.488281 0-4.6875 1.863282-9.179688 5.179688-12.492188l5.492188-5.457031c1.359374-1.371094 1.648437-3.472656.714843-5.164062-2.085937-3.914063-3.792969-8.019532-5.09375-12.261719-.535156-1.851563-2.222656-3.132813-4.148437-3.148438h-7.671875c-9.75 0-17.65625-7.90625-17.65625-17.65625s7.90625-17.65625 17.65625-17.65625h7.792969c1.929687-.015625 3.617187-1.296875 4.148437-3.152343 1.304687-4.238282 3.007813-8.34375 5.09375-12.261719.9375-1.6875.644531-3.792969-.714844-5.164063l-5.488281-5.453125c-3.316406-3.3125-5.179688-7.804687-5.179688-12.492187 0-4.683594 1.863282-9.179688 5.179688-12.492188 3.308594-3.3125 7.804688-5.175781 12.488281-5.175781 4.6875 0 9.179688 1.863281 12.492188 5.175781l5.457031 5.492188c1.371094 1.359375 3.472656 1.652344 5.164062.714844 3.914063-2.085938 8.019532-3.792969 12.261719-5.09375 1.796875-.542969 3.046875-2.179688 3.097657-4.058594v-7.777344c0-9.75 7.902343-17.65625 17.65625-17.65625 9.75 0 17.652343 7.90625 17.652343 17.65625v7.792969c.019531 1.929687 1.300781 3.613281 3.152344 4.148437 4.242187 1.304688 8.347656 3.007813 12.261719 5.09375 1.6875.9375 3.792968.644532 5.164062-.714844l5.457032-5.488281c3.308593-3.316406 7.804687-5.179687 12.488281-5.179687 4.6875 0 9.179687 1.863281 12.492187 5.179687 3.316406 3.308594 5.179688 7.804688 5.179688 12.488281 0 4.6875-1.863282 9.179688-5.179688 12.492188l-5.492187 5.457031c-1.359375 1.371094-1.648438 3.472657-.714844 5.164063 2.085937 3.914062 3.792969 8.019531 5.09375 12.261718.535156 1.851563 2.222656 3.132813 4.148437 3.148438h7.742188c9.730469 0 17.628906 7.875 17.65625 17.601562zm0 0" fill="#35495e"/><path d="m450.207031 97.101562c0 19.503907-15.808593 35.3125-35.308593 35.3125-19.503907 0-35.3125-15.808593-35.3125-35.3125 0-19.5 15.808593-35.308593 35.3125-35.308593 19.5 0 35.308593 15.808593 35.308593 35.308593zm0 0" fill="#2c3e50"/><path d="m432.550781 329.832031v11.238281c-.042969 14.609376-11.875 26.441407-26.480469 26.484376h-19.757812c-3.496094.042968-6.550781 2.363281-7.53125 5.71875-2.367188 7.71875-5.46875 15.191406-9.265625 22.316406-1.691406 3.078125-1.160156 6.902344 1.304687 9.402344l13.957032 13.867187c4.992187 4.960937 7.804687 11.703125 7.816406 18.742187.011719 7.039063-2.78125 13.789063-7.753906 18.765626l-7.945313 7.945312c-4.976562 4.976562-11.730469 7.765625-18.769531 7.753906-7.035156-.011718-13.777344-2.824218-18.738281-7.816406l-13.871094-13.953125c-2.5-2.46875-6.320313-3-9.398437-1.308594-7.125 3.796875-14.597657 6.902344-22.316407 9.269531-3.355469.976563-5.679687 4.035157-5.722656 7.53125v19.726563c-.042969 14.609375-11.875 26.441406-26.480469 26.484375h-11.210937c-14.609375-.042969-26.441407-11.875-26.484375-26.484375v-19.753906c-.042969-3.496094-2.363282-6.550781-5.71875-7.53125-7.71875-2.367188-15.191406-5.472657-22.316406-9.269531-3.078126-1.6875-6.902344-1.15625-9.402344 1.308593l-13.867188 13.957031c-4.960937 4.992188-11.703125 7.800782-18.742187 7.8125-7.039063.011719-13.789063-2.777343-18.765625-7.753906l-7.945313-7.941406c-4.976562-4.980469-7.765625-11.730469-7.753906-18.769531.011719-7.035157 2.824219-13.78125 7.816406-18.742188l13.953125-13.867187c2.46875-2.5 3-6.324219 1.308594-9.402344-3.796875-7.121094-6.902344-14.597656-9.269531-22.316406-.976563-3.355469-4.035157-5.675782-7.53125-5.71875h-19.738281c-14.605469-.042969-26.4375-11.875-26.480469-26.480469v-11.214844c.042969-14.605469 11.875-26.4375 26.480469-26.480469h19.757812c3.496094-.042968 6.550781-2.363281 7.53125-5.71875 2.367188-7.71875 5.46875-15.195312 9.265625-22.316406 1.691406-3.078125 1.160156-6.902344-1.304687-9.402344l-13.957032-13.867187c-4.992187-4.960937-7.804687-11.707031-7.816406-18.742187-.011719-7.039063 2.78125-13.789063 7.753906-18.769532l7.945313-7.941406c4.976562-4.976562 11.730469-7.765625 18.769531-7.753906 7.035156.011718 13.777344 2.820312 18.738281 7.8125l13.871094 13.957031c2.5 2.464844 6.320313 2.996094 9.398437 1.308594 7.125-3.796875 14.597657-6.902344 22.316407-9.269531 3.355469-.980469 5.679687-4.035157 5.722656-7.53125v-19.738282c.042969-14.609375 11.875-26.4375 26.480469-26.480468h11.238281c14.609375.042968 26.4375 11.871093 26.484375 26.480468v19.757813c.042969 3.492187 2.363281 6.550781 5.71875 7.527343 7.71875 2.371094 15.191406 5.472657 22.316406 9.269532 3.078125 1.691406 6.902344 1.160156 9.402344-1.304688l13.867188-13.957031c4.960937-4.992187 11.703124-7.804687 18.742187-7.816406 7.035156-.011719 13.789063 2.777343 18.765625 7.753906l7.945312 7.945313c4.976563 4.976562 7.765626 11.730468 7.753907 18.765624-.011719 7.039063-2.824219 13.78125-7.816407 18.742188l-13.957031 13.867188c-2.464843 2.503906-2.996093 6.324218-1.304687 9.402343 3.796875 7.125 6.902344 14.597657 9.269531 22.316407.976563 3.355468 4.035156 5.675781 7.527344 5.71875h19.714843c14.601563.046874 26.429688 11.867187 26.480469 26.464843zm0 0" fill="#35495e"/><path d="m344.277344 335.449219c0 45.335937-34.339844 83.300781-79.449219 87.832031-2.914063.265625-5.828125.441406-8.828125.441406s-5.914062-.175781-8.828125-.441406c-47.367187-4.757812-82.425781-46.222656-79.25-93.722656s43.445313-83.925782 91.023437-82.335938c47.582032 1.589844 85.328126 40.621094 85.332032 88.226563zm0 0" fill="#b49aca"/><path d="m291.308594 317.792969c0 19.5-15.808594 35.308593-35.308594 35.308593s-35.308594-15.808593-35.308594-35.308593 15.808594-35.308594 35.308594-35.308594 35.308594 15.808594 35.308594 35.308594zm0 0" fill="#fdd7ad"/><path d="m323.179688 392.738281c-14.785157 17.328125-35.691407 28.273438-58.351563 30.542969-2.914063.265625-5.828125.441406-8.828125.441406s-5.914062-.175781-8.828125-.441406c-22.660156-2.269531-43.566406-13.214844-58.351563-30.542969 9.183594-22.949219 35.753907-39.636719 67.179688-39.636719h.792969c31.074219.265626 57.292969 16.863282 66.386719 39.636719zm0 0" fill="#e64c3c"/><path d="m264.828125 388.414062v34.867188c-2.914063.265625-5.828125.441406-8.828125.441406s-5.914062-.175781-8.828125-.441406v-34.867188c0-4.875 3.953125-8.828124 8.828125-8.828124s8.828125 3.953124 8.828125 8.828124zm0 0" fill="#c03a2b"/></svg>